<mxfile host="Electron" modified="2024-03-06T16:57:39.404Z" agent="Mozilla/5.0 (Windows NT 10.0; Win64; x64) AppleWebKit/537.36 (KHTML, like Gecko) draw.io/23.1.5 Chrome/120.0.6099.109 Electron/28.1.0 Safari/537.36" etag="nqiTO2iuX_nZyX6Mho7v" version="23.1.5" type="device">
  <diagram name="Page-1" id="wPzS0JNUEuZs392oKPZi">
    <mxGraphModel dx="897" dy="629" grid="1" gridSize="10" guides="1" tooltips="1" connect="1" arrows="1" fold="1" page="1" pageScale="1" pageWidth="827" pageHeight="1169" math="0" shadow="0">
      <root>
        <mxCell id="0" />
        <mxCell id="1" parent="0" />
        <mxCell id="jDTzTQZYVNWjCPyWCqiT-2" value="" style="shape=image;verticalLabelPosition=bottom;labelBackgroundColor=default;verticalAlign=top;aspect=fixed;imageAspect=0;image=data:image/png,iVBORw0KGgoAAAANSUhEUgAAA+wAAAQyCAYAAAAySnVZAAAgAElEQVR4AeydB5gURd7/dwmCmEBPvcOs5/ka7693huM1XPDOM2fFgJ4JPRPq6ZnFgEpOApIkI1HBwJoVUXk5RbKkRSSL5CRx4fe/6t3qqZmt7ulQ1V018+3nmad7qqorfOo7VfWd7ukpOeqoowgvMIAGoAFoABqABqABaAAagAagAWgAGoAGzNJACTrErA5Bf6A/oAFoABqABqABaAAagAagAWgAGoAGmAZcw07YQAAEQAAEQAAEQAAEQAAEQAAEQAAEUifAv7CBYU+9K1ABEAABEAABEAABEAABEAABEAABEMgQgGHPsMARCIAACIAACIAACIAACIAACIAACBhDAIbdmK5ARUAABEAABEAABEAABEAABEAABEAgQwCGPcMCRyAAAiAAAiAAAiAAAiAAAiAAAiBgDAEYdmO6AhUBARAAARAAARAAARAAARAAARAAgQwBGPYMCxyBAAiAAAiAAAiAAAiAAAiAAAiAgDEEYNiN6QpUBARAAARAAARAAARAAARAAARAAAQyBGDYMyxwBAIgAAIgAAIgAAIgAAIgAAIgAALGEIBhN6YrUBEQAAEQAAEQAAEQAAEQAAEQAAEQyBCAYc+wwBEIgAAIgAAIgAAIgAAIgAAIgAAIGEMAht2YrkBFQAAEQAAEQAAEQAAEQAAEQAAEQCBDAIY9wwJHIAACIAACIAACIAACIAACIAACIGAMARh2Y7oCFQEBEAABEAABEAABEAABEAABEACBDAEY9gwLHIEACIAACIAACIAACIAACIAACICAMQRg2I3pClQEBEAABEAABEAABEAABEAABEAABDIEYNgzLHAEAiAAAiAAAiAAAiAAAiAAAiAAAsYQUG7YlyxdSmPHjjXu9c0339DOnTuNAY+KgAAIgAAIgAAIgAAIgAAIgAAIgIAfAeWGfcqUqfTGW+/R+598ofX17gef0pDhb1LZh2NpzAdj6c2336c3Ro+hIUOH0Ztvv0cjR4+hYcNH0shR79LgoSOodduOtGrVKj8WiAMBEAABEAABEAABEAABEAABEAABYwgoN+yTp0yhz//vW5o2+wetr4lTZ9Fb75TRO2PKaPRbb1PZBx9T2fsf0+i33qL3PvyExrz/MY18cxR99MlYJ65th840f/58Y8CjIiAAAiAAAiAAAiAAAiAAAiAAAiDgR0CLYf9iwiSaO39JqNec+Uso2GsxzZm/mGbNW0iTp89yXpOmzaJJ02ZKX99O/Y4mT59NMOx+MkAcCIAACIAACIAACIAACIAACICAaQS0GPavJ82gXbt2BX6x35aLr4qKCsp97dixg7Zv3+6+tm3bRvy1detW2rJlC23evNl5/fzzz7Rp0ybauHEjrV+/npYtX0HtcIXdNO2hPiAAAiAAAiAAAiAAAiAAAiAAAj4EtBn2rVu306rVG2jlyvV5XytWrqMVK8TXWvppxVpasWItbdq0mZhZZ+Z75cqVtGLFCvrpp5/c1/Lly2ndunWuYRfN+oYNG2DYfTofUSAAAiAAAiAAAiAAAiAAAiAAAuYS0GbY589fTo91LqP7Wo+m+9qMpvvasdcour/9m3R/xzcqX51HUrMu7DWCHug6nB7oNowe7D6UHug+lB7sOZQeeW0oTZ3xg3MlnV0pZ+b8xx9/pGXLljmvpUuXEnutXbuWmFFvM+R9uqF1P7ql5+t0XY9u9MJbQ524JcuWF9wt8eUdG1FJSQmVNOpI5ebqCzUDARAAARAAARAAARAAARAAARCISECbYZ8zZyld23woXfj4ALrwiQF04ZP96aKn+9FFz/Shi5r3oYufe40ueaE3XdKiF13yYk+69OUedGmr7nR5m1fp8nZd6fL2Xemazt1owsTZjhlnpnzJkiXOa/HixcReixYtcl5r1qxxboG/r90QOunOlnTmk53opEeb0x3duzjGfsGiJdS2Q6eCeugcDHtExeM0EAABEAABEAABEACBgiDgXLxiF7AUvQoCiuWNYP84du65f6O1a9dFbgk7l+XB8iqETathv+H5oXTNc69T4xZDqPGLr1PjlwdT45aD6LpWA+n6NgPo+nb96Qb26tiPbuzUl2585TW6sUtvatKtF93wag+6odur9OWEGbR69Wrntnf2t2zsxW+N57fHs1vi2W/Wn+/9Ad368hv0aI8xdGfnofTCwJE0d+5cKv/+B2rTHoa9EASLNoAACIAACIAACIAACIAAI6DKqPN8QDV9Asxo165Tl3532mmRTDsz6+xclgfLqxA2rYb9pheH0W1tR9LdnUfR3V3epLu7vkF3dxtJ93QfQff0GEH39hxO9/YaSve9NoTu6zOE7u87mO7vP4juHziI7unfj27u1Z3GfTXVvQWemW/2mjNnDs2ePdt5zZo1y7lVnhn2DkM/o3/3HEPPDn6fnhz0FrUdPoqmTp1KM2fPhWEvBLWiDSAAAiAAAiAAAiAAAiBQRUCV0VaVDzomPgHRcIc17XHOjV9zfTloNey3thpON7YcQje2ep1ubDOYmrQbRE3aD6QmHQZQk0796aZX+tFNXfrSzV370M2vvkb/6N6bbunZi27p3YNuea073dG3O439copzGzy7JZ5dSWcvdsxe7FZ4dvWd/b6dPWCu5eD36L7uI+mZoe/QQ/2H0AuvD6aJEyfSjJmzqU37jtbcEl9e1pGaNmpEjTp6/zodt8Tr+1AgZxAAARAAARAAARAAAfMJqDLaqvIxn5gdNYxivKOcYwcNIq2G/Y52w+mWdsPo1g5D6dZOQ+jWzq/Tba8Mptu6DqLbug2g27r3p9t69KPbeval23q9Rrf17kW3vtaDbuvTg+7o353uHNCDxn452fm9OvvN+nfffee+ZsyYQdOnT6dp06Y5D55jpr3l0Hfo/t7D6NmRb9GDgwbRC0MG0jfffEPTv5tlkWEvp46NKn+LA8Nuy8cI9QQBEAABEAABEAABEEiagCqjrSqfpNtfyOWFMeBh0trITKthv6vTcGr6ynC6s8swurPbULqr+xC6vdsgurlLP7qucy+6quOrdHmHV+iSDh3p4g7t6JJO7eiyV9rSZV3b0BXdWtG1Pdq6hp1dWed/2cb/Y53/bRvfd333A2o+chS9/O7b9Pw7I6nj6OEw7DaqEnUGARAAARAAARAAARAAgTwEVBltVfnkqS6iQxIIYsSDpAlZrHHJtRr2e7qOoHu7j6S7ewx3jPo17XrRpa260oWtOtMFrTvSRW070EXt21Wa9c5t6dJX2tBlXVvT5a+2oit6tKTGvdrQZ19Mcp8Gz66wi1fW2dV19ht1/tdurd8YRQ8OHkAvvDuSHh7Zh1oM70tff/01TZsxE1fYjZMeKgQCIAACIAACIAACIAAC0QmoMtqq8oneEpzpRcDPkPvFeeVnY7hWw96sB3u43DBq3L4PXfBSFzr/pU50QcuOdEHrDnRRu/Z0Ufv2dHHHdnRJ57Z0WZfWdFnXVnR5t5Z0RfeX6cqeL9J1r7VyDTu75X3z5s3Oi19p37hxo/PbdRbHftPe7f0x9Ozbw6n1h29Qi/cHU4e3B9F//vOfwIbd/V14SVMqq+rN8rKm1KjqFvXKD3MjatS0I5VJfl5e1pT/rUTmfG9RZG59L2laRpmyeR7V9015pYgy6d3/YS+nsqaNqJH4txaNGlFTWUUllSovL6OOueeXlFCjRk2pY5483LorqoukeggCARAAARAAARAAARAAgSwCqoy2qnyyKoc3ygjIjLksTFmBhmWk1bDf1fV1urx1D/r7i53p/Jc70QWtOtKF7Kp6u/ZVt8Bnrqpf1q0VXd69JV3R8yW6qudLdHXvFnRD35fpsy8zV9jFq+vsyjp7TZkyxf0v9o5j3qDHR/ejlh8NoafH9KLWo16jCRMm0NRp3wW6wu4aT8ewC4ZaNMHCcTUzXN7RNcyiuZb2uZu2EbFny2XKrm7U+SAi5ummZya5vIyaZn2pkJ1HI/HEapUpd4w6L8Nz36ip9EsKll21ugiMcvPz+11+taohAARAAARAAARAAARAAAQ8CPB1pkd04GBV+QQuEAlDE8g16Pyv28I+ST50wQacoNWwX9+ut3NV/Xx2Vb1VB7qobXu6qF27qqvqbapugReuqvd4ia7q1YKufq0FXdPnebqx/4vOFfaFCxc6T4Tnv1UXnxbPnhLPnxbfoWwYPfZ2L2r1ySB6+r1u1GpUdxo/fjxNmTojtGFv6lwtr7xCLV5MZ09wz1zFrjTbmX4UTL57tTkTKx65V+Orpcvk4WduMya5aaVZZ1fCyzM1LS/vSE0F4yz37Jmy2EDFjL2QBbE3ZR2bCu2V3zkgq0uZkJE/M5EKjkEABEAABEAABEBALwFuzlTt9dYWufsR4H3olyZInKp8gpSFNNEJiKY9zn+1R69BOmfqNewdetL5LTvRhez36u4t8G3p0s7MrFfdAv9qS7qiB7sFnpn1F+nq115wzHrjfs9RkwEtHMO+YMECYqad/Wad/26dXVmfPHkyTZo0yYlbtWoV9fpsFLX6ZCB1/uJ1avfFa9Tt/T701Vdf0eSp00MadnaFOteMix1UljHDuYa7rClVfuiDnV/dlGdMdPW4TB1ck8xMeW4deDL3Kn4JsdvuczcxD0l0JnmIfKLWJVMYjkAABEAABEAABEBAHwFuzlTt9dUUOecjwPswX7p88aryyVcO4uMRgGE/6ijnP97iYSSaPGUKfT1pBs2Zs5Ru6NSDLmzDb4FvS5d0qroFvktrurxbK7ri1Zfpyh4vu7fAM7N+bd/nqXH/Z+m6Ac/SzYOfp8+++JaYYV+5cqXzWrFiBbHX8uXL6ccff6Rly5Y571l8pw8G0ZNlnan9uF707Ketqe07nenLL7+kSVPCG3Y/s8wYZcxurjHPmHnPPFxTL7tiHd6w+5lt7yv5AeopiCHT3up1zsSVkHddMu3yNPVCeTgEARAAARAAARAAARAAAT8Cqoy2qnz86oq4eAREs85ug8ct8TF4ioa9SZfudLHzYLm2lQ+W41fVmVnv3lK4ql55C/y1/Z6j6xyz3pxuGPQM/WPIs45h/+GHH5zfqc+cOdP5H/bc37Kzq+/MxL//7Vga+NkIGvzpcOpR1psGvvd6lWGfFvIKe3VTWg2JcNU516R6m2SWi2Bcc090CsnEexr+rC8M/Ovqmuncq/Dulwa5XzhUa2llgE973TKEh/XJcnHT5dZFlhhhIAACIAACIAACIAACIOBDQJXRVpWPT1URFYNArlln72VhMYow+lStt8Q36fYqXdyJmfU2dCl7CrxzVZ0/BT779+qN+z1LjQc8S9cPfJZuGPwM3Tj4KbplaHPXsLNb3tnT4NmL/YadPRWe/X6dhbOr6z/99JNr6tmD5saOHUvjxo1z/tZtyrTwv2GvfgN5bj/6XKH2MbfkxnkZ5ZCGPY/59TLJbngek51pdaa9ud8zuHlFrEumDByBAAiAAAiAAAiAAAiAQDACqoy2qnyC1RqpwhDwM+Z+cWHKMD2tVsN+U/dulQ+W68IeLMeuqrNb4Kt+q96bXVVnt8A/594Cf8NAZtSfpiZDnqSbhj5Jtw1/mj79YiJ9//33jin3Muv8FvklS5bQvHnzaPr06c7v29lv3NnxjJmzqU37TjR//nzf/nCNZyATmzGw1a+EZ0x37m/H3TI8zW3m3Or5ZqqfP5/KtF7pvMIzJeQeebc3aF5B0+WWjPcgAAIgAAIgAAIgAAIgkEtAldFWlU9u/fA+HoEghjxImni1SP9srYb9tt6v0tXd29IVr1bdAs9+r84eLNebPVjuBWK3wLPfq18/sDldP6jKrL/OzPoTdPPwx+n2EU/Rp+Myhp1fWedPhWdX1rlZZ79nX7p0qfMAOmbM586d675mzSmnth30GfbcK85Ot7q3nIu3rGdMr/Qc58SEDXugLydYxbzrHtSIB02X/scCNQABEAABEAABEAABEDCdgCqjrSof03nZVL8wRjxMWpsY8LpqNOxL6PbXulHjXm3pml6t6epeL9PVvSufAu88WK5f5YPlmFm/YdDTdOPrT1VdWX+C/jH8MfrHiH9T0zeepE/HfeNcNWcPl+MPmmPGnF1NX7x4sXMbPDtm8TyMPaSO/e6dGXd2xX323O+pbYfOaq+wu4bc69Z2icF1zxFNPO8Kvk/GsJNbF6/68/pU7X1u5Q9qxIOmyykZb0EABEAABEAABEAABECgGgFVRltVPtUqiIBIBKIY8CjnRKpcCidpMuzTafacJXR731fomt4t6ZreL9E1vVvQtX2er3wKvGPWKx8sx36v3mTIU3TTkCfo5mHMqD9Gt4z4N936xiN056jHXcPOjPfUqVOJ/Z0b+ys39po4cSJ98803zpV0buIXLVrkPFWemXV2K315eTnNmjMvpGH3e9p5ZS/5P1iuMo1rUKsup/Nz/G51Fx9K55fOzdvz1vqcOlRLl/lCwa8crkm3PMkVeTeuWhn87Hx1yU6HdyAAAiAAAiAAAiAAAiCQj4Aqo60qn3z1RXx+AnGMd5xz89csvRR6DXu/Ts5Vdces9628BZ49Bd55sBy/Bd75vXqVWR/+KN0ystKs3/bmw3TX6Ecdw85MN7uazp4Gz6+eMzPOTDy79Z2Fsavr3Kyz9/zqOoufNZvdEh/mCrvPf5uzvnKvTpeQr9nNuirdkRqx/0z3/X93lnnmCnvu799FmagwyfwLBDZIed+i7zySvqru8vaqqIvYNhyDAAiAAAiAAAiAAAiAQD4C3Gir2ucrD/H6CZx77t+odp26zt+2MQMedhNNO8urEDa9hr1/B+e36o37PU/X9X+erh/wLN0wqDk1GfwM3TTkabp56JN087An6JYRj9OtIx+l2974N93+5iN0x6iH6Y7RD9E/3/43fTLua8eUs1vcZ8+eTeJfu02bNo3Yixl6ZtaZoWfpRDPvnDNrbnjDzsx1o6bUsaxc6OdyKuvYiNxBIc8VZdF8N2pUdZ6vM64sKmOkG2XKL+9IHYVH16sxyWXUtBH7EqHy1ahpGZVnNZe1t6lr1r3+P11NXQTMOAQBEAABEAABEAABEACBPAT4GlbVPk9xiE6AwJQpU4kZ7ShmnVePncvyYHkVwqbVsN8xsD3dObQdPTiqMz00ujP9661O9PA7HeiRdzvQI2Pa0b/L2tJj77Whx95vRY9/0JKe+PBlevKjl+mpj16kRz98lu555xH65POvac6cOY4RZ1fL2fGsWbMc487+j5292JV2fvVdvLLO086YOSekYW9KZe7V8YyhzRoMGvn9Dl2QhnA1np0fwK9T5q/fsssWz1VnkrNNe1Ybq4w8C3PMvNAs8VBdXcRccQwCIAACIAACIAACIAACIAACxU1Am2GfO3cpPTikK90+uBXdMbglNR3yEt059CW6a9iL9M/hL9DdI5+ne954ju5981m6b1Rzun90c7r/rWeo2VtP0wNvP0UPvPMkPfLuM45hZwadXTlnV9KZCWdXzVnYd9995xh2Fi4+ZI6n42mmfzcrvGFnuigvo45NhSvqzLhWu+qeT0CZ34p7XaGW5lDeMevqt3O1X7j6rdokl5ex8hplrqZX3b7fqGlHKsu67F69tqrrUr0EhIAACIAACIAACIAACIAACIBA8RHQZtjXrdtI3323gCZOnEXjx0+jL76Y7LzGfTGJ3Ne4b+lz/vp8Io1lr7Hf0GdVL3b8n/9Mcgw6+406e0o8e7EnwvOHzPHb4GVX1pmhZ//DPm1GRMOuRA8Zw+77e3clZSETEAABEAABEAABEAABEAABEACBQiGgxbBP+HYabdy0mVavWUsLFy2m2bPn0owZzDx/R9Omz6Cp06Y7rylTp9HkKVOd16TJU+jbSew1mSZ+O4m+mfits2dp55bPo0WLl9CSpcuc1+IlS2nhoiW0YOEi+mHBQvp+/gKa9/18J92cueU0a/YcmjlrNn03c5ZT3rQZs6NdYVfQy+7V57wPm1NQGLIAARAAARAAARAAARAAARAAARAoGAJaDHuP1/pT/8HDqP/AodS3/+vUu98g6t13YNVrAPXuK3/16juAxJdzTr+B1HfA69R/0NDKPAcNo/4hX/0GDqUWL7VW+z/sgSQQ7InvgbJCIhAAARAAARAAARAAARAAARAAgaIioNywb9y4kSZPnkxfffUVffnll87riy++oDgvng/LM+rrP//5D61atcq3czNXwwM+UM43N/Hv3xpRR+H35/lOQzwIgAAIgAAIgAAIgAAIgAAIgAAIKDfsDGlFRQVt377dqNeOHTto586dvj2uzrCXU3mZ8Hdo4uPdfWuASBAAARAAARAAARAAARAAARAAARCoJKDFsNsKN7Zhz/kLN+cv0vL+V7uttFBvEAABEAABEAABEAABEAABEAABnQRg2AW6ag17I2rasYxwJ7wAGIcgAAIgAAIgAAIgAAIgAAIgAAKBCcCwB0aFhCAAAiAAAiAAAiAAAiAAAiAAAiCQHAEY9uRYoyQQAAEQAAEQAAEQAAEQAAEQAAEQCEwAhj0wKiQEARAAARAAARAAARAAARAAARAAgeQIwLAnxxolgQAIgAAIgAAIgAAIgAAIgAAIgEBgAjDsgVEhIQiAAAiAAAiAAAiAAAiAAAiAAAgkRwCGPTnWKAkEQAAEQAAEQAAEQAAEQAAEQAAEAhOAYQ+MCglBAARAAARAAARAAARAAARAAARAIDkCMOzJsUZJIAACIAACIAACIAACIAACIAACIBCYAAx7YFRICAIgAAIgAAIgAAIgAAIgAAIgAALJEYBhT441SgIBEAABEAABEAABEAABEAABEACBwARg2AOjQkIQAAEQAAEQAAEQAAEQAAEQAAEQSI4ADHtyrFESCIAACIAACIAACIAACIAACIAACAQmAMMeGBUSggAIgAAIgAAIgAAIgAAIgAAIgEByBGDYk2ONkkAABEAABEAABEAABEAABEAABEAgMAEY9sCokBAEQAAEQAAEQAAEQAAEQAAEQAAEkiMAw54ca5QEAiAAAiAAAiAAAiAAAiAAAiAAAoEJwLAHRoWEIAACIAACIAACIAACIAACIAACIJAcARj25FijJBAAARAAARAAARAAARAAARAAARAITACGPTAqJAQBEAABEAABEAABEAABEAABEACB5AjAsCfHGiWBAAiAAAiAAAiAAAiAAAiAAAiAQGACMOyBUSEhCIAACIAACIAACIAACIAACIAACCRHAIY9OdYoCQRAAARAAARAAARAAARAAARAAAQCE4BhD4wKCUEABEAABEAABEAABEAABEAABEAgOQIw7MmxRkkgAAIgAAIgAAIgAAIgAAIgAAIgEJgADHtgVEgIAiAAAiAAAiAAAiAAAiAAAiAAAskRgGFPjjVKAgEQAAEQAAEQAAEQAAEQAAEQAIHABGDYA6NCQhAAARAAARAAARAAARAAARAAARBIjgAMe3KsURIIgAAIgAAIgAAIgAAIgAAIgAAIBCYAwx4YFRKCAAiAAAiAAAiAAAiAAAiAAAiAQHIEYNiTY42SQAAEQAAEQAAEQAAEQAAEQAAEQCAwARj2wKiQEARAAARAAARAAARAAARAAARAAASSIwDDnhxrlAQCIAACIAACIAACIAACIAACIAACgQnAsAdGhYQgAAIgAAIgAAIgAAIgAAIgAAIgkBwBGPbkWKMkEAABEAABEAABEAABEAABEAABEAhMAIY9MCokBAEQAAEQAAEQAAEQAAEQAAEQAIHkCMCwJ8caJYEACIAACIAACIAACIAACIAACIBAYAIw7IFRISEIgAAIgAAIgAAIgAAIgAAIgAAIJEcAhj051igJBEAABEAABEAABEAABEAABEAABAITgGEPjAoJQQAEQAAEQAAEQAAEQAAEQAAEQCA5AjDsybFGSSAAAiAAAiAAAiAAAiAAAiAAAiAQmAAMe2BUSAgCIAACIAACIAACIAACIAACIAACyRGAYU+ONUoCARAAARAAARAAARAAARAAARAAgcAEYNgDo0JCEAABEAABEAABEAABEAABEAABEEiOAAx7cqxREgiAAAiAAAiAAAiAAAiAAAiAAAgEJgDDHhgVEoIACIAACIAACIAACIAACIAACIBAcgRg2JNjjZJAAARAAARAAARAAARAAARAAARAIDABGPbAqJAQBEAABEAABEAABEAABEAABEAABJIjAMOeHGuUBAIgAAIgAAIgAAIgAAIgAAIgAAKBCcCwB0aFhCAAAiAAAiAAAiAAAiAAAiAAAiCQHAEY9uRYoyQQAAEQAAEQAAEQAAEQAAEQAAEQCEwAhj0wKiQEARAAARAAARAAARAAARAAARAAgeQIwLAnxxolgQAIgAAIgAAIgAAIgAAIgAAIgEBgAjDsgVEhIQiAAAiAAAiAAAiAAAiAAAiAAAgkRwCGPTnWKAkEQAAEQAAEQAAEQAAEQAAEQAAEAhOAYQ+MCglBAARAAARAAARAAARAAARAAARAIDkCMOzJsUZJIAACIAACIAACIAACIAACIAACIBCYAAx7YFRICAIgAAIgAAIgAAIgAAIgAAIgAALJEYBhT441SgIBEAABEAABEAABEAABEAABEACBwARg2AOjQkIQAAEQAAEQAAEQAAEQAAEQAAEQSI4ADHtyrFESCIAACIAACIAACIAACIAACIAACAQmAMMeGBUSggAIgAAIgAAIgAAIgAAIgAAIgEByBGDYk2ONkkAABEAABEAABEAABEAABEAABEAgMAEY9sCokBAEQAAEQAAEQAAEQAAEQAAEQAAEkiMAw54ca5QEAiAAAiAAAiAAAiAAAiAAAiAAAoEJwLAHRoWEIAACIAACIAACIAACIAACIAACIJAcARj25FijpAIh0Lx5c2IvbCAAAiAAAiAAAiAAAiAAAiCgkwAMu066yLsgCZSUlBB7wbQXZPeiUSAAAiAAAiAAAiAAAiBgDAEYdmO6AhWxhYBthn3t2rU0f/5852ULYxvqyZkyvtjUEIBW1XDMzQVazfr4pEIAACAASURBVCUS/z20Gp+hLAdoVUYlXhi0Go+f19nQqheZ6OHQqjc7GHZvNogBASkBGHYplqILxGStvssxWatnynKEVtVzhVbVM4VW9TCFVvVwxbiqniu06s0Uht2bDWJAQEoAhl2KpegCMVmr73JM1uqZshyhVfVcoVX1TKFVPUyhVT1cMa6q5wqtejOFYfdmgxgQkBKAYZdiKbpATNbquxyTtXqmLEdoVT1XaFU9U2hVD1NoVQ9XjKvquUKr3kxh2L3ZIAYEpARg2KVYii4Qk7X6LsdkrZ4pyxFaVc8VWlXPFFrVwxRa1cMV46p6rtCqN1MYdm82iAEBKQEYdimWogvEZK2+yzFZq2fKcoRW1XOFVtUzhVb1MIVW9XDFuKqeK7TqzRSG3ZsNYkBASgCGXYql6AIxWavvckzW6pmyHKFV9VyhVfVMoVU9TKFVPVwxrqrnCq16M4Vh92aDGBCQEoBhl2IpukBM1uq7HJO1eqYsR2hVPVdoVT1TaFUPU2hVD1eMq+q5QqveTGHYvdkgBgSkBGDYpViKLhCTtfoux2StninLEVpVzxVaVc8UWtXDFFrVwxXjqnqu0Ko3Uxh2bzaIAQEpARh2KZaiC8Rkrb7LMVmrZ8pyhFbVc4VW1TOFVvUwhVb1cMW4qp4rtOrNFIbdmw1iQEBKAIZdiqXoAjFZq+9yTNbqmbIcoVX1XKFV9UyhVT1MoVU9XDGuqucKrXozhWH3ZoMYEJASgGGXYim6QEzW6rsck7V6pixHaFU9V2hVPVNoVQ9TaFUPV4yr6rlCq95MYdi92SAGBKQEYNilWIouEJO1+i7HZK2eKcsRWlXPFVpVzxRa1cMUWtXDFeOqeq7QqjdTGHZvNogBASkBGHYplqILxGStvssxWatnynKEVtVzhVbVM4VW9TCFVvVwxbiqniu06s0Uht2bDWJAQEoAhl2KpegCMVmr73JM1uqZshyhVfVcoVX1TKFVPUyhVT1cMa6q5wqtejOFYfdmgxgQkBKAYZdiKbpATNbquxyTtXqmLEdoVT1XaFU9U2hVD1NoVQ9XjKvquUKr3kxh2L3ZIAYEpARg2KVYii4Qk7X6LsdkrZ4pyxFaVc8VWlXPFFrVwxRa1cMV46p6rtCqN1MYdm82iAEBKQEYdimWogvEZK2+yzFZq2fKcoRW1XOFVtUzhVb1MIVW9XDFuKqeK7TqzRSG3ZsNYkBASgCGXYql6AIxWavvckzW6pmyHKFV9VyhVfVMoVU9TKFVPVwxrqrnCq16M4Vh92aDGBCQEoBhl2IpukBM1uq7HJO1eqYsR2hVPVdoVT1TaFUPU2hVD1eMq+q5QqveTGHYvdkgBgSkBGDYpViKLhCTtfoux2StninLEVpVzxVaVc8UWtXDFFrVwxXjqnqu0Ko3Uxh2bzaIAQEpARh2KZaiC8Rkrb7LMVmrZ8pyhFbVc4VW1TOFVvUwhVb1cMW4qp4rtOrNFIbdmw1iQEBKAIZdiqXoAjFZq+9yTNbqmbIcoVX1XKFV9UyhVT1MoVU9XDGuqucKrXozhWH3ZoMYEJASgGGXYim6QEzW6rsck7V6pixHaFU9V2hVPVNoVQ9TaFUPV4yr6rlCq95MYdi92SAGBKQEYNilWIouEJO1+i7HZK2eKcsRWlXPFVpVzxRa1cMUWtXDFeOqeq7QqjdTGHZvNkUVs27dOnrsscdo+/btStq9atUq+vjjj6lfv370ySef0Jo1a0Llu3nzZho3bhz16dOH3nvvPVq8eHGo83UmhmHXSdeevDFZq+8rTNbqmbIcoVX1XKFV9UyhVT1MTdMqX0NhX0LFziBX8aZpNbd+ab6HYU+TviFll5WV0V577eUMHMwox9k2bdpE5513HpWWlmYNROz9DTfcQDt27PDNfteuXXTXXXdRrVq1ss5ng9pZZ51Fq1ev9j0/iUg+wDZv3jyJ4mKXgQEwNkJpBjBBUiyxAqHVWPg8T4ZWPdFEjoBWI6PzPRFa9cUTKdI0rfI1FPYw7LmCNk2rufVL8z0Me5r0Uy572rRp9Oc//znLGMcx7OvXr6d99tnHze/MM890TPrxxx/vhp1wwgm+rT7xxBPdtKeddhr94x//oN///vdu2N57702snDQ3PsnAsKfZC+mXjYWl+j7AZK2eKcsRWlXPFVpVzxRa1cPUNK3yNRT2MOy5ijdNq7n1S/M9DHua9FMom13B7t+/P51++umuCW7YsKF7HMewc2P9i1/8gubNm5fVum7durllPPjgg1lx/M2tt97qpKlRowZ9+umnPNjZf/TRR+5V+7PPPjsrLuk3fJKBYU+avFnlwQSp7w9M1uqZshyhVfVcoVX1TKFVPUxN0ypfQ7G9zRu7o5S9VP2U1GYWYeru1/+maTVMu3SnhWHXTdiw/Nkt5eKHhd2mPnr0aDcsqmEfP368m8c333wjbfV1113nGvJt27ZlpWG/eef16t27d1Ycf9O2bVs3zdy5c3lw4nteTxj2xNEbVSBMkPruwGStninLEVpVzxVaVc8UWtXD1DSt8jUU29u8wbBH6z2//jdNq9FaqOcsGHY9XI3NlRljdtv6JZdcQuyWeLZ9+eWXrhGOatj/+te/OnmcfPLJnm1fuHChW86oUaOy0jHzyz7E7Lf0XltFRYX72/ZHHnnEK5n2cD7YwLBrR210ATBB6rsHk7V6pixHaFU9V2hVPVNoVQ9T07TK11Bsb/MGwx6t9/z63zStRmuhnrNg2PVwNTZX9tA3NsiIm3h1PKph32233RzD7XV1nJdXv359J93ll1/Og5w9EyL7ELPfrPtt//u//+ukO/zww/2SaY3jgw0Mu1bMxmcOE6S+izBZq2fKcoRW1XOFVtUzhVb1MDVNq3wNxfY2bzDs0XrPr/9N02q0Fuo5C4ZdD1erco1r2NlfrvEP4IIFC3zbfsEFFzhpmfD4tnPnTmK/W2d5vPHGGzxYun/xxReddLVr15bGJxHI2wrDngRtw8pg/wxQ9VrbrJljhNgEg00NAUzWajjm5gLDnksk/ntoNT7Dajk0b05sXGUvYmbOkn9iqdYOwwJM0ypfQ7G9zRsMe7Te8+t/07QarYV6zoJh18PVqlzjGnb2t3D8A5jv4RvsVnaWtm7dui6jZcuWuefPmTPHDZcdvPXWW27ajRs3ypL8d45vrvXF26rbsLOBS8WLfYkyZcoU56Uiv2LNw1k8sgVGgFexMorbbmhVzWc+tx/4558Z99w4vI/GHFqNxi1Xb864yoy537jKjLyi+bAY8zFNq3wNxfZszWjri2uJGXdb25BGvcX+5wz5XodWpUbBwkAYdgs7TXWV4xp2/jA49t/p+baePXu6hps9sZ5tYvnr1q3zzWLq1Knu+UuWLJGmZUZaHBB0Hes27PyqWNw9W6x//vnnzituXsV4vnu1x29BKYkrRlZx2wytzndvX4/LUjyff/4ZXzEcx9F5Q6vR2WVdRZeMnV7mnZ0HzYbnbppWxTUZv0pt437FihXEXsxs2lj/tOos9n/u51mHVqVGwcJAGHYLO011lUXDHOU37M8884xjkOvVq5e3akOGDHHNNPs9Pds++OADN2zr1q2+eXz//fdu2vLycmlaGPbsCV3HAJg7yBbq+6hmnS84C5WLrnZBq9mfXVWcYdjVc4VWozGNO6aysRXGPRx707QqGra0TKOKcmHYK//WLixLsf9z5zgdWpUaBQsDYdgt7DTVVY5r2O+55x7HRLOnz+fb2NPh+Yd1y5YtTvJhw4a5YdzEe+UjPmmeP+XeK62ucF5/3VfYVdWfffvLB0VVeRZ8PlW/U+fGO9a+4GGpayC0qo6lmBP//DO+2NQQgFYjcsx3+3uIK+4Ra1B0p5mmVb6GYnubN25U2W3l2IIT8Ot/07QavFX6U8Kw62dsfAlxDfuDDz7oGO4999wzb1uHDh3qmnP2sDm2sQfN8Q9wvoFv3rx5btoffvghb3k6EvC6wrDroGtAnkEWlFUPRwps5A1olg1VwGStp5dg2NVzhVYjMA0wtrKr585V+ABpnfE3QjWK7RTTtMrXUGxv8wbDHq33/PrfNK1Ga6Ges2DY9XC1Kte4hp3fgi4+SM4LQK9evRzDzZ4Kz7cPP/zQNeH5bslnV9X5h53djpTGxsuHYU+DvuYy8y0SWXzVJjVBfleH+InYexLAZO2JJlaEVKuxcsTJ0GpIDfiNrSyuamytplW/8/h4G7IqxZbcNK3yNRTb27zBsEfrPb/+N02r0Vqo5ywYdj1crco1rmHnJpx9CPmD5LwAPPbYY47h3n///d0k4oPkFi1a5IbLDsaMGeOcX1paShUVFbIk2sP4YAPDrh11sgXkWxhWLSh5paotLHkEX0TK9jwN9lICmKylWGIHemo1ds7FmwG0GqLv/cbWoOOqXx4hqlKMSU3TKl9Dsb3NGwx7tN7z63/TtBqthXrOgmHXw9WqXOMa9kmTJgW+6n3eeec5ac8++2yX0c8//+yez662+20tWrRw0u63335+ybTG8cEGhl0r5uQz91oQsvCcRSWrnK8Jkpl1HpZ8y6wpEZO1nq7y1aqeIgs+V2g1YBd7jatsPAw7rrIi+Tiauw9YnWJMZppW+RoKhr0Y1cg+wiXuK5eAaVrNrV+a72HY06RvSNlxDbtouAcPHuzbqn333df5oHbo0CErHXtgHfsQ33XXXVnhuW/OPPNMJ91VV12VG5XYez7YwLAnhlx/QV6LSsmCklcmrwnKXVCK73km2GcRwGSdhUPZm7xaVVZS8WQErQboa69xlY2FHmNrIK2KY6l4HKBKxZjENK3yNRTb27zhCnu03vPrf9O0Gq2Fes6CYdfD1apc4xp21thjjz3WMdLMUHttM2fOdNKwD+tPP/2Uleymm25y4vyunLO/fGO3wrPzP/roo6zzk3zDBxsY9iSpayzLa1HpsaDkNYm1sMyTNy+j2PaYrPX0eCCt6im6YHOFVvN0rde46mPWWY6BtCqa9NzjPNUqxmjTtMrXUGxv8wbDHq33/PrfNK1Ga6Ges2DY9XC1KlcVhn3gwIGuGZ84caK0/X/5y1+cNOecc061+BkzZrjn9+3bt1o8C/jXv/7lpPnlL38pjU8qkA82MOxJEddcTu6Cj7/PY6oDLSxZ1Xl+uXvNzbIxe0zWenotsFb1FF+QuUKrebo1d7zj7zGu5gGnPto0rfI1FAy7+r62IUe//jdNqybxhGE3qTdSqktQw85M9RFHHEHHH388yZ7QzuLYB5Hd3j5hwgS3Neyv2u677z4njl0hnzt3rhsnHpx//vlumhEjRrhR7EF2r7zyihPH8mf/5Z7mxgcbGPY0e0FR2V5XgfIsKlnpoUwQX6zm7hU1o1CywWStpydDaVVPFQouV2jVp0sxrvrAST7KNK3yNRTba9u2btWWNc8YV9g5iXB7v/43TavhWqY3NQy7Xr5W5B7UsN9zzz2uaW7Tpk21trEnvO++++5umoMPPphOPPFE2mOPPdwwv9+4b9u2jQ477DA37YEHHkgnn3wyNWjQwA1jT5lPe+ODDQx72j0Rs/wYi0pWcigT5FVWzCYU2umYrPX0aCit6qlCweUKrXp0qddYx8IDbKG1mvslKH8foKxiSWKaVvkaSqlhX7+eiF3MadaM6MADK+9su+giotaticaP19LVMOzRsPr1v2lajdZCPWfBsOvhalWuX331FbG/WWNmmT1Azmv75JNPiP1/+m677Ubs9+iybdWqVfT3v//d/a05/2D+/ve/J69b5cV8duzYQbfccgvVrl3bNeksj1//+tf05ptviklTO+ZtgmFPrQvUFMwXdrl7LCzV8I2QCybrCNACnBLaBAXIs9iTQKseCvAy7B7Jc4NDazV3/ObvA47jueUX4nvTtMrXUGwfa2PPQnrpJaIrriDaay/vn5+xck4+mejuu4k8fnIZpR4w7FGo4Snx0agRwbBHJVek561bt462bNmSt/UbNmwg9v/q06ZNo9WrV+dNn5uAPWCOfSnw7bffVntAXW7apN/zyQaGPWnyCsvzWlSGWOSFXliy6vPFpLgPUaZCAkZmZdrC0khIESoVSasRyimmU6BVSW+bNK7GNYOS5tkaZJpW+RoqlmFnZp0ZdXEuDXLcsCFRz55KujKcYd9Fu3YpKVZRJrtow48z6Y2+3ejZxx6mhx59hjr3Hk6zftxIuqvp1/+maVURbCXZwLArwYhMiokAH2xg2C3tdQWLStbySCbIa0FhKUrV1cZkrZpoZX6RtKqnKgWTK7Qq6UqvsVWS1CsoslZlYyu+DHUwm6ZVvoaKbNijmnWukbimfdc2+nH+LPp4zJvUu0tH6tK9N40Y/S59MXEWbdi+s7q0ty+iZ678Pf1i/6Ppwd5f0PbqKZSHbN20znnW1NoNW6oZ8Ir1s+mpq0+j3Wtk/g/d7ZOae9H593ahZTmPANi5YwutXrmCVq5aSztiOnq3LNYfOZtpWs2pXqpvYdhTxY/CbSTABxsYdht77791VrCoZC1XurCUTFyW0o1VbUzWsfB5nhxZq545IgJazdGA17ga0jRH1qpX+TnVLMa3pmmVr6HYPvQW16zHMe3bVtCQl+6kY/bfg0pLJGa3pITq7HM0tXh3VlazNs4dTv+ze2X6A079Jy3U7Ni3LP2U/nzIXrTv4WfTkCnZf6FcsWYiXXlM1XOhatSjU867jh5/rgU9+eBtdOoR+1W1qyadcNnztEys544fqd0/zqJ6NfemJu0/ohw/n9XefG/8+t80reZrS5LxMOxJ0kZZBUGADzYw7BZ2p9eiLuSikrUcC0v1/Y/JWj3TWFrVU52CyBVazelG2dia5LjKqsPNmLiPUIeclln/1jSt8jVUaMOuyqxzfYS40r595TfU5NSDXKNeWrMO7X/Q4XT8iSfRcb85kg6oX49qlJZQSWl9+veb2Yadti2gRy84gfbZ5yC6tcOHeq+w71hKT/zt11Rauhfd0mVsdlkVy+ipv//aaUONPY+hjh/NoQpR3RWrqM+D59PuzpcRe9LNXT6nHUL89p++oD83rEsldY+inl8vF2LCHfr1v2laDdcyvalh2PXyRe4FSIAPNjDsFnauokUla3lkw85O5guG3L2FSFVWGZO1SpqZvGJpNZMNjgQC0KoAQzausrEtglmOpVWveghVLcZD07TK11ChDfuNN3rPnblzadD39esTTZrkL4uKZfT0+b+pNOule9MVj/WkOSs20cZNm4j9jp39dTHtqqCfyv9D7f/1T2r/Xo5hd3JP4jfsFfR1/3upQWkpHdToPlqwLbtZCz5tRQ1rsS8VGtC9/b7ONus86fZF9MDZBzsPfa53+MU0ZSOPYPsKmvT6A9SgtIQOOOV2mhfxMrtf/5umVbH1aR/DsKfdAyjfOgJ8sIFht67r5JN9hEUla3mshSXLQLagiFgXC3tCWmVM1lIssQNjazV2DQovA2hV6FOZUY44lsXWKsZVoWMqD03TKl9DhTLsGzcSNWggnzdlfR4mrHv3aszEgNWTe9MRtdkt7bvReY8MpU1VkeEeOifmqOl44xS65Mg9qaTWQdTu88XZhexaTS9efLTzpUODE2+ich+zPf/952l/9vv2GgdSy89y8tn+A931+wOopHQfum/gtyT5xX52uZJ3fv1vmlYl1U8tCIY9NfQo2FYCfLCBYbesB2WLSjapR9y0LCxj1CdiM4w6DZO1nu6IrVU91bI6V2i1qvu8xlWTDDvGVfcLZhM+dHwNFcqwv/WWHrPOtHHrrT5YdtGk/nfTnuw28VqHUo9vM/96ZJZh30kTet3h1PPgsx+mZVn3uhPtXPMVNdq3BpWU1KVr2nycdat7tcav+5rO2b8mlZTUpD899Dpl/y/ULprz1hO0X2kJNTi+Cc3JjqyWlSzAr/8xrsqIVYbBsHuzQQwISAnwwQaGXYrH3EA2Mee+Ii4qWSOVmKDc+rD3RbxhstbT+Uq0qqdq1uYKrVZ1nWwMM3FcjVEna0VaVXHTtMrXUKEM+yOPVJ+/ZdqLEsau3LPb2qVbBX3Z5abK33XXPJi6fbPSTRXcsFfQhjWraOXKlbRxS46TJqKtm9Y6cWvW/exesa7YvIImfPwu9evZnXoPfIMmli+X38LOa7N9QdWV7wb07zdmVnsy/PLxHelXNUuoZLejaMDMDfws+X7ncvrXmQ2d2+IP/cuTtCL3qfCbptOlR+xBJTV/Ra1yr8DLc8wK9et/07SaVfGU38Cwp9wBKN4+AnywgWG3qO/YYk02kcdoghITJKsTCyvSDZO1no5XolU9VbM2V2j1v13nNa7GMMdKtIpxNetzZZpW+RoqlGE/5BD5HO7V12HDx47NYia+WfhxC9qfPVCupA6d++AA2lBlYAMb9s0z6OJD6lBpaT26quX7OVe3N1CnG0+mWiWldPA5/6Jl2zfSmI7/pEP3rO0YZpdVaW067rxm9N266oaf1XXjnKH0mzolVGPf/6X/WyvWnh3vom/63El7lJRQjf3Oov+sy43Pff8zvdb0dKpRUkK7H3klza52+/xmGtzsHKpZUpPOuKOX+xOB3Fy83rttkqx1TNOqVxvSCIdhT4M6yrSaAB9sYNgt6kbZ5B1jUclarmRhyTKS1c0itCqrislaJc1MXsq0msmy6I+gVY+xC+OqcZ8N07TK11BsH2hbu1Y+T8rmzqhhfrrdPJdu//2BlQa6RgO68aWRtLaCnAfOMdPuPHTOryGbZ9BFBzMDXoeueKm6Ye947QnOb8sPOutmavnAJVSvtCbtf9jxdNG1Tejai/9ER+y3R5V5L6Uj//o4LRUf3e6UW0FfvXqLY8iPuuB5WpV7RZy20rCH/0I1mQE/6mqaW82A51Z+O5W9cCntxgz+L/5IEyUX5Jd83poOrFFCe/76Kpq5Ofd8//d+/W+aVv1bkmwsDHuyvFFaARDggw0MuyWdySZi2SQes/rKTJCsbn6Lh5j1Nvl0TNZ6ekeZVvVUz8pci16rXuNqzLFLmVZl4yoLK8LNNK3yNVRgwz5ihHwO9+rjKOHnnuurjNXTh9Bv69eqMs416FcnXUSvlk2mtRvVGfZ6DQ+l/esdQLe1eZs2CE9zq9gwlx6/6ATHcLPb0NvkPlCONlDn60+i0qovBKrf3P8z9bzt1KoHzl1K/UaOplGjRnm/3hxOL97118qfAexzBo2vdsWeaOfKT+l3e5VQSb0T6N3F1Uv0g+nX/6Zp1a8dScfBsCdNHOVZT4APNjDslnSlbGEZc1HJWq5sYSmrHxaWlojLjmoq06odzU2klkW/sJSNWyaNq0wFMuOWiDrMKsQ0rfI1VGDDvm4dUWmpvD9lfRwl7Kmn8nbauvkf09W//VXl37s5/1Veiw4//VoaNuF7/9+XB7zCXlJSm87652skuaBNG+cOp2N3Z7fl16Rzmg2mrIva2xfQbb9tQCWlv6AWHy+UtGMDdWxceRVfZB/oeK/f0WcrhW8PeO5b51Lj3+xJJaX708uf5jxJnqfx2Ivl5iYxTau59UvzPQx7mvRRtpUE+GADw25B98kWlWwyt2FhqaCOFvRQVhUxWWfhUPYGhl0ZSjejoteqzBQpGLOUalVWRxZWZJtpWuVrKLYPvP3lL3oNe3l5sKrsWENvd36QftOgTuY35qW706lXPErTV3tcaQ5q2Pc6md5f4nG/esUSuufU/Z0yD/nzE7RSvO1902Q6r2FtKql9JA2clfXH6VVtWk/trjrO+aJhz0N/T3fccx/dd5/f6166/vxTqC77UmLv0+iLNRI0u1bQ439i/9e+B93ZZ2K1h9xJznCD/PrfNK26lTbgAIbdgE5AFewiwAcbGHYL+k1m2BUsKlnLlS4sZfUMs5ixoCuCVBGTdRBK4dMo1Wr44gvyjKLWqsbxSrlWZaa9IBXp3SjTtMrXUKEMe4sW+gz7PvsQbdvmDVASs33DQurxxPXUsB77qzR25buE9mj4Bxrw9ZLq5jWgYa97+BU0y8OvE61x/kedlfOLU++hJeKz59Z+RWfsU0ole5xE7y2VfWmwiXrc8rvKW+J/exstrPYb+NwGVtC4zjc6t8TX+MU59I3skj+tp3ZXsy8B6tCVL3+Q8yC93Pyy33NebJ+7mabV3Pql+R6GPU36KNtKAnywgWG3oPtkizUTDTtDKaurBYhVVhGTtUqambyUm6BM1kV7VNRalRl2m8ZVRXW1RfymaZWvoWSGzZPphx/K50jZvBk2rHFjz2L9ItgD51Yv+oaebnw67e48Rb6Eah/QiD5Y+HP2aQEN+6/OfIiWi1fOs3L5mfrc9Qfnye37nnInLRIMO/s9+Sl7llCJ1+3rtIUGP8Ce6l5C9Y66WvLU96yCiGg7vf3MhVS7pITqHHYpzZT+1/om6nbzKVRaUpsubP4Oyb4myM2Vv/frf9O0yutswh6G3YReQB2sIsAHGxh2w7tNtqhkE7miTbkJki0ysLBU1FvFnY1yrRY3Tqf1RbuwtG1cZb0lG1uLSMOmaZWvoUIZ9q1biX7xC3lfyvo3TFiHDpHUkPlbt430SZfbqUENdqW9lA4/9wlaLhhq0m7YP6PfMcO+x8n0yQrJ781pF3392h3OU+RL9j6dvpTd4p5FYB21rbqF/uA/Plb9f9idtBupa5P/5xj2C54aTWHuT/Drf9O0moUl5Tcw7Cl3AIq3jwAfbGDYDe872YSt0AArN0GaF8KG95ZTPUzWenpJuVb1VNOqXItWq7JxyuRxlalKNhdYpbZ4lTVNq3wNFcqwMwTXXivvS1n/Bg3bay+ipUsjAc4Y9u1Eu1bRi5ccU/lAutxb0zUbdlrzFf2hfg0q2eNEKpPeEk+0fHxHalizhEpqH0a9Jq/2b++2eXTjsXvJH3DnnrmO2lx5rHNL/FWtPsQt8S4XfQcw7PrYIucCJcAnGxh2gztYtqhkE7jCTYsJki0yFC6GFTZfS1amLSy1NDKFTLVoNYV2mFRk0WpV8xilRasJzAcmaTO3LqZpla+hRYo3lwAAIABJREFUQhv2adOIrrhCnWlnZr1nz1xcgd9nGXaqoK+6/YPqsd+z1z6c+kxfl8lHt2HfPIMuObSOY8Z7T/G4fL7hG/rT/jWd/4K//IUxvrew/zxvJP1P3RLnCfAvSp86T0Q7l9H9ZxxAJSV70wNDp1f/3X6m9dWO/PrfNK1Wq3yKATDsKcJH0XYS4IMNDLvB/SdboCk2vlhYqu9/TNbqmbIctWhVT1WtybUotSobV234IpSpSvZFgzVqi1dR07TK11ChDTvDoMq0xzTrrCrZhn07jXnhUtqNGfa6x9LoBcLT43Qb9oqldN/pzDzXp0dHzfEQyzpqf23lX7vtfvjFNG2TRzLaTMP//Tfn9+u1f3kufSt94BwRu83/4kPqUEnNhtR5wk9emUnD/frfNK1KG5BSIAx7SuBRrL0E+GADw25wH8oWZzYYdoZUVneDUausGiZrlTQzecGwZ1ioOipKrcoMu83jquK6q9KW6nxM0ypfQ0Uy7AxOXNMeyqxvp3F92tKIb5dQ7q/DRcNesXYSXXHMPs7T4vc8+hqaLT6oTbdhJ/5Aulr013+PIOGrgiwprZ7Sh46qw35nvztd9ORIynk0npN2zYwhdPwepU6axm0+9LwSv+WHN+lYdhXe80F3WUVnvfHrf9O0mlXxlN/AsKfcASjePgJ8sIFhN7TvElhUspZrM0Eyw46FpaFis6Na2rRqR/O11LIoF5YJjE3atCqbF1h7imAzTat8DRXZsLM+i2raQ5l1VtB2evf5S6hOaR065n+voDZ9RtGMBcvp563baO3qlbRk4Rz6ZEgb+ssx+1f+fr20Pt3Z6ysSnzmn+6FzRLvouxEPU/3SEjrgtLtpkdfftu1aT73vPqfyLoAae9OVj/ehxRurnu++ayvNGdubTv9lXedLhwNOuYVmb/b6cOyiaUMfoL3ZX8z97k5aEOYR8c41icq/wZP1v2la9SKQRjgMexrUUabVBPhkA8NuaDfKFmYaDC8Wlur7H5O1eqYsR21a1VNdK3ItOq3KxlUNhlerVmVfOFihtniVNE2rfA0lM2yhWjphAhH7f/YLLiCqW1d+dxrv80MOIWrWjGjw4FBFuIa96r/WK+teSjVq1qJatWpUmnQeV2Mfurr5MFqf+9ds2q+wE1Ws+JR+t1cpldQ7nt76Qby8n9PcrQvoiYuPp1pVda5Rux4dePDBdED9es5fxrGn3Dc4+kL6dJHs+ntVXrvWUKsr2APndqNLnn0n1BPiWQ5+/W+aVnPopfoWhj1V/CjcRgJ8sIFhN7T3+AQt7jVUNfGFpYYvHTRgiZUlJutY+DxP1qpVz1ILO6LotCqOp/xYw5ikVau83uJeQxtMU75pWuVrKLZXtq1dSzRoENEddxAddxzR7rsTXXklUdeuRMuWxSpm+/ofaEDLh+hPJx9Ne9WplWXSa9SoRfXqN6Q/XdOMyqYtrXbbvFPw5ll086lH0IG/PJL++erYnCeqb6R+D11IBx94EJ153cu0PPe+e7fmm2n4M1fSoQc2pNMufZoWZ13CJ6Jda6jl5ZVPbb+8xRh/E12xjt5sex/9v0MbVJn0yr+jq7ffkXTdI11p4c+elXBqs33Zh/S7vWtQye7/Q8PnbnRrGPTAr/9N02rQNiWRDoY9Ccooo6AI8MEGht3AbpVdBdK0INO6sJS1Q+XixsCuY1XCZK2nY7RqVU+Vjc+1qLSa4HikVasJtsMkAZumVb6GUmrYEwK+c8cWWvXjIpo9cybNmDOfflyxmrZuC3lPuKa6LhnXng6qVUL1Dr+Ypno+VE4ofFcFrV/1I82bU05LV6ylbRX+Rr3yzK309nOXUd2SUvrNRc/Tyty7CYTsvQ79+t80rXq1IY1wGPY0qKNMqwnwwQaG3cBulC3IWJiGTevCktVXvArEjzW0w6QsMVnr6Q3tWtVTbaNzLSqtYlw1Wov5KmeaVvkaykbDLrIWHzonhqd2XPEjPfX3X1NpyR50Y6fPPB8YF6d+FSvG0VkH1KaSOkdS70krI2Xl1/+maTVSAzWdBMOuCSyyLVwCfLCBYTewj7mxFfeaqqndBIlt4MeavnzQhCh0tpisQyMLdIJ2rQaqRWElKiqt8vFH3Gsai7RrVWwDP9bUFlMUb5pW+RoKhl29QtbNGkbH7VFKtfY7gz5a4vW8+Ijl7lpPPW7/A9UqqU1/vLcvef3jW77c/frfNK3ma0uS8a5hP+aYY4i9sIEACPgT4IMNDLs/p8RjE7wKxNqmfWEpaw9bYBbwhslaT+dq16qeahuda9FoNeFxSLtWE26PCSI2Tat8DQXDrkMdW+mjDk1or9KadMJlL9CPXk+MD130LppT9gI1rF1C+x7fmKZtCHL7vLwQv/43TavyFqQTyn16CT9IpxooFQTsIcAHGxh2w/pMthBjYZo27QtLVm9+BUjca2qPCdlistbTC4loVU/Vjc21aLSKcdVYDQatmGla5WsoGPagPRgyXcUq6vPEbXT1dbdTz/enKbk1fvvq76j1v26nK6+6g8rmrAlZoezkfv1vmlaza57uO+7TYdjT7QeUbhEBPtjAsBvWaaKp5ccaq5iICeLtEPcav4TQiCtQ1pisA2EKnSgRrYauld0nFI1WxbGHH2scgxLRKm+HuNfYprSVbppW+RoKhj1tZaRTvl//m6bVdAjJS4Vhl3NBKAh4EuCDDQy7J6LkIxK+CsQamMjCMoV2Jd95mRIxWWdYqDxKRKsqK2xBXkWhVdn4w0yuxi0RrabQLo3I8mZtmlb5GgqGPW/XFWQCv/43TasmdQAMu0m9gbpYQYAPNjDsBnWXbAHGwjRuiSwsWf3Fq0D8WGO70swak7Ue+olpVU/1jcy1KLSKcdVI7YWtlGla5WsoGPawPVkY6f363zStmkTcNez86XMmVQ51AQETCfDBBobdoN7hRlbca65eYiZIbBM/1ty2tLLHZK2HfGJa1VN9I3MtCq3y8UbcF8oXoSl8GZGWkE3TKl9DwbCnpYh0y/Xrf9O0mi6p7NK5Ty/hB9nReAcCIJBLgA82MOy5ZFJ6n9LCKzETlFL70uhNTNZ6qCemVT3VNzLXgteqbNxhxl3zlqhWxS8i+LHm9qWRvWla5WsoGPY01JB+mX79b5pW06eVqQH36TDsGSY4AgFfAnywgWH3xZRcpGxhycI0b1hYqgeMyVo9U5ZjolrV0wTjci14rRbruJrA3JG0mE3TKl9DwbAnrQQzyvPrf9O0agaxylrAsJvUG6iLFQT4YAPDbkh38Ssj4j6BqiVqgsS28eME2ph0EZis9RBPVKt6mmBcrgWvVT7OiPsEzGyiWk3pS4mkxWyaVvkaCoY9aSWYUZ5f/5umVTOIVdYCht2k3kBdrCDABxsYdgO6K8UFV6ILS3HRzI8TWDwn3cOYrPUQT1SreppgXK4FrVXZuMrGnQS2xLXKx1Nxn0A7kyzCNK3yNRQMe5IqMKcsv/43TavmUCOCYTepN1AXKwjwwQaG3YDuki0sEzKyiS4sZe1MaAGdZC9jstZDO1Gt6mmCcbkWtFZl400hjqtMVaJR58fGqS1ehUzTKl9DwbDH61dbz/brf9O0ahJjGHaTegN1sYIAH2xg2A3oLr7AEvcJVStxEyS2kR8n1NakisFkrYd04lrV0wyjci1orRa7YU/oy4mkBG2aVvkaCoY9KQWYVY5f/5umVZPIwbCb1BuoixUE+GADw55yd6W4qGQtT9wEcZMu7rGwTFmEdhSfuFbtwBKrlgW9sBTHGH4ci1bwkxPXqmweYW0uoM00rfI1FAx7AYksRFP8+t80rYZolvakMOzaEaOAQiPABxsY9pR7VrbQStDAYmGpvv8xWatnynJMXKt6mmFUrgWrVdm4mqCBTUWr/EsJcW+U2uJVxjSt8jUUDHu8frX1bL/+N02rJjGGYTepN1AXKwjwwQaGPeXuEhdX/DjBKmFhqR42Jmv1TFmOqWhVT1OMybVgtSoz7IX8RShTFJ8/xH2CbdYtatO0ytdQ2JdQsTPI1b5pWs2tX5rvYdjTpI+yrSTAB1gY9hS7T7aoZIutBLdUTJC4oOTHWFgm2Ot2FpWKVu1EFbjWBbuw5OOKuE9wjElFq7L5JME2BxZdxISmaZWvobCHYc+VtGlaza1fmu9h2NOkj7KtJMAnGRj2FLvPgAWWMQtLtrAukA2TtZ6OTEWreppiTK4FqVXZuJrw+JKaVsUvKPixMWqLVxHTtMrXUNjDsOcq2zSt5tYvzfcw7GnSR9lWEuCTDAx7it3HF1TiPuErIlhYqu9/TNbqmbIcU9OqnuYYkWtBalVm2DGuGqG3OJUoSK3GAaLoXIyrikAK2UCrAoycQxj2HCB4CwL5CMCw5yOUQLxo1PlxAsWKRaQ2WfP2ivuEF9UiB5XHmKxV0szklZpWM1UouKOC1Ko4pvDjhMeW1LTK2yvuE267rg9JQWpVF6wQ+aam1RB1tC0ptOrdYzDs3mwQAwJSAjDsUizJBbJFlLioYscpLKxSm6wNab+ODsdkrYMqrrDroFpwWpWNK2xsTXgzalxNof06cBecVnVAipBnalqNUFdbToFWvXsKht2bDWJAQEoAhl2KJblA2cKymAw7I537hQUWlsnpz8KSsLBU32kFt7DEuIpxVf3HpKBzxLiqvnsLblxViAiGXSFMG7P64Ycf6NNPP6Wvv/6afvrpJ2VNWL9+PY0fP54++OADmjJlCu3cuTNU3rt27aI5c+a452/cuDHU+ToTw7DrpBsgb5lZhWEPAM78JJis9fQRFpbquRacVmHY5YY9hblFtVoLTquqAUXMD+NqRHA+p0Gr3nBg2L3ZFHTMgAED6Fe/+lW1/4A844wzaNmyZZHbvnLlSrr88sur5bv33ntT7969A+X77LPPEkvPjTHb16hRg66++mraunVroDx0JuL1wkPndFL2yFu2qEzp6nKqk7UhX1p49FLkYEzWkdH5npiqVn1rZm9kwWlVNqak0D2palU2v8Cwp6ACO4pMVat2IApdy4IbV0MT8D4Bht2bTcHG3HPPPa4ZPuCAA+iss86iX//6125YnTp1aOHChaHbX15eTrVq1XLzYeJiee+7775u2N/+9jfffP/4xz+6aQ8//HA699xz6bDDDnPDDjroINq2bZtvHrojYdh1E/bJ36AFVaqTtYxDSl9c+PRW6ChM1qGRBTohVa0GqqF9iQpKqwaNJ6lr1ZAvLlR+IgpKqyrBxMwrda3GrL+Jp0Or3r0Cw+7NpiBjhg4d6prfFi1aELv1nG//93//R8ysM0PKhBF2O+KII5xz69evTxMnTsw6nV0150a3U6dOWXH8zcMPP+ymGTJkCA929oMGDXLjLr744qy4pN/wduAKe9Lk/1uebGHJwlLYUp+ssbBModftLDJ1rdqJzbfWBbWwxLia6WuMqxkWOPIlgHHVF0+kyIIaVyMR8D4Jht2bTUHGHHjggY7xbdy4sbR9b775pmuMy8rKpGlkgW+88YZ73tixY2VJ6Pzzz3fS1KtXr1r8pk2bnNvemRlu06ZNtXgW8OSTT7plLF68WJomiUAY9iQoe5Rh0GIq9cnaIBYevRU6GJN1aGSBTkhdq4FqaVeigtKqbCzBF6GZ37SnxELVJ6KgtKoKioJ8MK4qgJiTBbSaA0R4C8MuwCj0w3HjxrmGl/3W3Gtjt8kzU5rv9nXx/GbNmjnnsCv0Xtu7777rls8eSidurVq1cuLq1q0rBmcds1vhS0tLnXTPPPNMVlySb2DYk6QtlCW7CsQWmiltqU/WMh5YWKakBrOLTV2rZuOJVLuCWVjKxhGMqxmzzr/MiKQSM04qGK2agdOtBcZVF4WyA2jVGyUMuzebgotp0qSJY3aPPvpo37bdf//9TrratWv7phMjuWFnv1f32iZPnuzkywwvu6Iubscdd5wTd/3114vB1Y5PPfXUQG2odqLCABh2hTDDZCVbWKZoUFOfrGU8Ulxoh+lKr7SYrL3IxAtPXavxqm/k2QWjVdk4UszjKlMbN+ni3kgVBqtUwWg1WHMTS4VxVT1qaNWbKQy7N5uCi2nYsKFjdv/5z3/6tu3DDz90jfW6det80/LIt956yz1nzZo1PDhr/+KLLzpp2BPgxY39jr5mzZpO3Ouvvy5GVTtmvxtnhnm33XarFpdUAAx7UqRzyhEXT/wYC8vqi8scbDa9xWStp7ewsFTPtWC0CsNeXRx8fhH31VNZE1IwWjWMOMZV9R0CrXozhWH3ZlNwMeyv0ZjZ7Nevn2/bFi1a5KRjaSdNmuSbVow85JBDnPPYb9VzN/af6tyUd+zYMSua/f87N8EzZ87Mist9I/7G/ueff86Ndt4zU6/zxeuq+6FzbOBS8VqwYAFNmTLFeanIL608ZFc90qoLK5czZZN2WvUwjUlcDoWi1bgcVJ9vglZVtynt/ApFq9IxpFmz1MY0E7Qqe7jp2hSZxNV6oWg1LgfV55ugVdVtSjs/HVqVGgULA2HYLey0KFVmV8q50WS/ZffbNm/e7KYdM2aMX9KsOGb0+f+ns1vce/bsSexq/VNPPeWadXZbfu7Gnk7P68YGC79NvK1+6dKl0qT8KjzPU9det2Hn397G3bNJ5fPPP3decfNK63y2WMpdWLKwtOrDyuVMGd+06mEilzgsCkGrcdqv61wTtKqrbWnlWwhalY0fbJxNiykr1xSt5s43aXOJ0yeFoNU47dd1rila1dW+NPLVoVWpUbAwEIbdwk6LUmXxKvb06dN9s6ioqHANNPsbuDDbrFmznL+Ek5lk9tt48W/keL7iLfhbtmzhwdL9vHnz3LqxY9kGwz4/a8GlYwBMeiCXLSxh2P97ZV/yRQYWltn6T1qrJpaHhaV6TWBcVc+UfXZM0SoMu57+NXF8jFonU7Qatf4mnqdjXJX5BBvDYNht7LUIdf7hhx9co1teXu6bw86dO9207Cp50I1dKee3xbOnubP/ZT/zzDNpn332cfO77rrrqmU3fPhwN37Hjh3V4sWAhQsXummnTp0qRiV2zL+M0H2FXVWD2F0LfGBWlWfi+Yi/JeTHKf5+nbWfM813V4h2VpyHuNdeqJ4CCkKretDEytUYrcZqhVknF4RWDfv9OuthY7Qqjqf8OOU5J+onoCC0GrXxGs8zRqsa25h01tCqN3EYdm82BRUjGva5c+f6tk28wj5s2DDftDySfQnAHgTHzOw555xDy5Yt41HOnv1PO/vLNhZ/6aWXZsWNGDHCNeHbt2/Pist98/3337tp2WCZxgbDnjB12aKSLaBS3oyZrPliUtynzCZq8Ziso5LzP88YrfpX06rYgtCqOGbw45RNqTFalc07KbOJ+gEpCK1GbbzG84zRqsY2Jp01tOpNHIbdm01BxSxfvtw1uuyWE79t69atblp2u3qQ7be//a1zzmGHHSa97Z3lwW4f4maXPVWebx988IEbzn4/77fNmDHDTctu809j423AFfaE6Bu6cDJmsjaUTxR1YLKOQi3/OcZoNX9VrUlhvVZl4wYz7SlvRmmVf4kh7lPmE6V467UapdEJnGOUVhNobxJFQKvelGHYvdkUVAz733NuNN9++23ftom/d/f6nbiYwezZs92833vvPTGq2jH/H/Vjjz3Wjfv222/d85csWeKGyw5Ec5/v9nnZ+SrCOEcYdhU0A+QhW1iysJQ3YyZrGR8DFt5RugeTdRRq+c8xRqv5q2pNCuu1Khs3MK5m60806vw4O4UV76zXqqGUMa6q7xho1ZspDLs3m4KLqVOnjmOM2f+h+23jx493DXS+W9RZPn379nXTsyv5fluzZs2ctOwv3vi2YcMG9/yxY8fyYOm+bdu2Ttr69etL45MIhGFPgrJQBl8oiXshOq1DoyZrkQ0/TgtMjHIxWceA53OqUVr1qadNUdZrFYY9v9z4WCruDfhSI3/Fs1NYr9Xs5hjzDuOq+q6AVr2ZwrB7sym4mBNOOMExu6effrpv25588kkn3UEHHeSbjke+9NJLruHOZ9jZk+K54RW/DNhjjz2c8AceeIBnK93/+c9/dtJdeOGF0vgkAnn9cYU9AdqyRSVbPBmwGTVZiwtKfoyFpQEqMaMKRmnVDCSxa2H9wpKPE+LegDHDKK3K5h8DGIUVr/VaDdvghNIbpdWE2qy7GGjVmzAMuzebgovp0KGDY3Zr1KhB27Zt82wfM+rMlD766KOeacSIkSNHOunZOR9//LEYVe34lFNOcdKyB9CJ21VXXeWEN2zYUAzOOma3wNeqVctJl++2/qwTFb+BYVcM1C87gxdMRk3WBnPy697cOEzWuUTUvDdKq2qalHouVmtVNl4w427AZpxWxS80+LEBnMJUwWqthmlowmmN02rC7ddRHLTqTRWG3ZtNwcWwD0I+s1lWVuakYX/LtnLlykAM2IPiWHqW95FHHul5zqeffuqWf+WVV2almzBhghs3evTorDj+pkWLFk4adju87P/ceTrd+3wMdZcfNn+rB0DZwpKFGbAZN1nzxaS4N4BTmCpYrdUwDU04rXFaTbj9OoqzWqsYV4NLQhxP+XHws41IabVWjSAorwTGVTmXOKHQqjc9GHZvNgUZc/fdd7vGeNCgQVltZA9/23333Z34e++9NyuOvWGD0xlnnEHnnnsurV+/Piv+4YcfdvM9++yzacGCBW48+5u4fv36uVfHmbnP/ds3lvgPf/iDkwf7e7gvvvjCPZ8diP/V3qdPn6y4pN/AsCdInC+QxH2CxfsVZdxkLTLix34NMDAOk7WeTjFOq3qamWiuVmsVhj24VvhYKu4N+dI4aCOs1mrQRqaQDuOqeujQqjdTGHZvNgUbc9JJJ7nmml0R/9vf/kbHH3+8G8aMs2wTzX7r1q2rJWH/r87NLNvvt99+xJ4Gzx92x8KYWX/nnXeqncsC2JcADRo0cPM48cQT6YILLiAmUp7vrbfeKj03yUBeF/yGXTN12aKSLZoM2YybrMUFJT/GwtIQtaRbDeO0mi4OJaVbvbDk44O4N2SsME6rsnnIEFZBhWy1VoM2MoV0xmk1BQaqi4RWvYnCsHuzKdgYdjv5LbfcQuy37Nx8sj0z1g899JBnu9l/p7N0zHRPnDhRmo5dST/44IOz8mXnsLIuuugi+v7776Xn8UD2xPjzzjuv2vnMyHfp0oUnS3XPmcGwa+4GwxdKxk3WhvMKohZM1kEohU9jnFbDN8G4M6zVqmycYMbdkM04rRrOK0i3WavVII1LMY1xWk2RhaqioVVvkq5hP+aYY4i9sBUPgY0bN9KXX35JzIhPmjSJxKe2e1Fgt7qz/2nPt7H/U2e3tY8ZM4bYrfZbtmzJd0pWPPv9PPvNO7saP3369FR/s55VMSL3ywQY9lwyit/LFkoszJDNyMlavGLGjw3hFaQamKyDUAqfxkithm+GUWdYq1WMq+F1xMdScR8+l9TOsFarqRELVjDG1WCcwqSCVr1pcZ9ewg+8kyIGBECAEcAV9oR0IC6O+HFCRQcpxsjJmnMS90EaY0gaTNZ6OsJIreppamK5WqtVGPbwGhHHU34cPpfUzrBWq6kRC1YwxtVgnMKkgla9aXGfDsPuzQgxIJBFAIY9C4eeN7JFJVsoGbQZOVnzxaS4N+iuhHzdh8k6H6Fo8UZqNVpTjDnLWq2KYwM/NmiMMFKrsvnIIGb5PhTWajVfw1KON1KrKTOJWzy06k0Qht2bDWJAQEoAhl2KRW2gBQskIydrC7j5CQWTtR+d6HFGajV6c4w400qtysYHZtoN2ozUqgXc/LrQSq36NciQOCO1agibqNWAVr3JwbB7s0EMCEgJwLBLsagNlC2QWJhBm7GTNb9qJu4N4uZXFUzWfnSixxmr1ehNSv1MK7WKcTW6bsTxlB9Hzy3RM63UaqKEohWGcTUaN7+zoFVvOq5h50+f806KGBAAAUYAhj0BHfAFkbiHYQ8GXmTGj4OdmXoqTNZ6ugALS/VcrdQqDHt0IfCxVNxHzy3RM63UaqKEohWGcTUaN7+zoFVvOtynl/AD76SIAQEQYARg2BPQgbgo4scJFBumCGMna85L3Bv2ZYcXZ0zWXmTihRur1XjNSvVsK7Uqjgn82LCxwVitWvBlh9cHwkqtejXGoHBjtWoQo7BVgVa9iXGfDsPuzQgxIJBFAIY9C4f6N5YsjIydrC3hJxMOJmsZlfhhxmo1ftNSy8E6rcrGBWbaDduM1aol/GTdaZ1WZY0wMMxYrRrIKmiVoFVvUjDs3mwQAwJSAjDsUizqAmULIxZm2GbsZC3jZ+DCXNadmKxlVOKHGavV+E1LLQfrtCobFzCuhtMPvytB3IfLIZXU1mk1FUrhC8W4Gp5ZvjOgVW9CMOzebBADAlICMOxSLOoCxcUQP8bCMhxfzk3ch8shldSYrPVgx8JSPVfrtArDHl8E4njKj+Pnqj0H67SqnYiaAjCuquEo5gKtijSyj2HYs3ngHQjkJQDDnhdRvAR8ISTu4+Wo5WyjJ2uRHT/WQkFtppis1fLkuRmtVV5Jy/bWaZWPA+IeX4SGU50lX3rkNso6reY2wND3GFfVdwy06s0Uht2bDWJAQEoAhl2KRU2gbEHEFpgGbkZP1jKOBi7Oc7sVk3UuETXvjdaqmiYmnot1WhWNOj9OnFr+Ao3WqmxcNXR+Eklbp1Wx8gYfG61Vg7n5VQ1a9aYDw+7NBjEgICUAwy7FoiZQtiAy1GgaPVlbxFEUDiZrkYa6Y6O1qq6ZieZklVYtGg+M1yr/skPcJ6q88IVZpdXwzUvtDOO1mhqZ6AVDq97sYNi92SAGBKQEYNilWNQEYmGphiPLRVxQ8mN1uWvJCZO1FqyEhaV6rlZpFeOqOgHwsVTcq8tdS05WaVULAT2ZYlxVzxVa9WYKw+7NBjEgICUAwy7FoiZQXATxYzU5K8/F+Mma8xP3yimozRCTtVqePDfjtcoratHeKq3CsKtTljie8mPG1+DNKq0azDG3ahhXc4nEfw+tejMf5eC0AAAgAElEQVSEYfdmgxgQkBKAYZdiiR8oW1SyBZGhm/GTNV9MinssLA1Vk95qGa9Vvc3XkrtVC0txDODHWqjEz9R4rcrmKYyr8TvewhyM16qFTK0aVxPmC8OeMHAUZz8BGHZNfWjZQsj4ydoynkxVmKz1fLaM16qeZmvN1RqtysYBZtoN3azQKv/SQ9wbypNVyxqtGsxQVjUrtCqruMFh0Kp358Cwe7NBDAhICcCwS7HED5QtLFmYoZvxk7WMp8ELddbNmKz1iN14reppttZcrdGqbBzAuBpPG6JR58fxctR6tjVa1UpBfeYYV9UzhVa9mcKwe7NBDAhICcCwS7HED+QLH3GPhWU8riJLfhwvR61nY7LWgxcLS/VcrdEqDLv6zudjqbg3eK6yRqvqe0prjhhX1eOFVr2ZwrB7s0EMCEgJwLBLscQPFBc//Dh+rtpysGKy5hzFvTYi8TPGZB2foSwHK7Qqq7jBYdZoVfzs82ODzaUVWrXsSxBrtGrw511WNSu0Kqu4wWHQqnfnwLB7s0EMCEgJwLBLscQLtGwBxBprxWRtGVdM1vE+Rl5nW6FVr8obGm6NVrlJF/eGMmXVskKrsnGV8TV0s0arhvLzqpYVWvWqvKHh0Kp3x8Cwe7NBDAhICcCwS7HEC5QtgFiYwZsVk7WMKxaWBqtKT9Ws0KqepmvL1YqFpezzj3FVjSbEL0D4sZqcledihVaVt1p/hhhX1TOGVr2ZwrB7s0EMCEgJwLBLscQL5AsecY+FZTym/GyRKT/mcYbtMVnr6RAsLNVztUKrMOzqO57nyMdScc/jDNtboVXDmAWpDsbVIJTCpYFWvXnBsHuzQQwISAnAsEuxxAsUFz38OF6O2s+2ZrLmPMW9djrRCsBkHY1bvrOs0Wq+hhgUb4VWYdj1KcYitlZoVV9PacsZ46p6tNCqN1MYdm82iAEBKQEYdimW6IGyhQ8zl4Zv1kzWolHnx4y5gRsmaz2dYo1W9TRfS65WaJV/3sW9FhrqMrVGq7J5C+OqOiFYkJM1WrWAJa+iFeMqr2zCexj2hIGjOPsJwLAr7kOLFj5iy62ZrC3ii8laVJi6Y2u0qq7J2nMyXquyzz0z7oZvVmlV/CKEHxvI13itGsgsSJWs0mqQBhmQBlr17gQYdm82iAEBKQEYdimW6IGyhSULM3yzarLmi0lxbyBfTNZ6OsUqrepBoDxX47WKcVV5n1fLUBxP+XG1ROkHGK/V9BFFqgHG1UjYfE+CVr3xwLB7s0EMCEgJwLBLsUQP5AsdcR89t8TOtGqyFtny48RIBS8Ik3VwVmFSWqXVMA1LMa3xWoVh168OPpaKe/2lhi7BeK2GbpEZJ2BcVd8P0Ko3Uxh2bzaIAQEpARh2KZbogeJihx9Hzy2xM62arDlXcZ8YqeAFYbIOzipMSqu0GqZhKaY1XqviZ50f484ltYqx5EsR47WqtlcSyw3jqnrU0Ko3Uxh2bzaIAQEpARh2KZZogZYseGSNs2qytoQzJmuZ0uKHWaXV+M1NJAfjtcpNurhPhEy8QqzSKsbVeJ1t+dlWadUS1saPqylyhGFPET6KtpMADLvCfrNkwSNrsVWTtYwzW8gbtmGy1tMhVmlVDwLluRqtVUs+77JOsU6r4hci/FjWsBTDjNZqilziFm2dVuM2OIHzoVVvyDDs3mwQAwJSAjDsUizRAmULSxZmwWbdZM0Xk+LeMM6YrPV0iHVa1YNBaa5GaxXjqtK+9s1MHE/5se8JyUcardXkcSgrEeOqMpRuRtCqi6LaAQx7NSQIAAF/AjDs/nxCxfIFjrgPlUF6ia2brEXG/Dg9fNKSMVlLscQOtE6rsVusPwOjtQrDrl8AvAQ+lop7w750NlqrnKOFe4yr6jsNWvVmCsPuzQYxICAlAMMuxRItUFzk8ONoOSV+lnWTNecr7rGwTFw3aRRonVbTgBSyTKMXluJnnB+HbF9aya3TqgVfjhit1bSEpqBc67SqoM26s4BWvQnDsHuzQQwISAnAsEuxhA+0YKHj1yjrJmsLeGOy9lNc9DjrtBq9qYmdabRWuUkX94mRiVeQdVqVjauMu0Gb0Vo1iFPYqlin1bANTCE9tOoNHYbdmw1iQEBKAIZdiiV8oGyhw8Is2aybrGW8sbC0RG3xqmmdVuM1N5GzjV1Yyj7nGFf1akL8YoQf6y0xVO7GajVUK8xLjHFVfZ9Aq95MYdi92SAGBKQEYNilWMIHYmEZnlncM/hiUtzHzVPh+ZisFcIUssLCUoCh6NBYrWJcVdTDIbIRx1N+HOJ03UmN1aruhmvOH+OqesDQqjdTGHZvNogBASkBGHYplvCBfGEj7sPnktoZVk7WImt+nBrB6gVjsq7OREWIlVpV0XCNeRirVf65Fve4wq5RCUQksubHBjE3Vqt6e0V77hhX1SOGVr2ZwrB7s0EMCEgJwLBLsYQLlF0FYgsdizYrJ2u+mBT3WFhapLpoVbVSq9GamthZxi4sxc82P06MSvyCrNSqbD7DuBpfDIbnYKVWDWdq7LhqADcYdgM6AVWwiwAMu4L+MnyBE6SFVk7WhnPHZB1EeeHTWKnV8M1M9AwjtSr7fDPTbtFmpVYN526kVi3SpFdVrdSqV2MMCYdWvTsCht2bDWJAQEoAhl2KJVygbIHDwizarJ2s+VU3cW8Id0zWejrCWq3qwaEkVyO1inFVSd9GykQcT/lxpIzUn2SkVtU3M/EcMa6qRw6tejOFYfdmgxgQkBKAYZdiCRfIFzTiHoY9HMOoqUXm/DhqXorPw2StGGhVdlhYqudqpFZh2NV3dNAc+Vgq7oOeqzmdkVrV3OYksse4qp4ytOrNFIbdmw1iQEBKAIZdiiVcoLio4cfhckg9tbWTNect7lOnWVkBTNZ6OsJarerBoSRXI7Uqfqb5Mb4IVdLfeTMx+MsSI7WaF6j5CTCuqu8jaNWbKQy7NxvEgICUAAy7FEvwQNnChi0uLdusnaxl/A1Z1GOy1vMhsFarenAoydVIrXKTLu6VtDa5TKzVKsbV5ERiSEnWatUQfrJqGDmuyiqaQhgMewrQUaTdBGDYY/afwQubMC2zdrI2mD8m6zAKDJ7WWq0Gb2LiKY3TquxzjS9Ck9WF+EUJP062BtLSjNOqtJb2BWJcVd9n0Ko3Uxh2bzaIAQEpARh2KZbggbKFJQuzbLN6suaLSXFvAH9M1no6wWqt6kESO1fjtIpxNXafxs5AHE/5cexM42dgnFbjN8mIHDCuqu8GaNWbKQy7NxvEgICUAAy7FEvwQL6QEfcw7MH5qUgpsufHKvKNmQcm65gAPU7HwtIDTIxg47QKwx6jNxWdysdSca8o6zjZGKfVOI0x6FyMq+o7A1r1ZgrD7s2mKGLWrVtHs2bNooULF9KWLVuUt3nHjh20ZMkSmjZtGi1dupS2bt0auIxVq1Y55y1btox27twZ+DzdCWHYYxIWFzP8OGaWaZxu9WTNuYv7NCDmlInJOgeIordWa1URA9XZGKdV8bPMj/FFqOpu98/P0C9NjNOqP0VrYjGuqu8qaNWbKQy7N5uCjvnwww/ppJNOIm4+2b5WrVp0xRVX0KZNm2K3fd68eXT11VdTnTp1qpVx8cUX++bfq1cvOvzww7PO22OPPeiBBx6gXbt2+Z6bRCRn1tySxZBRA6BsQcMWlxZuVk/Wsn4wQM9GadVCTXpV2WqtejUq5XDjtMpNurhPmVGU4q3WqmxcNWB+M06rUYRh4DlWa9VAnqxK0Kp3x8Cwe7Mp2JjnnnvONcN169alo48+mvbdd183rEGDBrR69erI7e/atSuVlpa6+e2///503HHHuWUcdthhnnlfc8017nn77LMPHX/88bT33nu7Yex92qYdht2z+/JHyBY0BhjF/BWvnsLqydrQfsBkXV1nKkKs1qoKABryMEqrss+zAUYxCnbrtSp+YcKPo4BQeI5RWlXYrrSzsl6raQOUlA+tSqBUBcGwe7MpyJgPPvjANb/33ntv1m3wo0aNco32ySefHKn9AwYMcPO/5JJLiA1o4rZ8+XJiV9BlW8uWLd1z27dv794Gz26Hb9u2rRvXpEkT2emJhcGwx0AtW1jCsMcAGuNUvpgU9zGyU3EqJmsVFKvngYVldSZxQ4zSKsbVuN2p7nxxPOXH6nKPlJNRWo3UAjNPwriqvl+gVW+mMOzebAoyht9q/ve//13avtdee801xuPGjZOm8Qr88ccfXcP/8MMPeyWThm/fvp1q167tlP34449L09x9991u3VauXClNk0QgDHsMynwBI+5h2GMAjXGq2Af8OEZ2Kk7FZK2CYvU8sLCsziRuiFFahWGP253qzudjqbhPeY4zSqvqSKeeE8ZV9V0ArXozhWH3ZlNwMV9//bVreBcvXuzZvvr16zvp2BXyMNsFF1zgnHfKKaeEOc1J+8orrzjnMtPu9YC5n3/+2a3/yy+/HLoMVSfAsMcgKS5i+HGM7NI81frJmvMX92kCxe/XtNG3XqvayETP2KiFpfgZ5scpm8SoZK3XqoFfnhil1ajCMPA867VqIFNo1btTYNi92RRcTNOmTR3D6/cbctZono79vj3otmHDBtdMf/fdd0FPc9OxW/CZEb7sssvcMNnBb3/7Wycd+y17WhsMe0TysoUMW1xaulk/Wcv6I+VFPiZrPR8G67WqB0usXI3SKjfp4j5W69I72XqtYlxNTzwJl2y9VhPmFaQ4o8bVIBVOMA0Me4Kw0y7q0EMPdczurbfe6luVMWPGuOZ748aNvml5ZLt27Zxz2APmomzsCfXMCPfp08f39Mcee8xJx54+n9YGwx6RvIELmYgtcU6zfrI2sD8wWcdRpPe51mvVu2mpxRijVdnnGF+EpqYLp2DxixN+nGKNjNFqigx0FI1xVT1VaNWbKQy7N5uCi6lZs6Zjdnv37u3btgULFjjpmDGdOnWqb1oeecYZZzjn3HjjjTzI2bMnuldUVGSF5b5h/7fOTfD06dNzo7Pejxw50k3r9b/x7O/WdL54XXX/rRsbuFS8WH9OmTLFeanIL2oe/+0UIr54qdqvbdZMSRuj1inOeZwpm7Tj5JPmubn9wd6nWR9TtJomAx1lF4JWdXCJk6cpWsW4qmaejKOF3HMxrprXJ7l9pOI9xlX1/axjXM0yERa/gWG3uPPCVH39+vWu0f3ss898TxV/K15WVuablkfWq1fPyZ89tI5t7Ir7kUceSez/09nV8F/+8pd055130po1a/gp7n7ChAlu3fL9ndzEiRPdtMuWLXPzEA+YkeamWudet2Hn397G3bNJ5fPPP3decfOKc75sERMnv7TP5UwZ37TrErV80/rEFK1G5WnqeYWgVdPYmqJV9qVn7ueYhZnGK2h9CkGruf3B3gdtv450pmhVR9vSzLMQtJomP1nZOrQq+gObj2HYbe69EHVfsWKFa2LzXcXesWOHm3bYsGF5S9m2bZubvnv37nTaaae578X/Y2fmmZn38ePHZ+X50Ucfuem9rprzE8rLy92033//PQ/O2sOwz89aHOgYAGUDbb4w0xYx+eqbL74QJmvT+sQUrebre9viC0GrpjE3RauyzzAMe/YcmLR2TPsSxRStJt0PusvDuKr+c6ZDq1kGweI3MOwWd16YqrPbTPjV5rlz5/qeyp7SztP+f/a+A+qSotoaGBgyApIZSQuQpIiPjIiiIKiAEh8oIqD4MAAK+AsIhidPQRSUIMGHEkVAkCjIiARBcpIsvgEECQNIGpgZYOrn9Hzdt/veU9VV1ac6VO9e61tfd9WpU9X77FundnffvrrfTM87ePHFFzP7bbfdNtmnR+PpwgDdradJM/8b63PPPbfKfzc+/5g7XSwwbY899ljW1z333GMyDVaXYhP6DrvUCdCjX2nikvLp7Id5HD55lNPZUXsapJgSvp3dWhaXVnC1s8HUDzwKrupPr5Ga1nB16GtGiYBvBBGZTqPgKuZVGTK03EsUXG0Zxq2ZV1uGCw0Hgr2FQQkxJJpYUqFJd6lNG33nPLU955xzTKZJHf3+empP/4855hi2DT1en9rtv//+mc25556blZcJ9vx56O6wZ44D7aTnAMHuAHDLFjAOI9eaRpGsWxYXJGst3SpVRMHVSgjIN24FV7nPLwn4Dm/RcLVFF1JawdUOc1I39Gi4qjvBBsrBVT3oEOx6bKKqyYvqshfJ5R9xv+KKK0pxyPtefvnljfb0G+0keBdZZJHMjvpIRXDZI/H3339/Zvv0009nPurcSccKwe6AOrewpLIOb9EkaywsO8xCu6FHw1W7063FqhULS8yrtcTaqxPMq16wdakR5lX5aLViXpU/LRGPEOwiMLbfSf530uln20zb5MmTM1H84IMPmkyTOvqApSL2q1/9qtE+//3y9G76zTffnLUn8W/aJk6cmNlOnz7dZBqsLj1XCHYHiFu0eHEYtdE0mmTdotggWRsp510ZDVe9EZBv2AquQrDLB1bKI+ZVKSRb6wfzqnxoWjGvyp+WiEcIdhEYu+FkjjnmSMTuUUcdZRzw7bffnoniqVOnGm2pMv+d92OPPdZof8EFF2S+6SICbfnvwP/1r381tif/JJgXWGABo13ISgh2D3RbtHjxGD3bJJpk3aLYIFmzVKtcGA1XKyMh56AVXIVglwuotKcWxaYVXJXGtwX+MK/KBwFc1WMKwa7HJrqad7/73YnY/eAHP2g8t+9///uJ3aKLLmq0y1cuueSSSZvddtstXzyyf9JJJyV2JHrzv88+11xzJeXf+ta3RtrkC7bYYovE7iMf+Ui+uNZ9CHZHuLmFC4nEjm/RJGsuPlTWwIZkHQb0aLgaBh4vr63gaosutnmByDSKhquYV5noxlUUDVdbFJZWzKstwiM/FAj2PBqR7x9++OGJ2KU77XRXXLetuOKKid0+++yjMxkp/9rXvpa0WXrppUfq8gWf//znE7ullloqX6w+8YlPJOX02+26bcaMGcnPwpFgtnkZns5P1XIIdkcEW7RwcRy50TyaZN2i+CBZGynnXRkNV70RkG/YCq5CsMsHVtJjS+LTCq5K4toSX5hX5QMBruoxhWDXYxNdDb2kLRWbuje533DDDZnNP//5T2sM8r+PrhPT9N349HfZDzvssILv/HfTr7nmmkJdenDCCSckY5tnnnkKd+fT+rr+pxjiO+yWiLdIEFqO2MosqmSNhaVVzLtqFBVXWxKExheWmFdbwgTDMDCvGsDpfhXmVfkYNj6vyp+SmEcIdjEou+Fol112SUQvCec//vGPhUFPmjQpeXs7CVKyG97ohXD0O+uf+9zn1GuvvTZcrbbZZpvE97hx49Tvf//7Qv2TTz6p1lxzzaR+/vnnV9wL41ZfffWk/h3veId64IEHCu1JxJNfGttPfvKTQl3dBxDsjohzixZabHZ8iypZczFqID5I1mFAj4qrYSBy9to4VyHYnWNWewPMq7VDXmeHmFfl0W58XpU/JTGPEOxiUHbDEX1vfNlll02ELwnPDTbYQO2+++5q0003zcrou+70+PnwRo/Ip2KVE830grrlllsus6F9Ev7rrruumn322ZNyEt033XTTsOvk+F//+lf2yDv1s/nmm6svfvGLyRjTfrfaaiu2bZ2F6Vhwh90S9ZYsWixHa20WVbJuSYyQrK3p52QYFVedzjycceNchWAPF1wpz9y82sDF6sa5KoVny/xgXpUPCLiqxxSCXY9NtDV0d3zLLbfMhHUqQOmu+84776zSn1sbBuCss87K2lx33XXD1cnxlClTkrvwqc/8//XXX189/PDDbLu08IknnlBrrbVW1k/afvz48eqQQw5JzRr9n44Jgt0iDNyikhYxEWxRJWsuTlhYRsDSmacQFVdbEpXGF5acGGwJNlWGERVXMa9WoULr20bF1Zag3fi82hIcuGFAsHOo9KSMvqN+7rnnquOPP15deuml6oUXXig981tvvVXdf//9pXbPPPOMop9wO+6449RvfvMb9fjjj5e2yRvQ77+fccYZir63To/uv/766/nqRvch2B3gb8mCxWHE1qZRJeuWxAnJ2pp+ToZRcdXpzMMZN85VCPZwwZXyzM2rDVywbpyrUni2zA/mVfmAgKt6TCHY9digBgiwCECws7DwhdyChcoi2KJK1lycsLCMgKUzTyEqrrYkKo0uLLnPK+bVljBjaBgtuLDSKFeH4IjpEPOqfDTBVT2mEOx6bFADBFgEINhZWPhCLCx5XNpYioVlG6MiMiYsLEVgLDhpdGGJebUQi1YfYF5tdXiqDA7zahX0+LaNzqv8kFpTCsHemlBgIF1BAILdIVItWKw4jNbJNLpk3YJYIVk7UdDaODquWp95OMNGuQrBHi6w0p65ebXmpyEa5ao0ni3yh3lVPhjgqh5TCHY9NqgBAiwCEOwsLHwht1jhLTtXGl2y5mKFhWXneMkNODqucidZc1mjC0vus1rz+YfqLjqutuDiSqNcDUWUFviNjqstwBRc1QcBgl2PDWqAAIsABDsLy2hhCxYqo4OSK4kuWbcgXkjWcvzMe4qOq/mTa2i/Ua5CsDcUdY9uuXmV4lfj1ihXazzPurvCvCqPOLiqxxSCXY8NaoAAiwAEOwvLaCG3UKGySLboknUL4oVkHebDER1Xw8Dk5LUxrrbgc+oElKNxlFxt+AJLY1x1jH3XzKPkasNBAFf1AYBg12ODGiDAIgDBzsIyWoiF5SgmbS/BwrLtEfIaHxaWXrAZGzW2sMS8aoxLKysxr7YyLFUHhXm1KoKj7RubV0eH0roSCPbWhQQDajsCEOyWEWp4kWI5Sm+zKJN1wzFDsvamo7FhlFw1nnH4ysa4CsEePrjSPXDzKsWxpq0xrtZ0fk11g3lVHnlwVY8pBLseG9QAARYBCHYWltFCbpEyatXZkiiTdcMxQ7IO83GIkqthoLL22hhXG/6MWgPkaRglVxu+yNIYVz050JVmUXK1YfDBVX0AINj12KAGCLAIQLCzsBQLuQUKLTQj2qJM1lzccCeo86yNkqsNR6WxhSUEe8OR9+ge86oHaO1vgnlVPkaNzavypyLuEYJdHFI4jB0BCHaLCDe8QLEYYWWTKJN1w3FDsq5MS9ZBlFxlz7S+wka4yn0+cSG0vqBX6anBCy2NcLUKVh1pi3lVPlDgqh5TCHY9NqgBAiwCEOwsLMVCbmFJZRFt0SZrLCwjYunMU4mWqw1GqpGFJebVBiNesWvMqxUBbF9zzKvyMWlkXpU/jSAeIdiDwAqnMSMAwW4RXW5xAsFuAVwLTLjY1TQsJOswQGNhKY9rI1yFYJcPZF0eMa/WhXRt/WBelYe6kXlV/jSCeIRgDwIrnMaMAAS7RXQbXJxYjE7EJNpk3WDskKxFqDniJFqujpxpfQWNcJX7bOJCaH1Br9JTgxdbGuFqFaw60hbzqnygwFU9phDsemxQAwRYBCDYWVgGhdzChBaakW3RJusGRQGSdZgPSbRcDQOXlddGuMp9Nq1G2x2jaLnK5cWaLrY0wtXuUM57pNFy1RuR6g3BVT2GEOx6bFADBFgEINhZWAaFDS5MBoMIvxdtsm4wfkjWYXgbLVfDwGXltRGuQrBbxaa1Rg3FrxGutjYIcgPDvCqHZeoJXE2RGP0PwT6KCUqAgBEBCHYjPEo1KPhKRiZaHW2y5uJHC80aNiTrMCBHy9UwcFl5rZ2r3OeSyiLbouYqBHtUbI2aqw1FqvZ5taHz9OkWgt0HNbTpNQIQ7CXhx8KyBKAOVGNh2YEg2Q8RC0t7rGwta19YYl61DU177TCvtjc2HiPDvOoBWkmT2ufVkvG0qRqCvU3RwFg6gQAEe0mYGlqUlIxKvDrqZN1QDJGsxWmaOIyaq2EgK/VaO1ch2Etj0noDbl6t4SmJ2rna+kDIDBDzqgyOeS/gah6N4j4EexEPHAGBUgQg2Esg4hYlJU26WB11sm4ohkjWYT4JUXM1DGSlXmvnakOfyVIghA2i5mpDF11q56owJ9rqLmquNgQ6uKoHHoJdjw1qgACLAAQ7C8vMwoYWJIYRBauKOlk3FEck6zB0jZqrYSAr9Vo7VyHYS2PSegNuXqW4Bt5q52rg82mLe8yr8pEAV/WYQrDrsUENEGARgGBnYZlZyC1IqCzCLepk3VAckazDfFCi5moYyEq91spV7vNYg9ArBSGAQfRcbeDCS61cDcCJtrqMnqsNAA+u6kGHYNdjgxogwCIAwc7CMrOQW1hCsBsAa3EVFpYtDo7b0LCwdMPLxrrWhSXmVZuQdMMG82o34mQxSsyrFiA5mtQ6rzqOrWlzCPamI4D+O4cABLshZA0sRgyjCVoVfbJuIJZI1mEoGz1Xw8Bm9ForVyHYjbHoVCXm1U6FyzRYzKsmdPzqap1X/YbYWCsI9sagR8ddRQCC3RC5BhYjhtEErYo+WTcQSyTrMJSNnqthYDN6rZWr3GcRTy4Z49PaygYuvtTK1dYCLz8wzKvymIKrekwh2PXYoAYIsAhAsLOwKMUtRGihGekWfbJuQCQgWYf5sETP1TCwGb3WylXus2gcXXcro+cqlycDX3yplavdpZ7zyKPnqjMi1RuAq3oMIdj12KAGCLAIQLCzsPCCPfBCRDOSWoqjT9ZYWNbCozo6iZ6rdYA41EetC0sI9iH0O35Yczxr5WrHQ+MyfMyrLmjZ2YKrepwg2PXYoAYIsAhAsLOwQLBrYOlsMSfYaaEZcEOyDgMuFpbyuNbGVe5ziAuh8gGt0yMEe51oB+sL86o8tLXNq/JDD+4Rgj04xOggNgQg2DUR5RYhWFhqwOpIMRfTgENHsg4DLhaW8rjWxlUIdvngNe0R82rTERDpH/OqCIwFJ7XNq4Veu3EAwd6NOGGULUIAgl0TjJoXIZpR1Fbci2Rdc0yRrMPQtxdcDQOd1mttXIVg18agsxXcvBrw4nZtXO1sQPwGjnnVDzdTK3BVjw4Eux4b1AABFgEIdhYWpbhFiMY0huJeJNQuB6AAACAASURBVOuaY4pkHeaT0QuuhoFO67U2rtb8GdSecE0VveBqzRdhauNqTRxpSze94GrNYIOresAh2PXYoAYIsAhAsDOw1LwAYUZQe1EvknXNcUWyDkPjXnA1DHRar7VxFYJdG4POVmBe7Wzo8gPHvJpHQ2a/tnlVZri1eoFgrxVudBYDAhDsTBRrXoAwI6i9qBfJuua4IlmHoXEvuBoGOq3XWrjKff5IwEe89YarNV6IqYWrEXNSd2q94aoOgADl4KoeVAh2PTaoAQIsAhDsDCzcwpLKIt56k6yxsOw8i3vD1RojVcvCEvNqjRGtuSvMqzUDLt8d5lV5TGuZV+WHXYtHCPZaYEYnMSEAwc5Ek1t8QLAzQHWwiIttoNNAsg4DLBaW8rjWwlUIdvnAtcUj5tW2RMJ7HJhXvaHTNqxlXtX23u4KCPZ2xwejayECEOxMUGpcfDC9N1LUm2RdY2yRrMNQuTdcDQMf67UWrkKws9hHUVhjbGvhahRBcTsJzKtueNlYg6t6lCDY9digBgiwCECwM7DUKOqY3hsp6k2yxsKyEX5JdtobrkqCVuKrloUl5tWSKHS4GvNqh4M3c+iYV+VDWMu8Kj/sWjxCsNcCMzqJCQEI9qFo1rjwGOq50cPeJOsa44tkHYbSveFqGPhYr7VwFYKdxT6KQm5epXgH2GrhaoBxt90l5lX5CIGrekwh2PXYoAYIsAhAsA/Bwi08qCzyrTfJmosvFpadYndvuFpjVIIvLLnPHebVGiNcQ1c1XZAJztUaoGpjF5hX5aMCruoxhWDXY4MaIMAiAME+BAsWlkOARHiIhWWng4qFpXz4gi8sMa/KB61tHjGvti0iTuPBvOoEl5Vx8HnVahTtNIJgb2dcMKoWIwDBPhScmhYdQ702ftirZF1TjJGsw9C6V1wNA+GI1+BchWAfwTy6AsyrnQ4p5lX58AWfV+WHXJtHCPbaoEZHsSAAwT4UyZoWHUO9Nn7Yq2RdU4yRrMPQuldcDQPhiNfgXOU+c3gkfiQOnS6o6aJMcK52Ogj+g8e86o+driW4qkNGKQh2PTaoAQIsAhDsOVi4BQctNHuw9SpZc3EOIB6QrMN8cHrF1TAQjngNzlVOsI+MIr6CXnEV82qnCdwrrtYUqeDzak3nEaIbCPYQqMJn1AhAsOfCW9OCI9dja3Z7laxrijOSdRh694qrYSAc8RqUq9znDRdCR2IQRUENF2aCcjWKIPidBOZVP9xMrcBVPToQ7HpsUAMEWAQg2HOwcAtLKuvB1qtkzcU5gIBAsg7zwekVV8NAOOI1KFe5zxvm1ZEYRFEAwd7ZMGJelQ9d0HlVfri1eoRgrxVudBYDAhDsuShiYakowfRiw8Kys2HGwlI+dEEXlphXMa8KUjYoVwXH2TVXmFflIwau6jGFYNdj04uaN998U02ePFm9/PLLrTvfadOmqaeeekpNmTKlVWODYM+FowYRl+utVbu9S9Y1xBrJOgzFe8fVMDAWvAblKgR7vwW78NMUQbla+FT06wDzqny8wVU9phDsemyirrnrrrvU5ptvrsaPH69SAfqOd7xD7bPPPopEvOT27LPPqve+971qlVVWUXvuuWep68suu0yts846aty4ccnYZp11VrX00kurH//4x6Vt6zBI8fqOcFINNfagE2ANIi4ULlX99i5Z1xDroFytGvAOt+8dV2uIVVCu1vBZqwEiry56x9UaLs4E5apXlONo1Duu1hA2cFUPMgS7Hptoa0444YRMpJMYXnjhhdUcc8yRlS233HLqtddeEzv/HXbYIfO96667Gv1+7Wtfy2xJsC+22GKZcCehvMkmmxjb11EJwT6Gcg0LjTri6dtH75J1DfFGsvZlo7ld77hqhkOkNihXIdj7c4cd86rI57EJJ5hX5VEPOq/KD7dWjxDstcLdfGc33XRTJoh33HHH5HF4GtX06dPVL37xi6xOShhPmjQp80lC1yTYTz755Mz2m9/8pnr11VcTwOj/AQcckNWRqG9yg2AfQ7+GhUaTcS7ru3fJuoZ4I1mXsc6vvndc9YPJqVUwrnKfMxLwPdl6ydXAF2iCcbUnnNSdZi+5qgNDqBxc1QMJwa7HJsqa1VZbLRG+G264IXt+P/nJTzJhfPvtt7M2LoUf/ehHE3+zzTZb8l8n2N966y01zzzzJDZ7770328Uuu+yS1NNTAU1+5x6CfSw83MKSynqy9TJZY2HZSXb3kquBIxVsYYl5VRFfCd/ebJhXOxlqzKvyYQs2r8oPtXaPEOy1Q95ch/fcc08ieElwPvzww9qBzDvvvIndTjvtpLWxqbj44osTP+9///vVGmuskezrBPupp56a1JOwp5fNcRt9kFOxfMwxx3AmtZSlY+j9d9i5RQYEey0cbKwTLuaCg0GyFgQz5woLyxwYQrvBuArBDsFO86zgFoyrgmPsoivMq/JRA1f1mEKw67GJrmbfffdNBO+SSy5pPLfPfe5zid18881ntDNVkuiml9iRuP3b3/6mVl999WRfJ9jXX3/9pP5jH/uYya1addVVEzu6CNDUBsE+hnxg8dZUfG377WWyDhxzJGtb9rnZ9ZKrbhA5WwfjKgR7/wR74JgH46rzpyauBphX5eMJruoxhWDXYxNdzfLLL5+IXXq03LRdeOGFiR0JU9+fVKPvx1P7L33pS0lXqdDWCfb0pXf0PXrT9o1vfCPxO/fcc5vMgtZBsI/BG1i8BQ2igPNeJmsu5oJPVSBZCxCTcdFLrjI4SBYF4yr3GZMceMt99ZKrEOwtZyU/vF5ylYdCrDTYvCo2wuYcQbA3h33tPaei+MQTTzT2TZNQKkrvvfdeoy1XeckllyTt6e3zU6dOTUxMgp0+oGl/9HNzpu23v/1tZpv6HranR9VD/qVjDf1IPOEi8ffoo48qwpX+JPyRj7cBVmpoYfnvffcV8y81zpB+Ukzp8xKynzb5Dh33EFxtE35NjaWPXA2NdSiuDs+rdBz6XNrkv49c5eZVybiH4mqbeNPEWPrI1dA4h+DqsEbo6jEEe1cj5zhueklbKjQnTpxobP3KK69ktn/4wx+MtsOVzzzzjJpzzjmT9tdcc01WbRLsN998c9bf5MmTszbczi233JLZPvXUU5xJItbTcw35P7RgT6/eVv1PSeXaa69N/qr6StuTOB9eWFJZWt+H/ymmhG8fzpfOMXTcQ3C1L7ExnWcfuWrCQ6IuBFdDf74kzju0j75ydTif0rEU1iG4KjW2LvvpK1dDxiwEV1mh0MFCCPYOBs1nyM8++2wmdOnlc6btjTfeyGzPPfdck+lI3Zprrpm0TR+FTw1Mgv1Pf/pT1t/rr7+eNmH/08vyUhFOkwa3kZBObUL+h2CfpSDaIdj/T2yBFTIhVvWNhWX34oyFpXzMQiwsIdj/L7u4TPhWnau61B7zqvxnNHT8Ma/KxyzEvMrphC6WQbB3MWoeY37ssccyEfvQQw8ZPdBPrKVC95e//KXRNl+5zz77JO1WXnllNWPGjHxV9rI47jvsF1xwQdYfXSwwbfnzoJfZNbGl2IQW7FLnRo8wpYlLyie3uEge6xProP2OUkwJ315tQ1+FSLggBEAQrgqNrctuesvVgEELwlXmq0aYVwMGsU2uMa+2KRpWY8G8agWTk1GQedVpBO01hmBvb2xER/aPf/wjE8WPPPKI0febb76Z2Z599tlG27TyzDPPTNrQ9+SfeOKJtDj7b7rDfs4552T9lQn2SZMmZbZ///vfM/917kCwq8Kd9Uy81xmEFvTV22SNhWUL2Oc2hN5y1Q0mJ+sgC0sI9uziMuHbqy1g7INwtVfB4U8W8yqPS5VScFWPHgS7Hpuoav71r39lQvfuu+82ntv06dMz28svv9xoS5X575Wff/75rL1JsNP35FMRXPZI/IMPPpjZ6r7Dzg5AsDAda2/vsHMLCxJxPdt6m6w5wU6cENiQrAVAZFz0lqsMFlJFQbjKfbakBtwRP73lKpdXMa+2mrW95WrAqASZVwOOt07XEOx1ot1gX/QhSIXmlVdeaRzJ888/n9mWvSWevhs/zzzzJPbf/OY3s7fC5zugx+NXW221xIZ+4314u+GGG7L+6KV1po1eZJeeh+4t8ab2EnVp/xDsue+wCy0sJOJTl4/eJmssLOuimFg/veWqGIKjjoIsLCHYcYd9mAOj1HMuCcJV51HE1wDzqnxMwVU9phDsemyiq5l99tkTsXvMMccYz43uwKei9LXXXjPabrvttpntAgssoHR/qb9x48ZlNtddd13iO3+B4NZbbzX2Rz9JR77mm28+o13IyvRcINgh2ClhU4Lp1QbB3rlwY2EpHzLxhWXAz5X82Yfz2GuuDot1OhbYxLkqMKYYXPSaq4ECCK7qgYVg12MTXQ0Fm8TmZpttZjy3I444IrFbaKGFjHZUmRfsqZC1/f+Xv/wl8z9+/PikzzIRvPXWWyd2G220Uda27p30/MrGWve4dP2JT4BYWCZQ9zpZY2Gp+7i1srzXXA0UEcyrYYDtNVcxr4YhVSCvveZqIEzF59VA42zCLQR7E6g31OchhxySiN255prLOIL3vOc9id0XvvAFox1V0hvn6a646e/2229XK620UuJzu+22U7fddlti/+KLL2b+N91006Sevutu2ujOOgnmX/3qVyazoHW9F+yBFhVBgxbAea+TdSAOIFkHIKpS/X3MOAyciVdxruJCaIIr5tXck2s0zwps4lwVGFMMLnrN1UABBFf1wEKw67GJrib/hvXTTz+dPT/6znoqSMt+/o11oCk0vXSOmlx44YVZv3feeSfrhd5YT2OjN9E39f11GliKT2/vsAcSa2zQW1zY62QdiANI1mEI32uuhoE0+SpMiqtIF9xnikR8z7YUU5oLercFumiDeTUMk3rN1TCQys+rgcbZhFsI9iZQb7DPT3ziE4ngpO+zDwvjF154Qa2wwgpJ/RZbbDEySqr/6le/qg466CBFb5J32coEO/ladtllk76XWmop9fTTTxfc02+uzz333Ek9PSnQ5NZrwc4tKITuAjQZU5++e52sOR4IiAssLH2YWN6m11wth8fLQpyrnGD3Glm3G/Waq5hXO0XeXnM1UKTE59VA42zCLQR7E6g32OeUKVPUwgsvnAhfEp70iPphhx2mdt11V5V+j3zJJZdU06ZNGxklCfVUrJ500kkj9aYCG8FOd/RnnXXWpA+6oLD77rur//7v/y58T77J766n55di0Ms77IEWFCm2Xfrf62QdiAdI1mE+Ab3mahhI5e8EQbAnkeo9VwPwAPNqmEmg91wNACu4qgcVgl2PTbQ1kydPVmuvvXYmvlMBSv/pu+Qvv/wye+4k0lPbK664grXRFabfi99tt910Jkn5Pffco5ZZZpmsn7Q/+r/HHnso+om4prd0TBDsY9+1E7iz2nRMffrvdbLmBLvAkxZI1j5MLG/Ta66Ww+NlIcpV7vOEedUrLp1vBMHemRBiXpUPlei8Kj+8Rj1CsDcKf7Od0yPxP/3pT9W3vvUtRT+X9sgjj5QO6JJLLlF//vOfS+2GDej78w888IB68sknh6vY42uvvVb96Ec/Sh6/P/XUU1XZ77OzTgIVQrAPvRQHC8tATGu5WywsWx6gwfCwsBxgIbUnurCEYM/C0nuuYl7NuND2nd5zNUCAROfVAONr0iUEe5Poo+9OItBrwR5gMdFJEuDN2/T2xdG/isFEsq4IoKY5FpYaYCoUi3IVgj2LRO+5ink140Lbd3rP1QABEp1XA4yvSZcQ7E2ij747iQAE+5BQ62QUqw+698kaC8vqJKrJQ++5GgBn0YUl91nCk0sBotYBlwEu3ohytQMQ1jVEzKvySIOrekwh2PXYoAYIsAj0VrBzCwlaaPZ0632y5vhQUWQgWYf5MPWeqwFgFeUqJ9gDjLkLLnvPVcyrXaBpMsbeczVApETn1QDja9IlBHuT6KPvTiIAwZ67w15RoHWSAGOD7n2yxsKyM/TtPVcDREp0YQnBnkUIXFWjXzWqeGFclKtZpLADrspzAFzVYwrBrscGNUCARQCCHYKdiNH7ZM0Jdiws2Tmj6cLeczVAAMQWltznCBdCk5/NCxC2brgUvoAjxtVuoFfbKDGvykMNruoxhWDXY4MaIMAiAMEOwU7EQLLGnSB2gmhhIbgqHxSxhSUEeyE44Crm1QIhWnwArsoHR2xelR9a4x4h2BsPAQbQNQR6K9iFr/p3Le7D40WyxsJymBNtPQZX5SMjtrCEYC8EB1zFvFogRIsPwFX54IjNq/JDa9wjBHvjIcAAuoYABHvuDnvXgic4XiRrLCwF6RTUFbgqD6/YwpK7EIpH4vv9SLzwRRwxrsp/jDrtEfOqfPjAVT2mEOx6bFADBFgEeinYuQVExe8rs+B2qBDJ+u1gcbyoIDaQrMN8AMBVeVzFuMoJdvnhdsYjuPp2qDCvdoKv4Kp8mMTmVfmhNe4Rgr3xEGAAXUMAgn3sDnsFYda1mHPjRbJ+GxUsLDlqtK4MXJUPidjCEoK9EBxwdQwOQV6IcbUQKRyAq/IcAFf1mEKw67FBDRBgEYBgh2AnYiBZv40CJ9grPHmBZM1OOZULwdXKEI44EOEq9/nBhdBkbiV8e71BsLc+/JhX5UMkMq/KD6sVHiHYWxEGDKJLCECwQ7ATX5Gsxz61WFi2fvoCV+VDJLKwhGAfCQy4inl1hBQtLQBX5QMjMq/KD6sVHiHYWxEGDKJLCPRSsAuKsi7F2jRWJOsxdAS5gWRtYpx/Hbjqj52upQhXIdhH4AVXxyDh5lXPpy9EuDoSKRSAq/IcAFf1mEKw67FBDRBgEYBgH7vDzqLTn0Ik67FYcwtLTxogWXsCV9IMXC0ByKNahKuCnx2PU2hlE3B1LCyCF3NEuNpKtjQ7KHBVHn9wVY8pBLseG9QAARaB3gl2buFAC82eb0jWYwTg+IE7Qa36dICr8uEQWVhCsI8EBlzFvDpCipYWgKvygRGZV+WH1QqPEOytCAMG0SUEINjfFuuegqxLcS4bK5L1GEIQ7GVUabweXJUPQeWFJfe5wYVQvBskT1WhCzqVuZofE/YzBDCvZlCI7YCreigh2PXYoAYIsAhAsEOwEzGQrMc+HoLCA8manXIqF4KrlSEccVCZq9znhsp6voGrOQJAsOfAaN8uuCofk8rzqvyQWuMRgr01ocBAuoIABDsEO3EVyTr3icXCMgdG+3bBVfmYVF5YQrCzQQFXc7BgXs2B0b5dcFU+JpXnVfkhtcYjBHtrQoGBdAWB3gl2oUVDV+JrO04k6xxSQhxBss5hKrgLrgqCOeaqMlch2NmggKs5WLh51eMpjMpczQ0JuwMEwNUBFlJ74KoeSQh2PTaoAQIsAhDseOEcEQPJOvfx4BaWuWrbXSRrW6Tc7MBVN7xsrCtzVegzYzPWLtmAq7loCV3UqczV3JCwO0AAXB1gIbUHruqRhGDXY4MaIMAi0CvBzi0YaKGJDYI9zwGOJ7gTlEeo0X0sLOXhr7ywhGBngwKu5mDBvJoDo3274Kp8TCrPq/JDao1HCPbWhAID6QoCvRfsHkKsK7F1GSeSdQ4tLCxzYLRvF1yVj0nlhSUEOxsUcHUIFgGeVObq0JBwOBMBcFWeCeCqHlMIdj02qAECLAIQ7HiTMREDyTr38eAEu8eTGEjWOUwFd8FVQTDHXFXiKvd5wYXQBFlwdYirEOxDgLTnEFyVj0WleVV+OK3yCMHeqnBgMF1AAIIdgp14imQ99GnFwnIIkPYcgqvysai0sIRg1wYEXB2CBvPqECDtOQRX5WNRaV6VH06rPEKwtyocGEwXEOiVYBdYLHQhpj5jRLIeQk2AK0jWQ5gKHYKrQkDm3FTiKgR7DsniLrhaxENx86rj0xiVuDo0HBwOEABXB1hI7YGreiQh2PXYoAYIsAhAsLOw9K4QyXoo5NzCcsik7BDJugwhv3pw1Q83U6tKXOU+K44izDS2LteBq0PRE7i4U4mrQ8PB4QABcHWAhdQeuKpHEoJdjw1qgACLQG8EO7dQoIUmtgQBJOshInB8cRQhSNZDmAodgqtCQObcVOIqJ9hzvvu8C64ORR/z6hAg7TkEV+VjUWlelR9OqzxCsLcqHBhMFxDotWB3FGBdiKfvGJGsh5DDwnIIkPYcgqvysai0sIRg1wYEXGWgqciXSlxlhoOimQiAq/JMAFf1mEKw67FBDRBgEYBgZ2HpXSGS9VDIOcHu+EQGkvUQpkKH4KoQkDk33lzlPie4EJohC65mUAx2INgHWLRoD1yVD4b3vCo/lNZ5hGBvXUgwoLYjAMHe9gjVMz4kawZnLCwZUJovAlflY+C9sIRgNwYDXGXgwbzKgNJ8EbgqHwPveVV+KK3zCMHeupBgQG1HoDeCveIioe1xrDo+JGsGwYqcQbJmMBUoAlcFQBxy4c1VCPYhJIuH4GoRj+SIm1cdnsrw5iozFBQNEABXB1hI7YGreiQh2PXYoAYIsAhAsLOw9K4QyZoJObewZMx0RUjWOmSqlYOr1fDjWntzlfuMOIgvbiwxlYGrTDQrXuTx5iozFBQNEABXB1hI7YGreiQh2PXYoAYIsAj0QrBzCwRaaGLLEECyzqAY7HC8cRAjSNYDKCX3wFVJNGf68uYqJ9jlh9dZj+AqEzrMqwwozReBq/Ix8J5X5YfSOo8Q7K0LCQbUdgR6K9gdhFfbYygxPiRrBkUsLBlQmi8CV+Vj4L2whGA3BgNc1cBTgTfeXNUMBcUzEQBX5ZkAruoxhWDXY4MaIMAiAMHOwtK7QiRrJuQQ7AwozReBq/Ix8FpYVvx8yJ9F+zyCq5qYQLBrgGmuGFyVx95rXpUfRis9QrC3MiwYVJsRgGBvc3TqGxuStQZrLCw1wDRXDK7KY++1sIRgLw0EuKqBCPOqBpjmisFVeey95lX5YbTSIwR7K8OCQbUZgV4I9gqLgzbHTnJsSNYaNCtwB8lag2nFYnC1IoBMcy+uQrAzSBaLwNUiHtkR5tUMirbsgKvykfCaV+WH0UqPEOytDAsG1WYEINjbHJ36xoZkrcEaC0sNMM0Vg6vy2HstLLnPBol4bBkC4GoGRXGnwsUeL64We8cRgwC4yoBSsQhc1QMIwa7HBjVAgEUgesHOLQxooYmtgACSdQGOwUEFUYJkPYBRcg9clURzpi8vrnKfDfmhddojuKoJH5eXLS/2eHFVMwwUDxAAVwdYSO2Bq3okIdj12KAGCLAI9FKwWy4MWMAiLUSy1gQWC0sNMM0Vg6vy2HstLCHYSwMBrmog4uZVywvpXlzVDAPFAwTA1QEWUnvgqh5JCHY9NqgBAiwCEOwsLL0rRLLWhJxbWFpe8EGy1mBasRhcrQgg09yZqxU+F0z30RaBq4bQel7wceaqYQioGiAArg6wkNoDV/VIQrDrsUENEGARgGBnYeldIZK1IeRYWBrAqb8KXJXH3HlhCcFuFQRw1QAT5lUDOPVXgavymDvPq/JDaK1HCPbWhgYDaysC0Qt2z0VBW+MValxI1gZkPTmEZG3AtEIVuFoBPE1TZ65CsGuQLBaDq0U8CkeYVwtwNH0ArspHwHlelR9Caz1CsLc2NBhYWxGAYG9rZOodF5K1AW8sLA3g1F8Frspj7rywhGC3CgK4aoDJk0POXDUMAVUDBMDVARZSe+CqHkkIdj02qAECLAIQ7CwsvStEsjaEnBPstNgs2ZCsSwDyrAZXPYEzNHPmKveZMPjvaxW4aog8BLsBnPqrwFV5zJ3nVfkhtNYjBHtrQ4OBtRWBqAW754KgrbEKOS4kawO6njxCsjZgWqEKXK0AnqapM1ch2DVIFovB1SIehSNuXiVelWzOXC3xh+qZCICr8kwAV/WYQrDrselNzdSpU9Wbb74per4zZsxQ5Hf69OmV/L722mvqrbfequRDujEEuzSi3fSHZG2IG7ewpLKSDcm6BCDPanDVEzhDMyeucp8HC6Fl6D7aKnC1JLQeF36cuFrSPaoHCICrAyyk9sBVPZIQ7Hpsoq55/PHH1e67764WXnhhNW7cODV+/Hi13HLLqSOPPLLSeZ977rlq4403VvPMM0/id/bZZ1eLL764+tKXvqSefvppK9+33Xab2nrrrdX888+vZpttNjXXXHOpNddcU5111llW7UMbQbCHRrgb/pGsS+KEhWUJQPVVg6vyWDstLDnBbnEBS37U7fcIrpbECPNqCUD1VYOr8lg7zavy3bfaIwR7q8MTZnDnn3++IiGdCs855pgj26eytdZay/mO+6uvvqrWX3/9gp8555yzcEz9TJw40XhSP/jBDwptSKyn46T/22+/vbF9HZXpeL7TkQWX0wTILQY6cp51xD7fB5J1Hg1mn+MSY5YvcuJqviH2jQiAq0Z4vCqduArBbo0xuFoCFebVEoDqqwZX5bF2mlflu2+1Rwj2VodHfnD333+/mnXWWRMR/KEPfUg9+OCDiTh/4YUX1KGHHpqJ42222cap81NOOSVp+853vlP9/Oc/V5MnT04eZX/uuefUiSeemNzBJ6FLd/Nfeukl1jddSEjF8K677qqefPLJxAf9/+xnP5vVHXbYYWz7ugrTMfZGsNcFbMf6QbIuCRgWliUA1VcNrspj7bSwhGC3DgC4WgKVB5ecuFrSPaoHCICrAyyk9sBVPZIQ7HpsoqxZZ511EuG7xhprsOf37W9/OxPGJOZtt5NPPll95jOfUdOmTWOb3HzzzZnfAw44gLVZcMEFE5uddtqJrf/4xz+e1JPof/3111mbOgoh2OtAuf19IFmXxIgT7CVPayBZl2DqWQ2uegJnaObEVe6zYPDd5ypwtST6EOwlANVXDa7KY+00r8p332qPEOytDo/s4B5++OFMNN95552sc3rBG32fnUTpbrvtxtpwhVdeeSVXXChbffXVE7/LL798oZwOzjnnnKSO7v6/8sorI/VU8NRTT2XjP+mkk1ibOgqjFeweC4E68G5rH0jWSsTAWQAAIABJREFUJZHx4BOSdQmmntXgqidwhmZOXIVgNyBZrAJXi3iMHGFeHYGkqQJwVR55p3lVvvtWe4Rgb3V4ZAf3//7f/0sELz22btroDjeJ0oUWWshk5lz3hS98IfFLd9KHt0022SSpo/+mbcUVV0zsNtxwQ5NZ0DoI9qDwdsY5knVJqLCwLAGovmpwVR5r64Ul9zkgAY+NRQBcZWEpFjpeALLmarEXHJUgAK6WAORRDa7qQYNg12MTXc1KK62UiN3tttvOeG7p3W4SppKPnqffQ6e30Q9v6Qvqjj766OGqwvFXv/rV5BzoLfRNbRDsTSHfrn6RrC3igYWlBUjhTcBVeYytF5acYKcybCwC4CoLS7EQ82oRj4aOwFV54K3nVfmuW+8Rgr31IZIbYPqo+/HHH290+sgjjySimISpy/fYjU6VSt4+Tz633HLLgim9hC4Vwbfffnuhbvjg7LPPzmx1v/FOL4ML+ZeONfRL52jikvh79NFH1V133ZX8mfwpZhHw7333FRmDqd+u1qWYUtLu6jmEHjfLKQOvbbkaetyx+QdXZebSPC9sufp2MlLDnwPMq/p4gKt6bFL+DfOJjtM67r8tV7m2KNPHA1zVY+PLmxBcHdYRXT2GYO9q5BzHTd8LT4Vm2ffNX375ZWtb22Hkvz9/xRVXFJrdeuutWX/PPPNMoW744Kabbspsdb/rTkI6PdeQ/0ML9vTqbdX/lFSuvfba5M/ki1sEmOz7XpdiSvj2HQvd+btyyparuv5Q/n8sF8FVHpcqfLHlKonz4c8BlVXpO+a24Go5V4f5RMcmTtlyNWZehTg3cLWcq664h+DqsI7o6jEEe1cj5zhu+pm1VLzefffdxtZvvPFGZnveeecZbW0qZ8yYoeit9NT/hAkTRppcffXVWX+vvfbaSH2+4KGHHspsaSLgNgj24iRqOwFyiwDXybZP9kjWRZ5xsXfllC1Xub5Qpo8HuKrHxpc3tlx1/Qz4jieWduBqOVddLwLZcjUWDtV1HuBqOVddYxGCq5xO6GIZBHsXo+Yx5scffzwTumWPudOb4lNxf+qpp3r0NmhCYp1+0538zTHHHMldhUHtzL0LL7ww60/3mHva5rHHHsts77333rS41v8pNqHvsEudFD2alE6aWp/MY5vJo5zaBqhIMSV8sWkQcOSVFVc1XaFYjwC4qsfGt8aaq8xXjXz77EM7cNUiyphXLUAKbwKuymNsPa/Kd916jxDsrQ+RzADz30unfdOWF+xnnnmmydRY99xzz2V31kms09VIbst/L53u7pu2SZMmZYKdHrNvYoNgbwL19vWJZG0REywsLUAKbwKuymNstbDk+E8CHpsWAXBVC02xwuFCkBVXi95xZIEAuGoBkqMJuKoHDIJdj01UNU8++WQmdO+55x7jueUfib/00kuNtrrK66+/Xi2wwAJJn/RWeLozrtsuu+yybGxlb6XPPxL/r3/9S+cyaDkEe1B4O+McydoiVI6CBcnaAlMPE3DVA7SSJlZc5fhPZdi0CICrWmiKFRDsRTwaOAJX5UG3mlflu+2ERwj2ToSp+iBfeOGFTBRPnDjR6JA+MKkoLfu+O+foiCOOyNpvv/32quwx9+uuuy6zp+/amza6EJCOrez77iY/VerS/vFIfBUUu98WydoyhlhYWgIVzgxclcfWamEJwe4MPLhqCRnmVUugwpmBq/LYWs2r8t12wiMEeyfCJDPIcePGJWL3uOOOMzqk74anovTVV1812g5X7rXXXknb2WabTZ188snD1ezxs88+m/V3xx13sDZp4S9/+cvEFr/DniJS/t9qAnRI/uU99sMCydoyzg7csuKqZbcwGyAArg6wkNqz4ioEuzPc4KolZNy8qnl6w4qrlt3CbIAAuDrAQmoPXNUjCcGuxya6mmWWWSYRu5/85CeN53b00UcndvPNN5/Rbrhy//33T9rNOeec6q9//etwtfaYXkw3++yzJ21/+MMfau2ogu7Y08WEtdde22gXsjK9mBHVHXYu+YcEMQLfSNaWQXTgFpK1JaaOZuCqI2AW5lZcdeC+RZe9MAFXLcPscDHIiquW3cJsgAC4OsBCag9c1SMJwa7HJrqa/fbbLxG7888/v/Hc1ltvvcTuM5/5jNEuX3nLLbckbUjMln1HPt8u3d9ggw2S9u9///vTIvb/QgstlNgdf/zxbH0dhdEJdi7x00ITmxEBJGsjPINKjl+4EzTAp4Y9cFUeZKuFJQS7M/DgqiVkmFctgQpnBq7KY2s1r8p32wmPEOydCJPMIO+7775MVF9yySWs0/zPppU9np53sM466yS+995773yx9f7pp5+ejU33Fvs//OEPic2ss86qXn75ZWvf0oa9EOwaQSWNZZf9IVlbRg8LS0ugwpmBq/LYWi0sIdidgQdXHSCz5JcVVx26helMBMBVeSaAq3pMIdj12ERZ84EPfCARvfPOO6+i32bPb9OmTVNrrbVWUr/hhhvmq5J9qqdH1oe/A5//GTjft8pTB4suumjS9yqrrKKmTJlS6P+JJ55Q6d31L3/5y4W6ug8g2OtGvJ39IVlbxoUT7JonOJCsLTF1NANXHQGzMC/lKsd7XAgtRRZcLYVoYADBPsCigT1wVR700nlVvsvOeIRg70yoZAZKb2Gfe+65E2FM3xvfd999Fb3I7eCDD1YLL7xwUk4/x/biiy+OdHj44Ycn9SRYzzrrrKz++eefz8oXX3xxNWHChNK/HXfcMWuf7tx0002ZHxrDYYcdpk477TS1zz77qPHjxyd1q622Wmre2H8I9sagb1XHSNYO4cDC0gEseVNwVR7T0oUlBLsX6OCqA2yYVx3AkjcFV+UxLZ1X5bvsjEcI9s6ESm6gDz/8sKLfRk+FZ/7/GmusoehuNrcdddRRWZvf/e53mcmDDz6Yled9mfa5O/jkkH5yLv399uH2W265pZo6dWrWb1M76biieemcZdJvCu+29otk7RAZS44hWTtg6mAKrjqAZWlaylUIdkski2bgahEP4xHmVSM8oSvBVXmES+dV+S474xGCvTOhkh/o5Zdfrr7+9a+rXXbZRR100EHqxhtvNHZCj76fdNJJ6uyzzy7YvfTSS+raa69V11xzjfXfzTffXPCRP6Dfbac+6NF3evEdCeP7778/b9LoPgR7o/C3pnMka4dQYGHpAJa8Kbgqj2npwpLjPB6JLw0EuFoK0cDA8qJQKVcHHrHngAC46gCWpSm4qgcKgl2PDWqAAItAVIKdS/i00MRWigCSdSlEAwOOZ4x4QbIeQCa5B65KojnTVylXOcEuP4zoPIKrDiHFvOoAlrwpuCqPaem8Kt9lZzxCsHcmVBhoWxCIXrAzQqot2LdpHEjWDtHAwtIBLHlTcFUe09KFJQS7F+jgqgNs3LzKXHAv5apDlzAdIACuDrCQ2gNX9UhCsOuxQQ0QYBGAYGdh6V0hkrVDyLmFJXNhCMnaAVMHU3DVASxLUyNXLflu2VWvzMBVx3BbXBgyctWxO5gPEABXB1hI7YGreiQh2PXYoAYIsAhAsLOw9K4Qydox5FhYOgImZw6uymGZejIuLCHYU5ic/4OrjpBhXnUETM4cXJXDMvVknFdTo57+h2DvaeBx2v4IRCXYLZK9P1Jxt0SydoyvBdeQrB0xtTQHVy2BcjAzchWC3QHJoim4WsSj9AjzailEoQzAVXlkjfOqfHed8gjB3qlwYbBtQACCvQ1RaH4MSNaOMcDC0hEwOXNwVQ7L1JNxYQnBnsLk/B9cdYTMgmtGrjp2B/MBAuDqAAupPXBVjyQEux4b1AABFgEIdhaW3hUiWTuGnBPstNjMbUjWOTAEd8FVQTDHXBm5ynFdfghRegRXHcMKwe4ImJw5uCqHZerJOK+mRj39D8He08DjtP0RiEawWyR6f5Tib4lk7RhjC74hWTtiamkOrloC5WBm5CoEuwOSRVNwtYhH6RE3rxL/cpuRqzk77LohAK664WVjDa7qUYJg12ODGiDAIgDBzsLSu0Ika8eQcwtLKsttSNY5MAR3wVVBMMdcabnK8XxIQMmPJh6P4KpHLEsuEGm56tEVmgwQAFcHWEjtgat6JCHY9digBgiwCECws7D0rhDJ2iPkWFh6gFa9CbhaHcNhD9qFJSfYhy5MDfvC8QABcHWAhfUe5lVrqCQNwVVJNGf60s6r8l11ziMEe+dChgE3jUA0gp1L8lhYWtMLydoaqoEhx7lBrUKyzoEhuAuuCoI55krLVQj2SmCDqx7wYV71AK16E3C1OobDHrTz6rBhD48h2HsYdJxyNQSiFuzVoOlVayRrj3BjYekBWvUm4Gp1DIc9aBeWEOzDUDkdg6tOcM00LuGclqseXaHJAAFwdYCF1B64qkcSgl2PDWqAAIsABDsLS+8Kkaw9Qg7B7gFa9SbganUMhz1oF5YlHB/2g+MiAuBqEQ+rIwh2K5ikjcBVaUQVnrIzQArBbgAHVUCAQyAKwV6S4LnzRlkRASTrIh5WRyW804ogK+cw0iEAruqQ8S/XchWC3R9UpRS46gEf5lUP0Ko3AVerYzjsQTuvDhv28BiCvYdBxylXQwCCvRp+sbRGsvaIJBaWHqBVbwKuVsdw2IN2YQnBPgyV0zG46gTXwNjAOy1XB62x54EAuOoBWkkTcFUPEAS7HhvUAAEWAQh2FpbeFSJZe4ScE+y00BzbkKxTJGT/g6uyeJI3lqscv6kMmzUC4Ko1VEVDCPYiHjUcgavyILPzqnw3nfQIwd7JsGHQTSIAwd4k+u3pG8naMxZYWHoC598MXPXHTteSXVhCsOvgsi4HV62hKhpiXi3iUcMRuCoPMjuvynfTSY8Q7J0MGwbdJAJRCHZDcm8S2y71jWTtGS0D95CsPTEtaQaulgDkUc1yFYLdA8liE3C1iIf1ETevjj3dwXLV2jEMdQiAqzpk/MvBVT12EOx6bFADBFgEINhZWHpXiGTtGXJuYTnmCsnaE9OSZuBqCUAe1SxXOW7jkXgndMFVJ7gGxoaLRSxXBy2x54kAuOoJnKEZuKoHB4Jdjw1qgACLQOcFO5fYaaGJzQkBJGsnuAbGHP/GRA2S9QAmyT1wVRLNmb5YrnKCXb7rqD2Cq57hxbzqCZx/M3DVHztdS3Ze1Rn3rByCvWcBx+lWRyBKwT4mmKqj0x8PSNaescbC0hM4/2bgqj92upbswhKCXQeXdTm4ag3VqKGGfyxXR1ujxBEBcNURMAtzcFUPEgS7HpuRmttuu00dddRRar/99lN77LGHOuOMM0ZsUBA/AhDs8cfY5gyRrG1QYmw4wT72hAeSNYOXQBG4KgDikIsRrnK8xoXQIdTKD8HVcoy0FhDsWmhCVICr8qiOzKvyXXTWIwS7RejOOecctdhii6lUqKX/f/SjHxVaH3DAAerrX/+6uuqqqwrlOIgLgTT+3+nIYmxkAsTCUoSQSNYVYMTCsgJ47k3BVXfMylpgXi1DyK8eXPXDLWmFebUCeO5NwVV3zMpajMyrZQ16VA/BXhLsb3/72wWhPuecc6qFF144KRsW7DfffHNSvvjii5d4RXWXEei8YNck9S7HpImxI1lXQF3DQSTrCpgamoKrBnA8q0a4iguhnkgWm4GrRTycjjCvOsFV1RhcrYrgaPuReXXUpLclEOyG0N95552ZWP/Yxz6mHnzwQTV9+nS17777soKdXK2xxhpJ3S233GLwjKouIwDB3uXoyY0dyboCllhYVgDPvSm46o5ZWYuRhSXH6Y48hVV2rnXWg6sV0NZcNBrhaoUu0HSAALg6wEJqD1zVIwnBrsdGfepTn0rE94c+9KGClUmw//CHP0zaHHLIIYU2OIgHAQj2eGJZ5UyQrCugpxE3SNYVMDU0BVcN4HhWjXCV47Sn7z43A1crRB+CvQJ47k3BVXfMylqMzKtlDXpUD8FuCPYiiyySiO977723YGUS7FdffXXSZssttyy0wUE8CHRasGsSejzRqe9MkKwrYK3hIZJ1BUwNTcFVAzieVSNchWD3RLLYDFwt4uF0xM2rs8yiRrjq5BTGOgTAVR0y/uXgqh47CHY9Nmr8+PGJ+J42bVrByiTYL7/88qTNuuuuW2iDg3gQgGCPJ5ZVzgTJugJ63MLyO9/BwrICpKam4KoJHb+6wsJSw2c/z/1uBa5WjD9z4ajA1Yru0XyAALg6wEJqD1zVIwnBrsdGpXfY6bvr+c0k2OlReBJ0uMOeRyyufQj2uOLpezZI1r7IjbXDwrIigPbNwVV7rGwtCwtLCHZb2ErtwNVSiMwGmFfN+AjWgquCYI65Ksyr8u477RGC3RC+rbfeOhHfe++9d8HKJNgnTJiQtOnKT34VTgwHVgh0WrAzyVzRYhObMwJI1s6QFRswXESyLkIkdQSuSiE58FPgKgT7AJiKe+BqRQAxr1YE0L45uGqPla1lYV61bdQTOwh2Q6BvuummRHyTQDv33HMzS51g32effTJ7+iBjixOB6AR7nGEKflZI1hUhxsKyIoD2zcFVe6xsLQsLSwh2W9hK7cDVUojMBgwX/73vvirF1dwYtS4IpJjSXIBNBoHCvCrjMhovEOwlodxxxx0zEU5vjf/jH/+oUmH+ve99T02aNEmdf/75aqWVVirYlbhFdYcRgGDvcPAEh45kXRFMTrBjYVkRVL45uMrjUqW0sLBkuFzFd5/bgqsVow/BXhFA++bgqj1WtpaFedW2UU/sINgtAr3DDjtkYjwVa7r/66yzjpoxY4aFV5h0FYE09l352kM6AdJVdjW8sKTkjs0LASRrL9gGjbCwHGAReA9clQc4nVcJ25F5leZZbF4IgKtesA0aYV4dYBF4D1yVB7gwr8q777RHCHbL8J1zzjlq+eWX1wr3RRddVB1xxBGW3mDWZQQg2LscPbmxI1lXxBILy4oA2jcHV+2xsrVMF5bshVAIdlsYR+zA1RFI3AuGL8zPMgseiXdHsbQFuFoKkbNBOq8SttiKCECwF/EoPfrnP/+ZPAJ/wgknKPqj77b/4x//KG0Hg3gQgGCPJ5ZVzgTJugp6b7dlBDvdqUxxregdzXMIpJjSYgibDALpwpIV7MRtbF4IgKtesBUbQbAX8Qh0BK7KA5vOq4QttiICEOxFPHAEBEoRgGAvhagXBkjWAmHGwlIAxHIX4Go5Rq4W6cISgt0VObM9uGrGx6oW86oVTFWNwNWqCI62T+dVwhZbEQEI9iIeOAICpQh0VbDje5aloXUyQLJ2gos3xsKSx0W4FFwVBlQplS4sIdhlsQVXBfBk5lXiKUSQALY5F+BqDgyh3XReBVdHAYVgH8UEJUDAiAAEuxGe3lQiWQuEmllYprgKeIeLMQRSTGkxhE0GgXRhiQuhMnimXsDVFIkK/5mvG0GwV8BT0xRc1QBToTidVwlbbEUEINiLeBSOvv/976sNN9xQbbTRRk5/1Oaqq64q+MJBPAh0UbCzd4FILGHzRgDJ2hu6QUMsLAdYBNwDV+XBTReWEOyy2IKrAnhiXhUAsdwFuFqOkatFOq8SttiKCECwF/EoHO28887at8Knok33/4ILLij4wkE8CKQx79LPurGCHS9GqkRKJOtK8M1sjIWlAIjlLsDVcoxcLdKFJQS7K3Jme3DVjI91rebpJev2MCxFAFwthcjZIJ1XCVtsRQQg2It4FI72339/teWWWxr/1ltvPbXYYotlwv5jH/uY2nrrrdWVV15Z8IWDeBCAYI8nllXOBMm6CnpjbRnBTgIIyVoA25wLcDUHhtAuLSxxIVQIzJwbcDUHRpVdCPYq6Fm1BVetYHIygmDXwwXBrsfGqebPf/6zWmmlldSyyy6r7r33Xqe2MO4WAhDs3YpXqNEiWQshi4WlEJB6N+CqHhvfGgh2X+TM7cBVMz7WtZhXraHyNQRXfZHTt4Ng12MDwa7HxrnmueeeU/POO69617vepWbMmOHcHg26gUAXBTse25TnFpK1EKZYWAoBqXcDruqx8a2BYPdFztwOXDXjY12LedUaKl9DcNUXOX07CHY9NhDsemy8ag4++ODk8fgzzzzTqz0atR8BCPb2x6iOESJZC6GMhaUQkHo34KoeG98aWliyF0LxbhBfSJN24Gol+AaNma8bJV/hGFhgryIC4GpFAJnmEOwMKGNFEOx6bLxqrrjiikSw77DDDl7t0aj9CECwtz9GdYwQyVoIZUawY2EphO2YG3BVFk/yphXs8l31yiO4KhRuCHYhIPVuwFU9Nr41EOx65CDY9dh41Zx88smJYN9ggw282qNR+xHommBXTOJOytoPdatHiGQtFB6GnxDsQtiOuQFXZfEkbxDs8piSR3BVCFdmXk2eCBFyDzfgaggOQLDrUYVg12PjVbPJJpskgn3bbbf1ah9bo6rf5a/aPgSeEOwhUO2eTywshWLGLCwh2IWwHXMDrsrimXhjeIsLodVxBlerY5h5YJ5eyuqwUxkBcLUyhCMOINhHIMkKINgzKKrt0AvnvvCFLyRinQTdb3/722oOA7d+6aWX1KGHHqpWXnlltcACC6h3vvOdat1111Vnn3125Z5vueUWteOOO6qll15azTfffGqppZZS9Jv2tm/Pf/TRR9Xee++dvHGf2i+++OKKfi7v6quvrjw2CQcQ7BIodt8HkrVgDLGwFARz1BW4OopJ5RII9soQcg7AVQ4VzzLMq57A2TUDV+1wcrGCYNejBcGux0YdddRR6tOf/rTxj+6o08+5zTrrrJlYX2aZZQxem6+in6AjIZwKz+H/m222mfcgDzzwQK1f6ufnP/+50fcpp5xSwDKPK7UnId/0luL1HVqwdWHjknZXxt5ifJGsBYPDcVTQfd9dgasBGADBHgBUPGYsCirmVVE4h51hXh1GpPoxBLseQwh2PTbJXeFUnNn+f9/73qeeeeYZg9dmq/75z3+q2WefPRHV73nPe9T111+v6G77P/7xj8ITAp///OedB3rMMcdkYn2PPfZQjzzyiHr55ZfVX/7yF7X66qtndXTBgNv+9Kc/ZTabb765uueee9Srr76a/KfjNAZHH30017y2snQcnRbstaEVb0dI1oKxxcJSEMxRV+DqKCaVSyDYK0PIOQBXOVQ8y8BRT+DsmoGrdji5WEGw69GCYNdjk9zN3XjjjZXpb9NNN03uwB9yyCHqpptuMnhrR9WHP/zhRPguu+yy6q233hoZ1Fe+8pVMGD/22GMj9bqCKVOmqHHjxiVtv/nNb46YvfHGG2rRRRdN6ldcccWReipYYoklknp6/J3bNtpoo6R+zjnnVG+++SZnUksZBHstMLe+EyRrwRBxgh1PgYgBDK6KQTlwxHF2UIs9TwTAVU/guGYQ7BwqYmXgqhiUmSMI9gyKkR0I9hFI4i0gAZ6Kzeuuu4490enTp2fC+7/+679YG64w/f35+eefX+leFPf73/8+6/++++4ruLn44ouzusmTJxfq0gN6CiAd/+mnn54W1/4/HUMn7rAjYQfjB5K1ILTgqSCYo67A1VFMKpdAsFeGkHMArnKoeJZhXvUEzq4ZuGqHk4sVBLseLQh2PTbR1Xz3u99NBO873vEO47lts802id1iiy1mtMtX0ovlSMh+7WtfyxcX9knIp4/jk8DPb3RXndrTi+9MGz0ZQHb0ZENTGwR7U8i3q18ka8F4YGEpCOaoK3B1FJNKJRxfScBjq4wAuFoZwqIDXFgq4iF4BK4KgjnmCoJdjykEux6b6GpWWWWVROx+8pOfNJ4b3b1ORem0adOMtlRJH7DUXnfnPnWy5pprJrZrrbVWWpT8n3vuuZPyH/7wh4Xy4YMvfvGLiR29NK+pLT1X3GFvKgLt6BfJWjAOEECCYI66AldHMalUwvGVyrBVRgBcrQxh0QEEexEPwSNwVRDM1NUssyj6Wdfkp10xp6aoJP8h2AtwxH0w11xzJWL3Zz/7mfFEH3744cSOhOnf//53oy1V3nbbbZk9vWTOtKWCe8EFF8zM6MVyqQi++eabs3Ju54wzzshs6Xvx3EZCOuRfOtbQgp0uhFT9S34XeChhJ5OhgO+qY+t6+7vuukvRHyXtrp9LG8avhnhKx20YVwxjAFerz6V5HmBelcUzjy24Kost5lVZPMHVcHiGmlc5ndDFst4L9u23317Ry8wk/zbccEN15ZVXtooP9FK4VGhefvnlxrG9+OKLme1VV11ltKXKE088MbGnn2Ar23784x8ntrPNNltmSgk6HdtTTz2VlXM79Mb51PbZZ5/lTBKxntqE/B9asKdXb6v855J1FX9o+3+JQCccrr322uQvFe3AZoCNDxbgajX8TJiDq7LYJnd/hi4wUZkpBqiziwG4aoeTLZ+4eRVclcEYXJXBMeVyqHmVFQodLOy9YJ8wYUImACXF3XnnndcqOjz33HPZeZLAMG304rkUi9/97ncm06Tu8MMPT+zp7e1lW/5x+/RN7/Qzb2l/r732mtHFQw89lNlOmjSJtSUhnfoL+R+CXXayTiftrvxHspaNP7ew7AoX2j5OcBVcbTtH0/GBq7JcDSWC0nj1+T+42g2uskKhg4W9F+yf+MQn1FZbbSX+17Y77PT766l4feCBB4xUpZ97S21/9atfGW2p8sADD0zsbb5XThcAUt9Tp05NfF900UVZGV0sMG35N90Pv2ne1E6yLh1/aMFeeczc9yzprhA2EQTShQo9IodNAAGOr/gOmwCwKrvzC66KwKm4i0tCnnvvBvOqMAUwrwoDOnAHrg6wENkDV40w9l6wG9GJqJK+i54KTfp5NNOWF+z0nfGyba+99kp8l719nvxccMEF2ThScX7WWWdlZeldd12fjz76aGb74IMP6syClqc4tl6wj6FAV9jTv+Q7QkHR6Y9zJGvhWCNZCwM6cAeuDrAQ2Rt6HD4R8CKO4QRcDcAB8DUAqLgQKg4qeGqEFILdCE88lU8++WQmdP/2t78ZT4xe5paKUvp99LLtoIMOSuznnXfeMlN15plnJrbuWXerAAAgAElEQVT0fff099ovvfTSrL/XX3/d6CN/4eGJJ54w2oaqTLHpjGD/97+zO2yhMOmjXywshaPOCXY8ESICMrgqAuNMJxxPqQybCALgqgiMRScQQkU8hI7AVSEgUzfgaYoE+x+CnYUlvsLnn38+E8XXXHON8QRfeumlzPaOO+4w2lIl/RQbidj8i+R0jY488sjEln7GLd3oe0CpCH7hhRfSYvb/DTfckNnS2+Wb2NKxQrA3gX57+kSyDhALJOwAoOJOkCioEOyicA47w7w6jIjAMeZVARBHXYCro5h4l3DzKvEWW4YABHsGRdw7dDebBDWJTXqru2mj77inorTsZ9rIzxVXXJHZl90h33333RPbVVddNRsCvRk+7e/uu+/Oyrkd+k492dJP1DW1pWOFYG8qAu3oF8k6QBywsAwAKgS7KKjcwhJ32MUgxrwqBuXAEebVARaCe+CqIJiYV0vBhGAvhUgpernZfvvtp9Zff3218sorqxQ03f/ll19eXXbZZRae6zVZaqmlErG73XbbGTs+4YQTErv8XXBTg/zj9jfddJPJNMGPBO8ee+yR2dHFhHHjxiV9Hn300Vk5t7PLLrskdu95z3u46lrKINhrgbn1nSBZBwgRFpYBQIVgFwWV4ygEuxjEmFfFoBw4ghgaYCG4B64KggmOloKZas5Z0p3SFj0zOOywwxKBmIo02/8XXnhh65D60pe+lJzLwgsvbBzbpptumthtu+22Rrt8Jb0hnrDZf//988WFfbr7nt7lv/766wt1a621VtL+Ax/4QKF8+GCJJZZI7Oj33JvaUg7gDntTEWhHv0jWAeIAMRQAVAh2UVA5jop20G9nmFcDxB9iKAComFdFQQVHS+FMdToEOwPVvffem4jDVKBttNFGikQsHS+yyCJq7733Vp/73OcUiU16iRqVb7/99uorX/mKuvnmmxmPzRbdeuut2fnQ98a5bfLkyZnNsKjm7NMywoHOn148R2+Z57bjjjsuseF+/i29q08+nn76aa65yn9/ncbZ1EZjpD8I9qYi0I5+sbAMEAck7QCgYmEpCioEuyicw84wrw4jInDMzavEY2yVEABXK8FXbIx5tYgHcwTBzoCSFm2++eaJMFt22WUzEUmPb88xxxxqgQUWSM2S//TBXWeddRTdvbZ5UVuhcY0H6Z1suuAw/Ju8dG6bbLJJcs7vfe972VGdfvrpyU+zDVfmhf6ee+45XK3oe/Gzzz574vvYY48dqae+CVMSwuutt96I6KcX4S299NJJ/a677jrSvs4CCPY60W5vX0jWAWLDLSypDFslBMDVSvANGjP8pJ/MxCaHALgqh2XqKVnrQRClcIj9B1fFoFTJT2MOc1TQfQyuINgNUaTvopM4u/322wtWJBzpjnr6O+Jp5ZQpU9RCCy2k6PfIp02blha36j9NMOn3xeeff35Fb23/wx/+oOgON5GBznfOOedU9L304e1nP/tZUk82F1100XC1OuKII7J6ujBw2mmnJS+kO/jgg5OLHNTuwx/+8Ei7tIDGQTb09653vUudfPLJauLEiYlfwpXKJ0yYoOhn55rc0jHiDnuTUWi+byRr+RhgYSmPKXkEV4VwhWAXAlLvBlzVY+Nbg3nVFzlzO3DVjI9T7bBYp2NsBQQg2AtwFA/opWskzobffP7BD34wKX/88ceLDZRShx56aFL3i1/8YqSuLQU33nhjcmEhFZ75//RiOt3vtH/3u99Nzo3s6U47t+Vt8n5pn75O8Oabb3LNsrKzzjoruxM/3P4//uM/FP08XdNbOi4I9qYj0Wz/SNby+GNhKY8peQRXhXCFYBcCUu8GXNVj41uDedUXOXM7cNWMj3Ut5lUrqCDYDTDRnXISZ6+88krB6stf/nJSfskllxTK6eDqq69O6rbZZpuRujYVTJ06VZ1yyinJd+7pMfjPfOYz6vzzzx95FD0/ZnqCgC5I0J10eoRdt02aNEkddNBBasstt1Qf/ehHk+/633XXXTrzkXL6LXa6808Y0tjop+AI17ZsEOxtiUSz40CylscfC0t5TMkjuCqEKxaWQkDq3YCremx8a2heTb66MXwXk/iMzRsBcNUbumJDzKtFPDRHEOwaYKh4zTXXTMT3NddcU7C64IILknLuu9r0GDgJug996EOFNjiIBwEI9nhiWeVMkKyroMe31Qp2LCx5wCxLwVVLoMrMhgXPLLMkF0PKmqHeHgFw1R4rW0sIdluk3OzAVTe8tNYQ7Fpo8hUQ7Hk0hvZ/8IMfJOJ7hx12KNS8+OKLSfn48eNHXtxGv9NOgu7AAw8stMFBPAhAsMcTyypngmRdBT2+LRaWPC5VS8HVqgiOtYdgFwJS7wZc1WPjW4N51Rc5cztw1YyPdS0zr+JlnqPoQbCPYpKVPPfcc4n4JoFGH8z8tv766yd19Fb4/fbbT5G4X2ONNTJ73c+m5X1gv5sIQLB3M27So0aylkZUJRdA8eimPK7gqgCmzF0gerPx8NpAoKdeuwBX5cNPgj3hKSOM5Hvrj0dwVSjWDC8xr45iC8E+ikmh5PDDD1f77ruvOuaYYwrlTz31lEpfSpcKuPR/27+/XjgRHDgjkMYZL51zhi6qBkjW8uHU3gmihI7NGwFw1Ru6QUNGsNPFJSwsBxBJ7IGrEigWfUCwF/GQOgJXhZCEYLcCEoJdKXXGGWeoRx55xAqwvBG9HG3nnXdOfoKMHo9fYYUV1E9+8pO8CfYjRACCPcKgepwSkrUHaCVNsLAsAcizGlz1BC7fDII9j0awfXBVHlrMq/KYkkdwVQBXzKvWIEKwK6V22mmn5FH2VVddVR177LHqpZdesgYwNSz7ubLUDv+7jwAEe/djKHEGSNYSKBZ9YGFZxEPqCFwVQBILSwEQy12Aq+UYuVoY51XiNTYvBMBVL9iKjTCvFvEwHEGw5wR7KsRmnXVWtdlmm6mLL7649HfDDdiiKlIEUp7gkfhIA2x5WkjWlkA5mBkXlg5+YFpEAFwt4uF1pHlsk7DFJocAuCqHZeopnVfxfpAUEZn/4KoAjhDs1iBCsKuZLzr66U9/qlZZZZXspXGpKJt33nmT3wG/4447rEGFYdwIpNyAYI87zmVnh2RdhpB7PRaW7pjZtABXbVAqsYFgLwFIphpclcEx7wXzah4NuX1wVQBLCHZrECHYh6B69NFH1aGHHqqWWGKJEfE+YcIERSLtySefHGqFwz4hAMHep2jrzxXJWo+Nbw0Wlr7ImduBq2Z8rGoh2K1gqmoErlZFcLR9Oq8StvTLBiN/o01QYoEAuGoBUpkJw8cU17KmfauHYDdE/O6771Zf/OIX1QILLDAi3tdee2116qmnqtdee83gAVUxIgDBHmNU3c8pTSq0GMImg0C6sGQf3aTEjs0LAXDVC7ZBI8NdIMIWmxwC4KoclqmndF5NuMoIpNQO/90QAFfd8GKtGT6muLL2PS6EYLcI/owZM9TVV1+ttt12WzXHHHMUxPvss8+uPvWpT6mJEycqssMWPwIQ7PHH2OYM06QCwW6Dlp0NFpZ2OLlagauuiA3ZQ7APARLuEFyVxxbzqjym5BFcrYgrM6/S0x8prhW9R9ccgt0xpNOmTVPnnnuu+uAHP6jo5XSpeKP/Cy64YPKb7Q899JCjV5h3CYE05vgOe5eiJj/WNKlAsMthi4WlHJZ5T+BqHg2PfWZhmf4GO2GLTQ4BcFUOy9QT5tUUCdn/4GpFPDGvOgEIwe4EV9GYJsFf/OIXao011igIdxJ0F154YdEYR9EgAMEeTSgrnQiSdSX42MZYWLKwVC4EVytCyDy2CcFeEVNNc3BVA0yF4sK8yoikt1/OVMF7f5uCqxVjz3AR86oeUwh2PTbWNVOnTlWXXHKJ2muvvTLhDsFuDV/nDCHYOxeyIANGspaHFQtLeUzJI7haEVdOsP/73xmuFb2jeQ4BcDUHhtAu5lUhIIfcgKtDgLgeQrA7IQbB7gRX0fjpp59WRx55pFpppZUyoZ6Kud///vdFYxxFg0AaYzwSH01IvU4EydoLNmMjLCyN8HhXgqve0M1sCMFeEUD75uCqPVa2lqXzKvEbmzMC4KozZMUGmFeLeJQcQbCXADRc/eKLL6oTTjhBvf/97x8R6ePHj1fbbbeduv7664eb4TgiBCDYIwpmhVNBsq4AnqZp6cISj25qkDMXg6tmfIy1zF0geoS4wFWjA1S6IACuuqBlZzvCVUYo2XmCVR4BcDWPhsc+w8MRrnq4jbUJBLtFZOmn284880y10UYbjbxojl48t8kmm6jzzjtP0QvpsMWPAAR7/DG2OUMkaxuU3GxGkjWT0N08wpoQAFcr8ACCvQJ47k3BVXfMylpgXi1DyK8eXPXDLWvF5PcRrmbG2IFg13DgjTfeUBdddJHaYost1Lhx40bupq+++urq+OOPVy+88ILGA4pjRQCCPdbIup0XkrUbXjbWI8maSeg2fmBTRABcLeLhdATB7gRXVWNwtSqCo+0xr45iIlECrlZAEfOqM3gQ7DnI6HfU//znP6vtt99ezTnnnCMifYklllDf/va31aRJk3KtsNs3BCDY+xZx/nyRrHlcqpRiYVkFPX1bcFWPTWkNFpalEEkagKuSaM70NTKvajgt33PcHsHVCvHVcHCEqxW6iK0pBLtS6u6771a77767mnfeeUdE+vzzz6/23HNPdfvtt8cWe5yPJwIQ7J7ARdYMyVo+oCPJmrvDTokemxMC4KoTXEVjjoNK4TvsRZTEjsBVMSgzRyPzqkYsZQ2wY4UAuGoFE2+k4eAIV/nWvSyFYFdK7bTTTgWhPvvss6utttpKXXHFFerNN9/sJTFw0noEINj12PSpBslaPtojyVqT1OV7jtsjuFohvhDsFcBzbwquumNW1gLzahlCfvXgqh9uSStuXsXLPI2AQrArpf7zP/8zEezrrbeeOu2009Srr75qBA2V/UYAgr3f8U/PHsk6RULuPxaWcljmPYGreTQc9rkLRrTQxB12BxDdTMFVN7xsrEfmVWrECSYbZ7DJEABXMyjcdzT8Y7nq7j3KFhDsSqlLLrlEPfPMM1EGGCcljwAEuzymXfSIZC0fNTZZaxK7fO/xegRXPWPLCXYqg2D3BLS8GbhajpGrBeZVV8Ts7MFVO5xYK01eZ7nKOuhfIQR7/2KOM66IAAR7RQAjaY5kLR9INllrErt87/F6BFc9YwvB7gmcfzNw1R87XUvMqzpkqpWDq574YV71Ag6C3Qs2NOozAhDsfY7+4NyRrAdYSO1hYSmFZNEPuFrEw/oIC0trqKQMwVUpJAd+rOfVsadHBi2xZ0IAXDWhY6jDvGoAR18Fwa7HBjVAgEUAgp2FpXeFSNbyIbdeWMp3HbVHcNUzvIanO1iuenaDZgMEwNUBFlJ7LFcNokmq39j9gKueETZwj+WqZzexNYNgjy2iOJ/gCECwB4e4Ex0gWcuHiU3WhuQuP4I4PYKrnnGFYPcEzr8ZuOqPna4l5lUdMtXKwVVP/Aw5neWqZzexNYNgjy2iOJ/gCECwB4e4Ex0gWcuHiU3WhuQuP4I4PYKrnnGFYPcEzr8ZuOqPna4lO6+SsYHfOl8oHyAArg6wcNoz8E7LVacO4jSGYI8zrjirgAhAsAcEt0Oukazlg8Uma06wU8LHZo0AuGoN1cCQ4x2VjW0sV9NK/PdGAFz1hk7bUMtVg3DSOkNFhgC4mkHhtmPgnZarbj1EaQ3BHmVYcVIhEYBgD4lud3wjWcvHSpusDQlefhTxeQRXPWIKwe4BWvUm4Gp1DIc9YF4dRkTmGFz1wJGbV3MX4LVc9egqtiYQ7LFFFOcTHAEI9uAQd6IDJGv5MGmTNQR7JbDBVQ/4uIUl7rB7AOnWBFx1w8vG2mlezXHcxnefbcBVj+hjXvUAbWYTCHZv6NCwrwhAsPc18sXzRrIu4iFx5LSwlOiwJz7AVY9AcxeJcmJGy1WPrtBkgAC4OsBCak/L1RLxJNV/rH7AVY/IlnBOy1WPrmJrAsEeW0RxPsERgGAPDnEnOkCylg+TNlmXJHn5kcTlEVz1iCcn2HNutFzN2WDXHQFw1R2zshZarmJeLYPOWA+uGuHhK0s4p+Uq761XpRDsvQo3TlYCAQh2CRS77wPJWj6G2mRdkuTlRxKXR3DVI54Q7B6gVW8CrlbHcNiD07xKvMdmhQC4agVT0QjzahEPhyMIdgewYAoECAEIdvCAEECylueB08KSRDw2KwTAVSuYBkYWF4i0XB14wZ4HAuCqB2glTYxcLRFQJa57XQ2ueoS/hG9Grnp0F1MTCPaYoolzqQUBCPZaYG59J0jW8iEyJuuSRC8/mng8gquOsYRgdwRMzhxclcMy9YR5NUVC9j+46ognN69SXs9tRq7m7Pq4C8Hex6jjnCshAMFeCb5oGiNZy4fSmKwh2L0BB1cdoeMWllSW24xczdlh1w0BcNUNLxtrI1cxr9pAyNqAqyws+kLMq3psLGog2C1AggkQyCMAwZ5Ho7/7SNbyscfCUh5T8giuOuKKhaUjYHLm4Koclqkn47xqwfXUD/4XEQBXi3iUHllwzcjV0g7iNoBgjzu+OLsACECwBwC1gy6RrOWDZkzW3J0gWgBgK0UAXC2FqGjAca1ooYxcHbLFoT0C4Ko9VraWRq5aiCjbfvpmB646RtyCa0auOnYXmzkEe2wRxfkERwCCPTjEnegAyVo+TMZkbZHs5UcUh0dw1TGOEOyOgMmZg6tyWKaenOdV4j+2UgTA1VKIigaYV4t4OB5BsDsCBnMgAMEODhACSNbyPHBeWOIOu1UQwFUrmGYacReGGAFj5KpDdzAtIgCuFvGQOCrlqoWQkhhHbD7AVceIWvCslKuOXcZkDsEeUzRxLrUgAMFeC8yt7wTJWj5EpcnaIuHLj6r7HsFVhxhygp25MFTKVYcuYTpAAFwdYCG1V8pVzKteUIOrjrBZ8KyUq45dxmQOwR5TNHEutSAAwV4LzK3vBMlaPkSlydoi4cuPqvsewVWHGEKwO4AlbwquymOKeVUeU/IIrjrginnVASzeFIKdxwWlQECLAAS7FppeVSBZy4cbC0t5TMkjuOqAKxaWDmDJm4Kr8piWzquWnJcfWbc9gqsO8bPkWClXHbqMzRSCPbaI4nyCIwDBHhziTnSAZC0fptJkjTvsXqCDqw6wWXKslKsOXcJ0gAC4OsBCaq+Uq5ZiSmo8sfgBVx0iacmxUq46dBmbKQR7bBHF+QRHAII9OMSd6ADJWj5MpcnaMunLj6zbHsFVh/hBsDuAJW8KrspjinlVHlPyCK464MrNq5TPh7ZSrg7Z9+kQgr1P0ca5iiAAwS4CY+edIFnLh7A0WUOwe4EOrlrCxvGLFprMVspVpg2KyhEAV8sxcrWw4ionqFw76pk9uOoQcEt+WXHVoduYTCHYY4qmw7m88cYb6uSTT1abbLKJWm655dS73/1utc0226hrr73Wwcuo6UMPPaT2339/teaaa6p3vetdaoUVVlCbbbaZ+vWvf63eeuut0QZMyYsvvqj+53/+R6233npqwoQJavXVV1d77LGHuu+++xjr+osg2OvHvI09IlnLR6U0WTsIKvnRddcjuGoZO45fVMZspVxl2qCoHAFwtRwjVwsrrloKKte+Y7YHVx2ia8kvK646dBuTKQR7TNG0PJd77rlHLbnkkioVnsP/P/vZz1p6KprttddeWp/UxzLLLKMmTZpUbDR0dPHFF6u55ppL6+d73/veUIv6D1O8vqNZyNU/InOPmADN+PjWIln7IqdvZ8VVy8Sv76V/NeCqZcwh2C2BCmcGrspji3lVHlPyCK5a4op51RIosxkEuxmf6Gpp4p5vvvkSQbzUUkup3/72t4mIvvHGG9XHP/7xTCgfcMABTuf+q1/9Kmk766yzqp133lldc8016vHHH0/u2O+5556Z34UXXlh7p/2OO+7I7OgO/R//+Ef1xBNPqCuvvDK5Y58K5TPOOMNpbNLG6Tgg2KWR7ZY/JGv5eGFhKY8peQRXLXHFwtISqHBm4Ko8tt7zakduSsgjZucRXLXDSWFetQTKbAbBbsYnutqtt946EcWLLLKImjJlysj57bLLLplonjx58ki9ruCUU05Ra6+9drIw5Gx+85vfZH5//OMfcyZq+eWXT2zWXXfdkfoZM2aoNdZYI6mnCw503NQGwd4U8u3qF8laPh7eC0v5oUTlEVy1DKfD0xtWXLXsFmYDBMDVARZSe1ZcdRBVUuPquh9w1TKCDtyy4qplt7GZQbDHFlHD+Tz99NOZaL7ssstYy1dffVXRXXISpV//+tdZG67wvPPOU/S9eNO24oorJn5XW221EbOJEydmY3vsscdG6qngb3/7W2ZD/TW1QbA3hXy7+kWylo+HVbJ2SP7yI+ymR3DVMm4Q7JZAhTMDV+Wxxbwqjyl5BFctceXmVcrjzGbFVaZdH4og2PsQ5bFzPPLIIxPBO8888xjPeosttkjsll56aaOda2V6937BBRccaUovvCMh/N73vnekLl9Aj/GTHT2+39QGwd4U8u3qF8laPh5WyRqC3Rl4cNUSMm5hqWlqxVVNWxTrEQBX9dj41lhz1YH/vmOJqR24ahlNB15Zc9Wy65jMINhjimbJuaSPlNNb203bL3/5y0QUkzCdPn26ydSpLv0uO3chYN555036LPte+G677ZbYzT///E59SxpDsEui2V1fSNbysbNK1pxgpwUBNi0C4KoWmkEFxyvNXSBqZMXVgXfsWSIArloC5WBmzVUHYeXQfbSm4KplaB14Zc1Vy65jMoNgjymaJedCd9ZJbOq+Q542v//++zPBThOS1Lbxxhsnfumn5PLba6+9lvV3ww035KtG9k899dTElh7bf/PNN0fq6yiAYK8D5fb3gWQtHyPrZO2wAJAfZfc8gqsWMYNgtwApvAm4Ko8x5lV5TMkjuGqBK+ZVC5DsTCDY7XDqvNXrr7+eieJLL73UeD4vvPBCZnv11VcbbW0rn3vuucwnvVE+v917771Z3ZNPPpmvGtmn34lPBbPupXh0lz61Cfm/7GmAkcE7FqTJoOr/u+66K3lbP2FX1Rfa/1+GIeFJf4QvcBngUgULW64qRrBX6Tf2tuBqOT//ve++aphXVKbjhi1Xde1RzscEXOVxqcIXW64O85+Oq/Qbe1twtZyrbZhXHZferTWHYG9taGQHlhfMd955p9E5PQafCt0LLrjAaGtbudVWWyU+uTe800/Apf1xb67P9/Hggw9mto8++mi+KtuHYC9OorbJOvbkKn1+SNZFnknga8tVLCzdsAdXy/HiOAXBXo6bxOc+7wNclcfcdl51FVf5uPVxH1wt56orp2y56sK3TBx0fAeCveMBtB0+/Z55KorpkXfT9tZbb2W2v/71r02mVnUHH3xw5o+7Y3/JJZdk9dOmTTP6JJFucx4k2kP9pf2HvsNOj7FJ/NHERpMg/Un4g4+ZcUkxJU4Ck5q5ytwNpd96RRz4OICrPC55vrCC3TAHY14txzSPr+0+uCqPqzVXMa865RBw1YKrjpyy5qphbh6ea4yiokOVEOwdClaVoT788MOZ0KUPhGnLC/bTTjvNZGqsIz877rhj1u+JJ57I2p9xxhmZTdn30ukn31LB/MADD7D+Qhem/YcW7FLnQZMXxbws7lL99cVPiinhi00GAWuuOn4vTmZ03fUCrlrEjvmahamVNVdNTlA3ggC4OgJJ5QJrrnLzKn0usLEIgKssLMVCzKtFPCocQbBXAK/ppueff75aYYUVVBrE/H8q/8Y3vpENMX+Hnb4zbtro99RTUXrRRReZTLV19Jvv6Vvp55xzTnXVVVdpbfN32KdOnaq1o4q///3v2djonJrYUmwg2JtAvz19IlnLx6LSwpIWm9hYBMBVFpZBISdUSvhkzdVBL9izQABctQDJ0cSJq44Cy3EoUZmDqxbhdOSTE1ctuo/JJNV4s6Q7MZ1c7OdCgn222WZT48aNG/mj8l133TWDIP8d9uuvvz4r53ZefvnlTBTfeuutnImx7Morr1Rzzz134mPVVVdVdFfctOW/w/7iiy+aTNVf//rXbGyvvPKK0TZUJQR7KGS75RfJWj5eTsnacSEgP9rueARXS2IFwV4CUH3V4Ko81phX5TElj+BqCa7cvEp527A5cdXgJ8aqVKdDsHcwujNmzFCvvvqqIuE6/Efl9Gb4dCNb+ik0Epv0O+umLf/4PH14XLZjjz02E9R77723on7LNpe7/+nj8+PHjy9zG6wegj0YtJ1yjGQtHy6nZA3Bbh0AcLUEKm5hiTvsJaCFqQZX5XHFvCqPKXkEV0twxbxaApBbNQS7G16dtl5sscUSMb3LLrsYz4MEPYlSV1Gc/kY6tf3f//1fYx/5Svque3ox4YQTTshXjex//vOfT8a28sorj9TVVQDBXhfS7e4HyVo+PlhYymNKHsHVEly5iz8Q7CWghakGV+VxdZpXPUSW/Ii74RFcLYmTB5ecuFrSfWzVEOyxRdRwPvSIPInNJZZYwmClVPoTbFtuuaXRLl+ZfxncxRdfnK+y2qdH52lsm222mdF+2WWXTey+//3vG+1CVkKwh0S3O76RrOVj5ZSsPUSW/Ii74RFcLYkTx6WSJk5cLfGF6gEC4OoAC6k9J656iCypcXbND7haEjEPLjlxtaT72Koh2GOLqOF86Lvrqdi87bbbWEv6/np6t5u+i267pSJ/6623tm1SsDvqqKOysdEHltvoJzTS8T/55JOcSS1l6Rjw0rla4G5tJ0jW8qFxStYeiwH5EXfDI7haEicI9hKA6qsGV+Wxrjyv0ucD2wgC4OoIJMUCzKtFPCoeQbBXBLBrzVdaaaVE9NKdau43z7fZZpukfsUVV2RPjd72fuONNxbq6Hvq9JI7ErL0IjyfjX7Oba655kp8bL755iMupk+frugxeOrjU5/61Eh9nQUQ7HWi3d6+kKzlY1N5YUkiHtsIAu4dq60AACAASURBVODqCCSDAs8LP05cHfSGvRIEwNUSgDyqnbnqIbQ8htX5JuBqSQg9eOTM1ZIhxFQNwR5TNC3O5c4770xEL4nOCRMmqLPPPlvdfffdin6+bYMNNkjqSHxzv3Gefred2k6cODHr7aWXXsp8fuQjH1Gf/OQnS/8OPPDArH26c+aZZ2Z+3ve+96nLLrtM3XfffYrKl19++aRuwQUXTF60l7Zp4j8EexOot69PJGv5mDgna48Fgfyo2+8RXDXECILdAE79VeCqPOaYV+UxJY/gagmuHvnZmaslQ4ipGoI9pmhansuFF16YvFAuFZ75//PNN5+6+uqrWU/7779/JqjzL4d76KGHsvK8L9M+XRzgtvyj8cPtl1tuuWSC5NrVWZaOC4/E14l6+/pCspaPiXOy9lgQyI+6/R7BVUOMINgN4NRfBa7KY455VR5T8giuGnDFvGoAx68Kgt0Pt863mjx5svrud7+rNtpoI/Xud79bbbLJJupnP/uZmjJlivbcnn/+ebX77rurffbZR9Ej6ulGgv2II45w+jvuuOPS5iP/H3nkkaSPddddV62yyirJi+jOOussq5+IG3EWoACCPQCoHXSJZC0fNCws5TElj+CqAVcsLA3g1F8Frspj7jyven4m5Efebo/gqiE+nhxy5qphCLFVQbDHFlGcT3AEINiDQ9yJDpCs5cPknKy5O+y0UMBWQABcLcBRPOA4VLRgj5y5ynpB4TAC4OowItWPnbnqKbaqj7RbHsBVQ7w8OeTMVcMQYquCYI8tojif4AhAsAeHuBMdIFnLh8k5WXsuCuRH3m6P4KohPhDsBnDqrwJX5TEXmVfpc4KtgAC4WoCjeMDNqxYX0525Wuw16iMI9qjDi5MLgQAEewhUu+cTyVo+Zs7JGoLdKgjgqgYmjj+WwsSZq5ohoLiIALhaxEPiyIurnOCSGExEPsBVQzA9+ePFVcMwYqqCYI8pmjiXWhCAYK8F5tZ3gmQtHyKvZO25MJAffXs9gqua2HCC3eIuEHnz4qpmGCgeIACuDrCQ2vPiKubVUvjBVQNEnvzx4qphGDFVQbDHFE2cSy0IQLDXAnPrO0Gylg+RV7L2XBjIj769HsFVTWwg2DXANFcMrspjj3lVHlPyCK5qcMW8qgGmWjEEezX80LqHCECw9zDozCkjWTOgVCzCwrIigJrm4KoGGCwsNcA0VwyuymPvNa9W+GzIn0E7PYKrmrhU4I4XVzXDiK0Ygj22iOJ8giMAwR4c4k50gGQtHyavZM3dYacFA7YMAXA1g6K4w3GnaKE98uKq1hsqUgTA1RQJuf9eXK0guuRG3m5P4KomPhW448VVzTBiK4Zgjy2iOJ/gCECwB4e4Ex0gWcuHyStZV1gcyJ9BOz2Cq5q4QLBrgGmuGFyVxx7zqjym5BFc1eDKzauWF9G9uKoZRmzFEOyxRRTnExwBCPbgEHeiAyRr+TB5JWsI9tJAgKsMRBxvaKFpuXlx1dJ3n83AVfnoe3OVE17yw+usR3BVE7oKvPHmqmYoMRVDsMcUTZxLLQhAsNcCc+s7QbKWD5F3sq6wQJA/i/Z5BFeZmHCC3fIuEHnz5iozFBQNEABXB1hI7XlzFfOqMQTgqgaeCrzx5qpmKDEVQ7DHFE2cSy0IQLDXAnPrO0Gylg+Rd7KusECQP4v2eQRXmZhAsDOgNF8ErsrHAPOqPKbkEVxlcMW8yoAiUwTBLoMjvPQIAQj2HgXbcKpI1gZwPKuwsPQErqQZuMoAhIUlA0rzReCqfAy859WKnxH5M2mXR3CViUdFznhzlRlKbEUQ7LFFFOcTHAEI9uAQd6IDJGv5MHkna9xhNwYDXGXgqcgZb64yQ0HRAAFwdYCF1J43VyuKL6nxt9UPuMpEpiJnvLnKDCW2Igj22CKK8wmOAAR7cIg70QGStXyYvJN1xUWC/Jm0yyO4ysQDgp0BpfkicFU+BphX5TElj+Aqgys3r1J+tty8uWrpv8tmEOxdjh7G3ggCEOyNwN66TpGs5UPinawh2I3BAFeH4OH4QgtNh82bqw599NEUXJWPeiWucgJMfoid9AiuMmGryJdKXGWGE1MRBHtM0cS51IIABHstMLe+EyRr+RB5J2sBASZ/Nu3xCK4OxYLjC5U5bN5cdeijj6bgqnzUK3G1ogCTP5v2eARXmVhU5EslrjLDiakIgj2maOJcakEAgr0WmFvfCZK1fIgqJeuKCwX5s2mPR3B1KBYQ7EOAtOcQXJWPBeZVeUzJI7g6hCvm1SFAZA8h2GXxhLceIADB3oMgW5wikrUFSI4mWFg6AmZpDq4OAYWF5RAg7TkEV+VjIT6vOj6NIn9G7fAIrg7FAfPqECCyhxDssnjCWw8QgGDvQZAtThHJ2gIkRxPxhaVj/7Gag6tDkRV4GqMSV4eGg8MBAuDqAAupvUpcFRBhUufRNj/g6lBEBLhSiatDw4ntEII9tojifIIjAMEeHOJOdIBkLR+mSslaYLEgf0bt8AiuDsUBgn0IkPYcgqvyscC8Ko8peQRXh3Dl5lXKyw5bJa469NNFUwj2LkYNY24UAQj2RuFvTedI1vKhqJSsIdi1AQFXh6DhFpZDJmWHlbha5rzH9eCqfPArc1Xg8yJ/Vs17BFeHYiDAk8pcHRpSTIcQ7DFFE+dSCwIQ7LXA3PpOkKzlQ1QpWXOCnRYQ2HAnKM8BjieOd4HIXSWu5seD/QICmFcLcIgcVOaqgBATOZGWOQFXhwIiwJPKXB0aUkyHEOwxRRPnUgsCEOy1wNz6TpCs5UNUOVkLLBjkz6p5j+BqLgYQ7Dkw2rcLrsrHBPOqPKbkEVzN4Yp5NQdGmF0I9jC4wmvECECwRxxch1NDsnYAy9IUC0tLoBzNwNUcYFhY5sBo3y64Kh+TIPOqx1Mp8mfWrEdwNYc/5tUcGGF2IdjD4AqvESMAwR5xcB1ODcnaASxL0yALS8u+YzYDV3PR5Z7C8BAflbmaGxJ2BwiAqwMspPYqc1VIjEmdT1v8gKu5SAhxpDJXc0OKbReCPbaI4nyCIwDBHhziTnSAZC0fpsrJWmjRIH9mzXoEV3P4c4I9V227W5mrth31zA5clQ94Za5iXmWDAq7mYOHmVeKN41aZq479dckcgr1L0cJYW4EABHsrwtD4IJCs5UNQOVljYckGBVzNwcItLHPVtruVuWrbUc/swFX5gItwVehzI392zXkEV3PYC/FDhKu5YcW0C8EeUzRxLrUgAMFeC8yt7wTJWj5ElZM1J9hpIdHzDVwdIwDHD4+7QOStMld7zknd6YOrOmT8y0W4KiTI/M+ifS3B1VxMhPghwtXcsGLahWCPKZo4l1oQgGCvBebWd4JkLR8ikWQttHCQP7vmPIKrY9hDsDdHQsuewVVLoBzMMK86gOVgCq6OgYV51YE1/qYQ7P7YoWVPEYBg72ngh04byXoIEIFDLCwFQGRcgKtjoGBhybCjXUXgqnw8gs2rnk+nyJ9hMx7B1THcMa/WQkAI9lpgRicxIQDBHlM0/c8FydofO13LYAtLXYc9KQdXxwIt+PSFCFd7wj+X0wRXXdCysxXhqqAosxt1+63A1bEYCXJDhKvtp47XCCHYvWBDoz4jAMHe5+gPzh3JeoCF1J5IshZcPEidV9N+wNWxCECwN03F0v7B1VKInA0wrzpDZtUAXB2DiZtXKQ97bCJc9ei3C00g2LsQJYyxVQhAsLcqHI0NBslaHnqRZA3BPhIYcPVtSDhe0ELTcxPhqmffMTcDV+WjK8ZVTpjJD7czHsHVsVAJ8kKMq51hkf1AIdjtsYIlEEgQgGAHEQgBJGt5Hogka2FhJn+W9XsEV9/GnOMFlXluIlz17DvmZuCqfHTFuCoozOTPsn6P4OoY5oK8EONq/XQI3iMEe3CI0UFsCECwxxZRv/NBsvbDzdRKLFkLLiBM4+1KHbj6dqQg2DtBV3BVPkyYV+UxJY/g6tsoYF4NQy7GKwQ7AwqKgIAJAQh2Ezr9qUOylo81FpbymJJHcPVtFLCwDEMuYa/gqjCgSqmg82qFp1Tkz7Rej+Dq23hjXq2NdBDstUGNjmJBAII9lkhWOw8k62r4ca2DLiy5DntSBq4qpYSfuhDjak84aHua4KotUvZ2YlwVFmf2Z9BOS3D17bgIc0KMq+2kTKVRQbBXgg+N+4gABHsfoz56zkjWo5hULRFL1sKLiKrn1XR7cBWCvWkO2vYPrtoiZW+HedUeKxdLcFUzr1L+9dzEuOrZf5ubQbC3OToYWysRgGBvZVhqHxSStTzkYskagr0QnN5zleMD3XGvsIlxtcIYYmzae64GCKooV4WfVAlwurW5BFc1gr1CBES5WmEcbWwKwd7GqGBMrUYAgr3V4altcEjW8lCLJmssLLMA9Z6rnGCvcBeIgBXlahYp7PSeqwEoIMpVzKtZhMBVCPaMDDXsQLDXADK6iAsBCPa44ul7NkjWvsjp22FhqcemSk3vuQrBXoU+tbbtPVcDoI15NQCoeJmn+PfXKUqiXA0T9sa8QrA3Bj067ioCEOxdjZzsuLGwlMWTvIkma9wJygLUe65CsGdcaPtO77kaIEDB59WKT6sEOOVaXPaeq5hXa+FZ2gkEe4oE/gMBSwQg2C2Bitys98k6QHyDLywDjLkLLnvP1QAXb0S52gUS1TTG3nM1AM6iXA0g0gKcci0ue8/VAFwQ5WotLKivEwj2+rBGT5EgAMEeSSArnkbvk3VF/Ljmosk6wGKCG3MXynrPVQj2LtA0GWPvuRogUphXA4CKR+L5n8qkvFthE+VqhXG0sSkEexujgjG1GgEI9laHp7bBYWEpD7VosoZgzwLUa65yPCABX3ET5WrFscTUvNdcDRRIca4GuAAW6NSDuu09VwPwQJyrQRlQr3MI9nrxRm8RIADBHkEQBU6h98laAMNhF+LJOsCCYnjMXTjuNVc5wV7xLhDFXJyrXSBSDWPsNVcD4SvOVcyrSaR6z9UAPBDnaqDPVBNuIdibQB19dhoBCPZOh09s8L1P1mJIDhyJJ+sAC4rBaLuz12uuQrB3h6h4zDhIrDCvBoFVYV6dpfhYPC6EhiHamFcI9qDwttv5pZdeqnbZZRe17rrrqo033lh9+ctfVg8++GCQQZ9yyinqhBNOUJdddlmp/zfeeEOddtpp6tOf/rRaa6211Ec+8hF12GGHqaeffrq0bR0GEOx1oNz+PnqdrAOFBwvLMMD2mqsQ7GFIFchrr7kaCFPxeTXQZyrQ6Qdz22uuBuKAOFeDRb9+xxDs9WPeeI9PPPGEWn311VUqPIf/H3jggaJj/Nn/Z+88wC6pyfZP2YWllwUEFxBYkCICAkqXakFAAUXqfvuJiFIUFfAvTUQUK9WCIAiIAsrCUhRBKaJ06UWQIh2kKr2T/3cPZHbOOcnMnDPpuXNd7/WeM8mk/J77JHkmmZkjjyzLmjRpUm3eV111lZhvvvnK9NW6TT/99OLYY4+tPd9FpKzTgQauJrqoLztAO5SzHqztIDW/zVi1wh7J79Yk4qy1qtKAAbjsVw1AVGSRtVYVPEwcMq5VS86aiba6zCNrrVrSgHGtuhSE5bLosFsGHFr2L7/8slhggQUKh3iOOeYQhx9+uLj66qvFlClTxCqrrFI6yt/73veMVP2NN94Q48aNK/Otc9jvueceMeOMMxZpF1544WKV/YYbbhAnnHCCwHfpKJ933nlG6jZqJrIedNhHJZjGeVkP1pZMaHywtjSpsNR8a9lmrVU67NZ0ZSPjrLVqA6iN5y2o+lX8zjILWWtV1a9CFx2D8TlAx/qEdDod9pCs4aAu22+/feH4zjbbbOKxxx4bKHHjjTcu4rGa/eyzzw7ED3vggAMOKB1tOLp1Drtc9V9mmWXEq6++2lPUK6+8IhZbbLEir/Hjx/fEuf5Ch9018TDLy3qwtmQS44O1amJpYFJhqfnWss1Wqyr7G3IsjGvVmvXjyjhbrVo0kxWtqhw2i20IMeustWrJ/la0GqJ4RqgTHfYRoMV6ylNPPVU6z6eddpqyGU8++WSZZt9991WmaXsQFwTGjBkjZp99drHkkksW+eoc9ssvv7ws9x//+IeyCGyXl87yueeeq0zj4qCsA1fYXdAOt4ysB2tLZrEyWFuaWFhCYCXbbLWqctgNXbCxolUr1o8r02y1atFMVrTKfjXvh85Zsr8VrVr8bbnMmg67S9qeyzrqqKMKh3fmmWeurcn6669fpFt88cVr0zVFrr322kU+xxxzjHjve99bfNY57Ntss00Rv/TSS9dmK7fzb7nllrXpbEbSYbdJN568ObE0bysrg7WliYX51tvLMVut0mG3JypLOWerVUs8kS37VTtws9Uq+1U7gmrIdevJW4otN1tRTCc994b0jI6YgLxHfd11161txU9+8pPCeYZj+vrrr9em1UUed9xxRR7LL798kWTZZZetddjnmmuuIn6fffbRZVkcl4793HPPXZvOZiQddpt048k728Haook4sbQDN1utcmJpR1AWc81WqxaZWulXLf62LKIwmnW2WrVoeytaNWp1f5nRYffH3nnJ2JoOZ/OQQw6pLfvmm28u0iHtAw88UJtWFYmt91jFx/k33XRTkaTOYceD8KQT/Je//EWVZXkMq/VIi3vs8UA7H0HWlVvifdAPp8xsB2uLJrAyWKtW2DHhyChkq1WV7Q3Z3YpWDdUt5myy1apFo1nRqkWnzSIKo1lnq1WLtreiVaNW95cZHXZ/7J2WjIe2SUfz7LPPri27eh97kwOtymjVVVctyqreA1/nsN9+++1l3R588EFVluWxiy++uEyLeqoCHGnZVpv/bTvscjDo+v/GG28Ul156afHXNS+e/6/yvjXJFHzJZRqXLixsaPU/e+whRJ/jhmNd6hnbublqtd/u+G7Kdja0aqpuMeeTq1Zt2syGVlX9qsnfl00epvLOVaux9asqPyHGY3TYY7TaCHWuPnDu+uuvr80BT2iXju7UqVNr0/ZH4h3uOBdPeq+GOocdnZ4s74UXXqieNvC56tzff//9A/E4QIe913myMVibGvBizifXwdqmzWxoVTWxpMPe20fYtKmvvG3b3YZWfbEKqVz2q+Z/m7a0atNxC0mTurrkqlWbdrehVaWjEOFBOuwRGm2UKj/88MOlU3zbbbfVZoGt5tKBPumkk2rTViPPP//84rwZZphB3HvvvdUoUeew//73vy/Lw06AunDfffeVaeG86wKcdlt/ko3tFXZsDTLxh8EGnSD+TOTHPN6yi2QKTZJJ2FpVTTByslmWWlXsrPi/QcHYb5X9qpnffP/vMEutGhrr+1nK77a0yn71rXlVVnMAVb863XRB96s6PyG243TYY7PYiPW96667SkcXnXddqDrsJ554Yl3SMu6RRx4ReLc7nNlf/epX5XH5oc5h//Wvf13Wrekhd1hVlw6z7vVvskxb/2X5th12U/XHoA2bN9ndVHm55COZgi+DGQLWtNq3Jb6YaJqpchS5ZKlVi/dZwujWtBqFouxVMkut2sNZ5GxNq+xXi3lVVnMA9quWf6367Omw69kEH4N70VdffXWxxhprKP/233//sg24N1w6mk0r7K+99lqZts2WeKRfbLHFinN22GGHsszqhzqH/ZxzzinLwwPo6kL1wkPT/e51+XSJkxzpsHehGP+5nFiatyEnluaZIscstapyJjDZNBSsadVQ/WLNJkutWjaWNa1adt4sY+mcfZZatWxza1rtbG3/GdBh92+DkWtwxhlnlI6udCKr/6vvPK8+SO6KK66oLfO5554r873qqqtq0yJSvrd95ZVX1qatc9gvueSSsrxnn31WmwcirrnmmjLtM888U5vWVqRkTIfdFuE48s1ysLZsGmuDtWXnzTKWztlnqVWVzTuTnJaBNa1OKyLLT1lq1bKlrWnVsvNmGUvn7LPUqmWbW9NqZ2v7z4AOu38bjFwDrEZjlVn399hjj5V5V7e5n3DCCeVx1Ye77767dIp1T2KX5+23335l2u22207stttuyr/55puvSLfiiiuW8XfccUeRTXWbe9196Uh86qmnFvmMHTtWVsH5fzrszpEHWWCWg7VlS1gbrC1PMixj6Zx9llqlw95ZNz4yyFKrlkFb61dRb8u/M8toOmWfpVYt29uqVjtZ2//JdNj928BZDcaPH184uzvuuGNtmSeffHKRbsYZZ6xNh8gtttiiSCud2GH+X3bZZUX+uG8d71XHub/85S9ry9x5552LdNiC7yvINnKF3ZcFwig3y8HaMnprgzUd9rzutXRgb2tatfwbCz179qvmLWRVq5YdOPM0zOWYpVYt29uqVs2Z3ktOdNi9YPdT6Kc+9anC2V1kkUVqK7DVVlsV6dZbb73adIjEffJYWa/723bbbcU888xT5Ln00ksXaXGs+nq5iRMnFvGbbrppbZlLLbVUke7rX/96bTqbkXTYbdKNJ+8sB2vL5rE6WFueaFhG0yn77LRKh72TXnyenJ1WHcBmv2oHcnZaZb9qR0gtc6XD3hJUCskuvPDCwtmFw6l7wjq22eO1bEhz5plnGmt23T3sKOTggw8uykTZunex33nnnWX90VH6CnTYfZEPq9zsBmsH+DmxtAM5O61yYmlHSA5yzU6rDpg671fx+8sgZKdV9qteVU2H3St+94UvvPDChdO7/PLLizfffHOgApMnTy7iJ0yYMBCHAzfffLPAk9qHDU0O+0svvSTGjBlTlL311lsrs19llVWK+I022kgZ7+ogHXZXpMMuJ7vB2oE5nE8sHbQphCKy06pqN4VhJ8KqVkMQjac6ZKdVB5ytatWBE+cA0UhFZKdVB7a2qtWRrBzOSXTYw7GFk5pUn8i+wgorCHzHO9SvvvpqseWWWxYOMRzSK6+8cqA+8oFvuviBEyoHmhx2JD3yyCPL8j/84Q+L6667TuDBeRdddJF4//vfX8SNGzdOPP7445Wc3X+kw+6eeYglZjdYOzCC1cHawWTDAaKRishOqyqHfSRy+pOsalVfbPIx2WnVgUWtapX9qgDfLIKqX4X9DQarWjVYTx9Z0WH3Qd1zmT//+c/Lh7xJ51P+x4PmTjvtNGUN8QR4me7www9XptEdbOOw49yvfvWrZRmyLPl/7rnnFtdee62uCGfHZX340DlnyIMsiBNL82axOlhzYpn3xNKwXK1q1XBdY8qO/ap5a1nXqsqRM9+M4HLMTqsO7Gxdq8GpqH2F6LC3Z5VUStwPvtNOO4kll1xS4JVreBjc3nvvLR599FFtOx9++GHx0Y9+VODhdbr7zHUn4x71L37xi+Loo4/WJSmPY3Ufq/14Ejzqhu373//+9wW2zYcQ6LCHYAX/dchusHaA3OpgrXLYMQHJIGSlVZWdDa8CQTJWtZqBJnVNzEqrOgiGj1vXqgNHzjASI9llp1UHdrauVSOW95MJHXY/3FlqxATosEdsPINVz26wNshOl5X1wdrBhEPXNp/Hs9IqHXafUutcdlZa7UyrXQbsV9txGjZVVlplvzqsPIynp8NuHCkzTJ0AHfbULdyufVkN1u2QdE7FiWVnhMoMstIqJ5ZKDcRyMCutOjKKl37Vwq4WR7haF5OVVtmvttaFrYR02G2RZb7JEqDDnqxph2pYVoP1UGRGT8yJ5ejs6s7MSquOdlFY12qdQROOy0qrjuxoXauOnDlHuFoXk5VWHdnYulZbWze8hHDYt/6fLcR0EydOFPhjIAESqCdAh72eTy6xWQ3WjoxqfbB2NOlwhKt1MVlplQ57a12EmDArrToyAPtVO6Cz0qqqX8V4ajhY16rh+rrMrnDYJ29Jh90ldJYVNwE67HHbz1TtsxqsTUFryMf6YE2HvcECkUer7IuJpoVgXasW6hxDluxXzVvJiVZVDp35pgSVY1ZadWRfJ1oNSkXtK0OHvT0rpiSBggAddgoBBLIarB2Z3Mlg7Wji4QhZq2Ky0arKYbewCgToTrTayrppJcpGqw7N5kSr7FcdWtRDUY7s60SrHvCZKFLuhOeWeBM0mUcWBOiwZ2HmxkZyYtmIaOgETgZrRxOPoRtv8YRstEqH3aKK3GSdjVbd4CxKYb9qB3Y2WmW/akdAQ+ZKh31IYExOAnTYqQEQyGawdmhuTiztwM5Gq6qLMVxhtyMqS7lmo1VL/FTZOulXHTp1qjb6OJaNVh3a1olWfYjFQJl02A1AZBZ5EaDDnpe9da3NZrDWAbBw3Mlg7dCps4BopCyz0arKtiMRaz7JiVabq5Fcimy06tByTrTq0KlziK62qGy06tC2TrRaa9VwI+mwh2sb1ixQAnTYAzWM42plM1g75OpksHY4+XCIrraobLRKh71WBzFEZqNVh8bw1q/i95hwyEar7FeDUDEd9iDMwErERIAOe0zWslfXbAZrewgHcubEcgCJkQNZaNXxhRgnWjVi/bgyyUKrjk3iTKsOHTvHCJXFZaNVh3Z1plWlRcM+SIc9bPuwdgESoMMeoFE8VCmbwdohW2eDtcMJiEN82qKy0Coddq39Y4rIQquODcJ+1Q7wLLSq6lcxfloKzrRqqf42s6XDbpMu806SAB32JM06dKOyGKyHptLtBGeDNR32boYK8WzVxBLHLAVnWrVU/1CzZb9q3jLOtMp+1bzxfOfIftW3Bcry6bCXKPiBBNoRoMPejlPqqTixNG9hTizNM0WOWWjVsbPgTKt2JBFsrllo1TF9Z1p17Nw5xjhQXBZadWxTZ1odsGb4B+iwh28j1jAwAnTYAzOIp+pkMVg7ZutssHY8CXGMcaC4LLRKh33A7jEeyEKrjg3DftUO8Cy06nisdKZVO5Kwmisddqt4mXmKBOiwp2jV4duUxWA9PJZOZzgbrB1PQjpBMXBy8lpV2RMOvMXgTKsW2xBi1slr1QN0p1p1fOHMA86yyCy06tieTrVaWjKOD3TY47ATaxkQATrsARnDY1WyGKwd83U6WDueiDhG2VNc8lpVOew4ZjE4YzCiDgAAIABJREFU1arFdoSWdfJa9QDcqVbZr3qwsMUiHdvTqVYtYrORNR12G1SZZ9IE6LAnbd7WjePEsjWq1gmdDtaOJyKtIVhImLxW6bBbUI2fLJPXqges7FftQE9eq+xX7QhnxFzpsI8IjqflS4AOe762r7Y8+cG62lhHnzmxtAM6ea1yYmlHOB5yTV6rHpg67Vc9/BY9IC2KTF6rHmzpVKu+hDNiuXTYRwTH0/IlQIc9X9tXW578YF1trKPPTgdr1Qo7JigJhuS1qrKlZTs61arltoSUffJa9QDbqVY9OHkekBZFJq9VD7Z0qlVfwhmxXDrsI4LjafkSoMOer+2rLU9+sK421tFnp4O1h8mII4wDxSSvVTrsAzaP9UDyWvVgGO/9Kn6fCYbktarqVy1f1Haq1cg0SYc9MoOxuv4J0GH3b4MQapD8YO0BstPBmg67BwtbKNKTHZ1q1QK2ULNkv2reMs61qnL0zDfLe47Ja9WDHZ1r1buK2leADnt7VkxJAgUBOuwUAggkP1h7MLPzwdrDhMQD1rS1Sofdh6Sslcl+1Txa9qvmmSLHpLWq6lcxXloOzrVquT0ms6fDbpIm88qCAB32LMzc2MikB+vG1ttJ4HywpsNux5Auc1VNLHHMcnCuVcvtCSV79qvmLeFcq6p+1cFv0jy5+hyT1ir71Xrje4ilw+4BOouMmwAd9rjtZ6r2SQ/WpiANmU8QE8sh6xxD8qS16sk5cK7VGIRmoI5Ja9UAn1GycK5VT87eKGy6nJO0Vj3Z0LlWuwjA8bl02B0DZ3HxE6DDHr8NTbQg6cHaBKAR8nA+WHualIyAptMpSWtV5bB3otXuZOdabVet6FMlrVVP1nGuVfarnixtsFhVvwq7Wg7OtWq5PSazp8NukibzyoIAHfYszNzYSE4sGxENncD5YM2J5dA2CuoElf0w0XQQnGvVQZtCKIL9qnkreNGqyuEz3zSvOSatVU/286JVrypqXzgd9vasmJIECgJ02CkEEEh6sPZkYueDtUeHzyXiZLWqsh+OOQjOteqgTSEUkaxWPcL1olVPDp9LzElr1ZP9vGjVpWg6lEWHvQM8nponATrsedq9v9VJD9b9jXX03ctg7Wli4ghpUUyyWqXD7lJGTspKVqtO6KkLYb+q5tL1aLJaZb/aVRpWzqfDbgUrM02ZAB32lK3bvm3JDtbtERhPyYmlcaRFhslqlRNLO4LxmGuyWvXI1Eu/6vG36Qp1slr1aDsvWnUlmI7l0GHvCJCn50eADnt+Nle1ONnBWtVYR8e8DNaqFXZMWBIKyWpVZTtHdvOiVUdt81lMslr1CNWLVj06fa5QJ6tVj7bzolVXgulYDh32jgB5en4E6LDnZ3NVi5MdrFWNdXTMy2DtcXLiCGu6z1ugw+5KQs7KYb9qHnUw/Sp+rwmFZLXKfjVIldJhD9IsrFTIBOiwh2wdd3VLdrB2h3CgJE4sB5AYOZCkVj1faPGiVSNqCDuTJLXqGbk3rXp0/FwgT1arHu3mTasuBNOxDDrsHQHy9PwI0GHPz+aqFic7WKsa6+iYt8Ha4wTFBdoktUqH3YV0nJeRpFadU+wtkP1qLw9T35LUKvtVU/Iwnk/psK+00koCfwwkQAL1BOiw1/PJJTbJwdqz8TixtGOAJLXKiaUdsXjONUmtemYaVL+K320iIUmtsl8NVp3ST59Ofgi2pqwYCQRCgA57IIbwXI0kB2vPTIOaWHpmYbL4JLWq2hXh0BnwplWTwggwryS16pmzN616dv5sY09Sq55t5k2rtsViIH/pp9NhNwCTWeRBgA57HnZuamWSg3VToy3HexusPU9SLGNN86FzKofdNshK/t60WqlDih/Zr5q3qjetqvpV/G4TCUlqVdWvwo6OgjetOmpfl2LosHehx3OzJECHPUuzDzQ6ycF6oJVuD3gbrFUTS4eTFNuUk9Oqyl6OHQFvWrUtFs/5J6dVzzxRvFetqhzAAJiYqEKSWvVsL69aNSEKi3nQYbcIl1mnSYAOe5p2HbZVSQ7Ww0IwnN7rYO15omIYZU92yWlV5bA7vsDiVas91k3rS3JaDcA8XrXKfjUABbSsgqpfhf0cBq9addjOUYqiwz4KNZ6TNQE67Fmbv2w8J5YlCmMfvA7WnFgas6P1jFQTSzrs1rG7KID9qnnK7FfNM0WOyWmV/aodoRjKlQ67IZDMJh8CdNjzsXVdS5MbrOsa6yiOE0s7oJPTquriCh12O+JxnGtyWnXMT1Wc1341ACdQxcTEseS0GoCtvGrVhCgs5kGH3SJcZp0mATrsadp12FYlN1gPC8BCeq+DdQCTFQtIiyyT06rKYbcFT5OvV61q6pTC4eS0GoBRvGqV/WoACmhZBVW/Cvs5DF616rCdoxRFh30UajwnawJ02LM2f9l4TixLFMY+eB2sObE0ZkerGanshImm4+BVq47b6rI49qvmaXvXqsoRNN9M5zkmp9UA7ORdq85V1L5AOuztWTElCRQE6LBTCCCQ3GAdgFm9D9YBTFhsmCEpraocdserQLCRd63aEEoAeSal1QB4BqFV9quBKKGhGgHYif2q3kZ02PVsGEMCSgJ02JVYsjvIiaV5k3sfrAOYsJinmtjFJTrsNiQSTJ7sV82bgv2qeabIMSmtsl+1IxKDudJhNwiTWeVBgA57HnZuamVSg3VTYx3Fc2JpB3RSWlVdVOEKux3heMg1Ka164KcqMsh+1cNvVsWmy7GktEqHvYsUnJxLh90JZhaSEgE67ClZc/S2JDVYj47B6JneJ5aBTFqMQk1tJUjlsJsG1iI/71ptUccYk7BfNW8171plv2reqKZzDMRG3rVqmqvB/OiwG4QZW1bXXXed+NrXviY233xzsc0224jvfve74oknnjDWjCeffFL8+Mc/FjvuuKP40Ic+JCZNmiQOOeQQcddddzWWceGFF4ovfelLYuONNxaTJ08Wxx57rHjxxRcbz3ORgA67C8rhl8GJpXkbeR+sA5m0mCabjFZV9oED7yF416qHNrsoMhmtuoDVsgzvWg3od9sSWatkSWmVF0Jb2dxnIjrsPul7KvvZZ58V6623npCOZ/X/9NNPLw4//PBONXvjjTfE5z//eWX+KGvixIna/O+++26x5JJLKs+dZZZZxDnnnKM911WE5HUgBqEIgvfBOgJGo1QxqcF6FAAWzvGuVU4sLVjVYJYq+3jqh71r1SDWkLJiv2reGkFoNRCH0CTdpLQaiH2C0KpJkRjMiw67QZgxZAVnGg4znM4xY8aIvfbaS0ydOlUcccQRYtFFFy0d5eOOO26k5rz22mti2WWXLfPZcMMNxdFHHy3OPffc4kIAVvPXWGMNZd6PP/64gFOOus0xxxziO9/5jjjvvPPEt7/9bTHnnHOWeV555ZXK810dpMPuinTY5SQ1WAeCOojBOpCJi0mTJKNVOuwmZRFkXsloNSC67FftGCMZrbJftSMQw7nSYTcMNPTsdtlll8LxHTt2rLjzzjt7qgtnfs011yzi4cy//PLLPfFtvqyzzjrF+XPNNZe44oorlKe89NJLyuPvf//7i3MXXnhh8cwzz/SkwYCzwAILFPETJkzoiXP9hQ67a+JhlpfMYB0QXk4s7RgjGa1yYmlHIAHlmoxWA2IabL/qaXeMKdMko1X2q6YkYTUfOuxW8YaVObbCY8s7HM5jjjlGWbkHH3ywiEeagw8+WJlGd/CUU04pzkUZt99+uy6Z8vj1119flnvNNdco0/z5z38u0+Czr0CH3Rf5sMpNZrAOCCsnlnaMkYxWA9r9EIRW7cjFa67JaNUrxd7Cg9BqQE5hL53RvyWj1YBsE4RWR5eE1TPpsFvFG1bm2OYOZxOr51hN14XVV1+9SLfMMsvokiiPzz333MV5o9zb/ZnPfKY4913vepcyb3lwnnnmKdJtv/328pDz/3TYnSMPssBkBuuA6AYxWAc0eTFlmmS0SofdlCSCzScZrQZEONh+Fb/niEMyWlX1qxgHPYQgtOqh3W2KpMPehlIiadZaa63C2cW297pw6KGHFungmNY59tU88MR5pMfqum7LezV9/+fx48cX5++55579UT3fcQ88yplvvvl6jrv8QofdJe1wy0pmsA4IcRCDtcph58TSv0pUdvE0qQSMILTq3yrGa8B+1TjScLSqcgzNN9dZjsloNSC7sF/Vy5cOu55NcjG4rxzO5kEHHVTbNul8I+3DDz9cm1ZG4tVrSL/qqqvKQ63/v/LKK8W5OB+vc6sLP/3pT4u0M8wwg3jzzTfrklqLQz3xN8pOAmuVqsmYHWANnA5RyQzWHRiYPjUYrQY0gTHBOAmt0mE3IYXg80hCq4FRZr9qxyBJaFXVr2L88xSC0aqn9tcVS4e9jk5CcXh6u3Q0zzzzzNqW4WntMu1f//rX2rQyElvZcc7+++8vD4nLL79cHH/88cW72PG0d93KO97LLsu77777yvNVH/70pz+VaZ9++mlVksKRlvnZ/G/bYZeDQdf/N954o7j00kuLv6558fx/CclAMgVfeYz/p/EZhUUoWhUKh32U9oRyTgpa/c8ee4h+u+CYL8ahaNVX+22Vm4JWbbEZNd9QtNr/+8V3n7/hUXnK81LQag79qtJRiPAgHfYIjTZKleHcSucVK+h1obrifdZZZ9UlLeKw0i0fZjdlypTCMZx33nnL8mS5M844ozjggAMG8sNFAZnm+eefH4ivHvjHP/5Rpn3ggQeqUeVnONIyP5v/6bB3c87koBfr/xQG69DYc2Jp5zeVglZVk32f+g1Fqz4Z2Cg7Ba3a4NIlz1C0Gppz2IUpzk1Bq6HZxIZWS+cg8g902CM3YNvqP/LII6UTe9ttt9WehvvWpaN78skn16ZF5Isvvlim33fffQW2q8OBh7h23HFHsfbaa5fvV0e+2D5fDVh9l+XhYkFdwAq8THvHHXdok8KZtvUny7ftsGNrkIk/DCzoBPFnIj/m8ZZdJFNokkwS06piNff/OpRo7ZyCVlUOu8/fHftVM7/5fhumoNX+Nvn+HoxWVf0qVtkNzXVc55OCVlX9qs+xzoZWtY5CZBF02CMz2KjVvfvuu0tH95577qnNpuqwn3DCCbVpEfnkk0+Wec8888xi8cUXF7feemvPeehIP/jBD5bp/va3v5Xx8nVwcIRff/318rjqw/3331/m0XThQXW+iWOuHHYTdUUeYI9OEH8M5ghIpuDLYIZAMFpV3deHY5GG6LUaoD2C0WqkmtRVO3qt6hrm8XhQWlXcbuQRTaeik9BqYPYISqud1GH+ZDrs5pk6y/Giiy4Sn/zkJ8WnPvUp5d9hhx1W1gXbx6WjiW3ldWGY+92RDx5MJ/PGf9196M8991yx+o40WHWX4eyzzy7Pb1phr97vrtsSL/O19V+21fYKu6n6swM0RbI3nyQG694mef8WlFYDm8h0MU70WqXD3sX8UZ0bvVYDpM1+1Y5Roteqql/FuOcxBKVVjxxURdNhV1GJ5NgZZ5xROrrSiaz+nzRpUtmSJ554okx7zTXXlMdVH3AfucznsssuUyXpOVbN+yMf+UhPXP+XnXbaqcgb74KX4eKLLy7Lg1NfF6699toyLX7YPoJkQ4fdB/1wyox+sA4HZVmToAZrOuylXbx/UE0sccxjCEqrHjmYLpr9qmmige2yU/Wrnn/LoxKPXqvsV0c1vZfz6LB7wW6mUDxI7vrrr9f+VVfSq6vmTfel33vvvaVT/NhjjzVWFk62dGJ/8IMf1KY/+uijy7Qvv/xykRZb9OX5d955Z+35p59+epG26vDXnmAhUtaVDrsFuBFlGf1gHSDroJwg1cQyQGZtqhS9VgO0RVBabSOCSNJEr9UAOQel1QCdxFFNFr1WA7RFUFodVRiWzqPDbglsiNnOPffchbO7yy671Fbvd7/7XZFumHedjxs3rjhH9RT4amF4pZx0eOVr3l599dXy2G9+85tq8oHPX/ziF4u0Cy+88ECcqwOy/nTYXREPs5zoB+sAsQY1WAc4mRnVZNFrlQ77qKaP7rzotRog8eD7Vfy+IwzRa5X9alSqo8Melbm6VXbTTTctnN0llliiNqMddtihSLf66qvXpqtGrrbaasU5TVviv/nNbxbp+lfIF1lkkeI47smvC8stt1yRbg88bdRToMPuCXxgxUY/WAfGE9UJfmIJJz7CELVWA71wEpRWI9SkrspRa1XXKM/Hg9NqgI7iKCaKXqsB2iE4rY4iDEvnlA77iiuuKPDHkC6Bc889t3B24XBi27sq4CntY8eOLdI1bZ2vnn/iiScW5+B1bv/973+rUT2fV1hhhSLdOuus03Mcr4NDvVA2VtxV4cEHHyzSIF11u78qrc1jdNht0o0n7+gH6wBRBzdYBzihGcVsUWuVDvsoJo/2nKi1Gih19qt2DBO1Vtmv2hGFxVylnz6d/GCxLGYdAIHx48cXTu9aa62lrM1XvvKVIh7pVOGhhx4qXuPWHwdHf9ZZZy3OxVPrVeG3v/1t6XBXX+uGtHDy4ezDGdZt2d9ggw2KeKzm+wx02H3SD6fsqAfrcDD21IQTyx4cxr5ErVVOLI3pIIaMotZqoICj6FfxO48sRK1V9quRqU0Ui+rw1aebOHGiwB9D2gSmTJlSOs0bbbSRuP3228WLL75YvIpN3h8Oh/QPf/jDAIhzzjmnOBeO9U033TQQf9JJJ5V5r7feegJO+TPPPCPuuOMOsc8++5RxW2211cC5OLD//vuXaSZPniywoo4H0+F965tttlkRh/vq8U55n4EOu0/64ZQd9WAdDsaemnBi2YPD2JeotRroLofgtGpMLX4zilqrftFpSw9Oq4E6i1qAmoiotRqoDYLTqsb2Pg5LP50Ouw/6nso86KCDSscYzqdc2ZaO6JFHHqms2W677VaeV33HezXxwQcfXKaR+VX/b7755tXkA5+32267nvPhoMvzZ5ppJnH++ecPnOP6gKwPHzrnmnxY5UU9WIeFsqxNcIN1oJOaEljLD1FrlQ57SyunkSxqrQZqgij6VfzOIwtRa5X9amRqE8WiOpx2OuzRma5bhS+//HLx0Y9+VMwzzzwCjvB8880nttlmm2I1W5czXr+Ghx5gOz0GAF247rrrxBZbbFHmPddccwms5rd1tqdOnSrwwLs555xTzDzzzOId73iHwOr/448/rivS6XE67E5xB1tY1IN1oFQ5sbRjmGi1GvAFk+C0akc6znONVqvOSbUvMEitBuowtqcqRNRaDZR/kFodRhQW03KF3SLcWLLG/ee2Qte8u55vo1102G1QjS/PqAfrQHEHOVgHOrEZxoTRapUO+zBmTiJttFoNmD77VTvGiVar7FftCMJyrnTYLQNm9ukRoMOenk1HaVG0g/UojXV0DieWdkBHq1VOLO0IIuBco9VqwEyj6Vfxe48oRKtV9qsRqWxaVemwT2PBTyTQigAd9laYkk8U7WAdsGU4sbRjnGi1GvDuhiC1akc+TnONVqtOKQ1XWJBaDdhpbEs3Wq0GzD5IrbYVhOV0dNgtA2b26RGgw56eTUdpUbSD9SiNdXROkIN1wJObtmaJVqt02NuaOJl00Wo1YAsE2a+CV8C/7zbmjFarAXMPVqttBGE5DR12y4CZfXoE6LCnZ9NRWhTtYD1KYx2dE+RgrXLYMeGJKESpVRV3HAskBKnVQNh0qUaUWu3SYAfnBqvVgB3HNmaJVqsBcw9Wq20EYTkNHXbLgJl9egTosKdn01FaFO1gPUpjHZ0T7GAd8ASnjWmi1Cod9jamTS5NlFoN3ArsV+0YKEqtsl+1IwYHudJhdwCZRaRFgA57WvYctTVRDtajNtbReZxY2gEdpVZVF0m4wm5HIAHlGqVWA+Knqkqw/WrgzqOKZfVYlFoNnHmwWq0a3tNnOuyewLPYeAnQYY/XdiZrHuVgbRKAhbyCHawDn+Q0mSJKraoc9qaGOowPVqsOGdgoKkqt2gBhMM9gtcp+1aCVW2al6ldhh0BCsFoNgA8d9gCMwCrERYAOe1z2slVbTizNkw12sObE0ryx63JU8cZEM6AQrFYDYjRKVdivjkKt/pygtapyIOubE0xslFoNnHfQWvWsPDrsng3A4uMjQIc9PpvZqHGUg7UNEAbzDHqwDnyiU2eG6LSqctgDWgUC66C1WieGwOOi02rgPIPXKvtVdwpS9avgH1Bgv6o3Bh12PRvGkICSAB12JZbsDnJiad7kQQ/WnFiaN7guR9XEkg67jlZSx9mvmjcn+1XzTJFjdFplv2pHCI5ypcPuCDSLSYcAHfZ0bNmlJdEN1l0a6+hcTiztgI5Oq6qLI3TY7YgjsFyj02pg/FTVCbpfjcCJVDHFsei0GgHroLWqE4Kj43TYHYFmMekQoMOeji27tCS6wbpLYx2dG/RgHcFkR2em6LSqcth1jfN0PGitemJiotjotGqi0ZbzCFqr7FctW7+SvapfBf+AQtBa9cyJDrtnA7D4+AjQYY/PZjZqzImleapBD9aqiSUmQBGEqLSq4hzYpBImD1qrEWhSV8WotKprRGDHg9eqypEMjKGqOtFpNQLOwWtVJQRHx+iwOwLNYtIhQIc9HVt2aUl0g3WXxjo6N/jBOoIJj8pUUWmVDrvKhNkci0qrkViF/aodQ0WlVVW/GuAF5+C1akdKrXKlw94KExORwDQCdNinscj5U1SDdSSGCn6wpsNuX0mqiSVX2O1zD6QE9qvmDRFlvxrgb77fMlFplf1qv/mi+06HPTqTscK+CdBh922BMMqParAOA1ljLTixbEQ0UoKotBrJRZHgtTqSUvyfFJVW/eNqVYPgtRqJM9kPOyqtRsI4eK32i8DhdzrsDmGzqDQI0GFPw45dWxHVYN21sY7OD36wjmTS02+uaLSq4hvgtk3wDV6r/SKI5Hs0Wo2EZxRajeh3XzV7VFpVXQgF98AC+1W9Qeiw69kwhgSUBOiwK7FkdzCqwToS6wQ/WHNiaVdJKr4BTioBIXit2rWUtdzZr5pHG4VWVQ6leRRGc4xKq5HwjUKrRlXUPjM67O1ZMSUJFATosFMIIBDVYB2JyaIYrCOZ+FRNHo1W6bBXzZbl52i0GpF12K/aMVY0WlX1qxjHAgxRaNUTNzrsnsCz2HgJ0GGP13Ymax7NYG2y0ZbzimKwpsNuTwUqtlxht8c7wJzZr5o3ShT9qsqpDPS3Ly0UjVYjYhuFVqUAHP+nw+4YOIuLnwAd9vhtaKIF0QzWJhrrKI8oBuuInEpptmi0qmIrGxHY/yi0GhizNtWJRqttGhNImii0qnIq0R8EHKLRqoptoBdDotCqJ03SYfcEnsXGS4AOe7y2M1nzaAZrk422nFcUg3VEkx9prii0quIa8IQ9Cq1KAUT0PwqtRsQTVY1GqxFdsAPXaLQaEddotOqhD6DD7gE6i4ybAB32uO1nqvbRDNamGuwgn2gG64gmQDBbFFpVOeyBrgKBaTRadfC7NVlEFFo12WAHeUWjVfar5tWg6lfBOdAQjVY98KPD7gE6i4ybAB32uO1nqvacWJoiOS2faAZrTiynGc3UJ9XEkg67KbrR5MN+1bypou5XA+4DotAq+1XzPyhPOdJh9wSexcZLgA57vLYzWfMoBmuTDXaQV9QTSwd8Ri0iCq1GdhEkGq2OKhpP50WhVU9sRi02Gq1G5lxGodXImEaj1VF/jB3Oo8PeAR5PzZMAHfY87d7f6igG6/5KB/49msE6sklQFFqlwx74r9NN9aLQqhsUxkqJpl9FiyPqB6LQakQ8Yf6otGrsF9ouIzrs7TgxFQmUBOiwlyiy/hDFYB2ZhaIZrFUOOyZGgYbgtariiWMBh2i0GjBDVdWC16qq0oEfi0qrETmYUWg1Ip74GUWlVce/ezrsjoGzuPgJ0GGP34YmWhDFYG2ioQ7ziGqwjmgiFLxW6bA7/JWFXVTwWg0bn7J27FeVWDofDF6r7Fc72zikDOiwh2QN1iUKAnTYozCT9UoGP1hbJ2C+AE4szTNFjsFrVXXxgyvsdsQQeK7BazVwfqrqRdWvRuRkBq/ViFhK3UalVVlpR//psDsCzWLSIUCHPR1bdmlJ8IN1l8Z5OjeqwToiJzN4rapYetJg22Kj0mrbRgWQLnitBsBo2CpEpVWVk4n+IcAQvFZV/SovhAaopHZVosPejhNTkUBJgA57iSLrD8EP1hFahxNLO0YLWqsRTdCr1olKq9WKB/45aK0Gzk5Xvei0qnI0dY3zeDx4rUbCsWrC6LRarbzlz6XDvtlmm4nNPraB5eKYPQnET4AOe/w2NNGC4AdrE410nEd0g3UkE6Kgtapy2ANfBcLPIjqtOv4tj1pc0FodtVGez4tOq+xXuyuG/Wp3hoHlQIc9MIOwOuEToMMevo1c1JATS/OUObE0zxQ5Bq1VTiztGD3SXIPWaqRMk+hXA7yIF7RW2a9G+mvVV5sOu54NY0hASYAOuxJLdgeDHqwjtQYnlnYMF7RWVatpAU7O+y0TnVb7GxDo96C1GiizpmpFp9VInM2gtRoJw37tRqfV/gZY/E6H3SJcZp0mATrsadp12FYFPVgP25hA0kc3WEcyKQpWqyp+cOAjCNFpNQKmqGKwWo2En6qaUWpVdSFP1TiPx4LWagT8VKaLUquqhlg4RofdAlRmmTYBOuxp27dt64IerNs2IrB0UQ7WEUyMgtWqymHHsQhClFqNgGuwWo2Ana6KUWqV/arOnM3HVf0qeEYQotSqI6502B2BZjHpEKDDno4tu7SEE8su9NTnRjlYc2KpNmabo6qJJR32NuSSTcN+1bxp2a+aZ4ocg9Uq+1U7BvecKx12zwZg8fERoMMen81s1DjYwdpGYx3lmczEMjCnM1itqi52BMZOJ/0otaprTEDHg9VqQIyGrUqUWo3A6QxWqxGw02k4Sq3qGmP4OB12w0CZXfoE6LCnb+M2LQx2sG5T+UDTRDlYRzA5ClKrKm6RbNvEzydKrQb6u68D4luWAAAgAElEQVRWK0itVisY4ecotRpB/xCsVlUXQiPRbZRadcSWDrsj0CwmHQJ02NOxZZeWBDtYd2mU53OjHawDnyAFqVXVhBzHIgnRajVwvkFqNXBmTdWLVqvsV5tMOxiv6ld5IXSQU4RH6LBHaDRW2S8BOux++YdSOieW5i3BiaV5psgxSK2qJpZ02O0IIKJcg9RqRPxUVWW/qqLS/ViQWmW/2t2wgeZAhz1Qw7Ba4RKgwx6ubVzWLMjB2iUAC2UlNbEMyPkMUquq1bOAmDXJO1qtNjXMc3yQWvXMpGvx0Wo1cOczSK0GzqxJy9FqtalhBuLpsBuAyCzyIkCHPS9761ob5GCtq2wkx6MdrAOfJAWnVRWviLZt4ucUrVYD7wuC02rgvNpUL1qtBt5PBKlVXght85OIMk2fw75hlI1gpUnAJQE67C5ph1tWkIN1uLha1YwTy1aYhk4UnFZVE3EciyhEq9XAGQen1cB5tale1FpVOaBtGu0gTZBaDZhXG5NErdU2DeyQptdh3+zDHbLiqSSQBwE67HnYuamVQQ7WTZUOPD7qwTrgiVJwWqXDHvgv0V/1gtOqPxTGSma/agxlT0bBaZX9ao99UvtSOuwf22wzsdlmm6TWPraHBIwToMNuHGmUGQY3WEdJsbfSnFj28jD1LTitqi5ucIXdlLmjzic4rUZN863KR92vBuyEBqfVgFm1/RlFrdW2jRwxXemwb/gxOOybjZgNT4uRwAMPPCB+/OMfi912203svffe4uSTTxYvv/xy56a8/vrr4qyzzhJ77rmn+NznPie+8Y1viBtvvHGofG+55Rbxgx/8QOy0005i//33F3/4wx/Em2++OVQethLTYbdFNq58gxus48KnrG3Ug3XAk6WgtKriBAc+shC1VgNmHZRWA+Y0TNWi1mrA/UVwWuWF0GF+FtGlLR321TbchA57dOYbrcKvvfaa2HrrrYV0PKv/Z5ppJnHqqaeOlrEQYsqUKWL8+PHKvD/xiU+Ip59+ujbvJ598Uqy++urK8xdYYAFx1VVX1Z7vIlLyOhADSQQh6sE6YL7BDdYBs2pbtai1yollOzOrOEXSl1YbGLVWqw0J7DP7VfMGiV6rKkfUPKahcwxOq4FyGgZs9FodprFDpi0d9okrrC0+vAlX2IfkF2XylVdeuXSIt912W3HUUUcVq+FzzjlneXzq1KlDt+30008vz59//vnFl7/8ZXHkkUf2XBx4xzveIbACrwrPP/+8mHfeeYs8xowZI3bddVdx7LHHii984QsC3+EoTz/99OL2229Xne7sGB12Z6iDLii4wTpoWu0qF/1gHeiEKSit0mFv92PINFVQWk3EBkn2qwFc5AtKq+xXE/m16psxzWGfOFEsu+q6+pSMSYLA1772tdLxvfLKK3va9NJLL4nll1++iB83bpzWse456e0vGBDGjh1bnLvWWmuJV199tScZVsalo7v99tv3xMkv66+/fpFmnnnmEQ899JA8XPy///77xRxzzFHEL7XUUj1xrr/IdnCF3TX5sMoLarAOC83ItUlyYjkyDXMnBqVV1UWNACbfw9KOXqvDNthR+qC06qjNtouJXquBOqNBaTVQRsNqO3qtDtvgIdL3OOz4wpAuAdyfLleqcX+4Ktxxxx2lY3344YerkiiPIa10ZP/9738r0+yzzz5FmhlmmEFgW341VMu98MILq1Hl5zPOOKMs4/LLLy+Pu/4g20mH3TX5sMoLarAOC83ItYl+sA500hSMVlV84MBHGKLXaqDMg9FqoHxGqVb0Wg203whKq7wQOspPI6pz6LBHZa5ulT3llFNKh7l/Bbya84orrlikw/+2AQ+XgyOLVXBdgJMtnd0nnniiJxkefIe4hRZaqOd4/5fZZputSPfZz362P8rZd9kGOuzOkAdZUFCDdZCEhq8UJ5bDM2tzRjBaVU28cSzCEL1WA2UejFYD5TNKtZLQqsohHQWGwXOC0aqqX+WFUIOWDiMrOuxh2MFJLTbccMPC2V111VVry/vOd75TpMP94m2fzI4nwcORnWWWWbR5X3zxxUUapOt/Gv2CCy5YxO2+++7a8xGx8cYbF+mQ3legw+6LfFjlBjNYh4WlU204seyET3tyMFpVTSzpsGvtlmNEMFpNCH6y/arnviMYrbJfTejXqm8KHXY9m+RicG84nE28Jq0uXH311aVjrdve3n/+DTfcUJ6Dz6qwww47FGne/e5390Rje7x0gv/4xz/2xPV/OeKII4q0M844Y3+Us++yrlxhd4Y8yIKCGayDpDNapZKdWI6Gw9hZwWhVtUrmedI9KuQktDpq4y2eF4xWLbbRddZJaDVApzQYrQbIZlSNJ6HVURvfcB4d9gZAqUTjyezS0cTT3OvCo48+Wqa97LLL6pL2xH3kIx8pzlt00UXFgw8+2BN3wgknlHlipb0a7r333jIOHWBdgEMv24EftirAkZZpbP637bDLwaDr/xtvvFFceumlxV/XvHj+v4RkIJmCrzzG/9P4jMIiBa3+Z489hOhzTHFsFB6mzglBqyou4GSqja7zSUGrrpm1KS8ErbapZ0xpUtFqf7/qu/8IRauhceny27ChVZWfEOMxOuwxWm2EOsO5lc7r3//+99ocXnnllTLt2WefXZu2Gont8/JJ71gBxxZ83Nu+3HLLFfnhYXO//OUvq6cUn//2t7+V5T333HMD8dUDt912W5m2/6KATEeHvddpstEBdumQUzk3lME6FZ5oRwpaDdExDUGrKi6+L2R0+e2koNUu7bd1bghatdU2X/mmotXQHNMQtKrqV31fyOiicxtalb5B7P/psMduwZb1f+SRR0pH99Zbb60964033ijT/vrXv65N2x+JDmzChAnl+fIiAf7jdW4vvPBC/ymiumref297f+Lqavw///nP/ujyO5x2W3+yTbZX2HGRxcQfOk90gvgzkR/zeMsukul9991HrtRqjwZUE0ufv5sgtKrYefB/nXQPN5+Mhi2b/aqZ8amfexBaNdSf9bfN1/dUtKrqV332IUFolf1q4xhSOgaRf6DDHrkB21b/nnvuKZ3ou+++u/a0qsOuWhHXnYxXxUlndumllxZf+tKXBO4532KLLcTMM89cxL3zne8U/ffFn3rqqeV52LpfF/A+dllG04WHuny6xMnybTvsXepYPReTBHnFs3qcn7sRkEzBl8EMgWS02rclvphoerxXOwitBsakq2KT0WpXEIbPD0KrhtvkO7tktBrYvdpBaJX9qu+fl7Py6bA7Q22+IDwc7itf+Yr276STTioLrTq6t99+e3lc9aH6EDi8+7xN+O1vf1s60occcsjAKY8//rhYaaWVijQLL7xwz3vYp06dWp6L7fh14a677irTok0+Ah12H9TDKzOIwTo8LJ1qxIllJ3zak71rVTXRxkQz4pCMVgOzgXetBsbDRHWS0qrKQTUBaYQ8gtBqQDxGQDhwSlJaHWhdtwN02Lvx83o2nGnpPKr+T5o0qawfHGaZ5rrrriuPqz68+OKLZVpscW8Txo8fX5yD167pwmOPPSZwHzvq8b3vfa9MdtFFF5XlqbbMlwmFENdff32Z9qmnnqpGOfssOXKF3RnyIAsKYrAOkszolUpqsA5oIuVdqyqH3eOOg9EVOu3MpLQ6rVneP3nXqncC5iuQlFbZr04TCPvVaSwy+ESHPWIj437u3//+9+Lcc89V/sERluHVV18tHV1sQa8LDzzwQJkW9743hSuuuKJMf9VVV9Um/9CHPlSknX/++ct0uBddOsHYul8XzjzzzCItHP+274ivy2+UOFlXOuyj0EvnHE4szduSE0vzTJGjd61yYmnHsAnm6l2rCTJNvl/1dPHPu1bZryb4a9U3iQ67nk1yMXPMMUfh7H75y1+ubds555xTpJt++ulbOcWHH3546XA/++yztXl/61vfKvOW96tXn0o/ZcqU2vP33nvv4vyFFlqoNp3NSDrsNunGk7f3wToeVK1rmtTEMqDJlHetBrQq1lqMDQmT0mpDW11Ge9eqy8Y6Kisprar6VfQvHoJ3rar6VU8XL0zhT0qrpqC8nQ8ddsNAQ84Or1mDs4kHwtWFnXbaqUiHe87bhMMOO6xIj7ybVsjxpHjp8EqHHWUsuOCCxfHtttuutkh5H/zOO+9cm85mpKw/V9htUg4/b++DdfiIhq5hUoM1J5Zv2T8gDkMLsuaEpLRa007XUexXzRNPTqsqR9U8tsYcvWqV/WqjfVJLQIc9NYvWtOf0008vneVHH31Um3KWWWYp0v385z/XpqlG/PWvfy3zPeaYY6pRA5/xwDk4vLjnvRqw6o/j48aN067qP/HEE2U5TffhV/M2/ZkOu2micebndbCOE1ljrTmxbEQ0UgKvWlVNLHEs8pCcVgOxh1etBsLAdDWS0yoddoHX2Q285o79qumfTlD50WEPyhx2K4N7vmebbbbC6d1kk02Uhckt67PPPruoroDLxM8//7zof1c68pXb7fH6tqefflom7/lffe0btrZXA171Jh3h/fbbrxpVfsbr4ZBm+eWXL4/5+CDryRV2H/TDKZMTS/O2yGJi6WFS5VWrqsm1Bwam1ZqcVk0DGjE/r1odsc6hn5acVgNxVr1qNRAGprWfnFYNAqLDbhBmDFn94he/KB1jbE/H0+PhcD/zzDPiu9/9bhl38sknDzTnkksuEWPGjBFYgcfr1aqh+i51xB977LHF9njk+/e//11stdVWZd64/xyvjusPu+66a5lmn332EfJ+eDjzcps+nGU8Kd5noMPuk344ZXsdrMPBYLQmyQ3WgUyqvGlV1X448AmE5LQaiE28aTWQ9tuoRnJaDaRf8apVXgi18VMJOk867EGbx07ldtttt9IxhvM566yzCjxgTjqi++67r7Lg6nmHHnroQBpsoa/mg/z6vy+55JLi4YcfHjhXHpBPkZfnYqVf1gt5qS4kyHNd/Zf14Qq7K+JhluN1sA4TSedaJTexBBHVxKozqeEy8KZV1cQaxxIISWo1ALt402oAbbdVhSS1yn51cGyxJSCH+SapVUP86LAbAhlbNng9Gh7gNnbs2MIhnmmmmcS6664rsIquC7fccouYMGGCgNONVW9VgDP+uc99Trzzne8sVuPhZGOb/CqrrCKOP/541SkDx372s5+JJZZYojgfzjFW7LfcckuB17+FEOiwh2AF/3XgxNK8DZIcrHOeWKraTofd/A8noRzZr5o3Zjb9quO+xZtWeSHU/I8kghzpsEdgJJtVxNZ0bD1/4403jBeD17XhnvdR88a98s8995z2IXTGK9wyQzrsLUElnszbYJ0wV04s7RjXm1ZVDrudJjrPNUmtOqc4WKA3rQ5WJZkjSWo1AKfVm1YDaLutH0eSWjUEiw67IZDMJh8CdNjzsXVdS70N1nWVijwuycFaNbmCI+sweNGqqt04lkhIUqsB2MaLVgNot80qJKtVzxcEvWnVc7upVZsE9HnTYdezYQwJKAnQYVdiye6gt8E6YdKcWNoxrhet0mG3Y8zEc/Wi1cSZsl+1Y2AvWlX1q44vANuh+VauyWrVADQ67AYgMou8CNBhz8veutZ6Gax1lUnkeLKDtWpFxOFqsxetem6z7Z9Eslq1Da4hfy9abahT7NHJalXlvKber3pus+3fQrJaNQCODrsBiMwiLwJ02POyt661nFjqyIx+PNnB2vMky7lWVe1NaBUICk9Wq6P/fI2c6VyrRmoddiZJa1V1YdCRObxoVdVehxcpbKNNWqsd4dFh7wiQp+dHgA57fjZXtdjLYK2qSELHkh6sVRMtR7ZzrlWVw57QpBJmS1qrjnSpKsa5VlWVSOxY0lrNvV9F+xMKSWu1o53osHcEyNPzI0CHPT+bq1rMiaWKSrdjSQ/WOU0sVW2lw97tx5HJ2exXzRs6u37VUV/jXKu8EGr+xxFRjnTYIzIWqxoGATrsYdjBdy2cD9a+G+ygfE4s7UB2qlXVpDKxVSBYKWmt2pFhq1ydarVVjeJPlLRWPfY3zrXKC6Hx/xg7tIAOewd4PDVPAnTY87R7f6udD9b9FUjwOyeWdozqVKuqCTSOJRaS1qpHWznVqsd2uiw6ea2qHFkHgJ1qVdWv8kKoAyuHUwQd9nBswZpEQoAOeySGslxNp4O15baEkj0nlnYs4VSrqskzHXY7hk0wV6daTZCfqklZ9qsO+hynWlU57A7aqNKTzWPJa7UDPDrsHeDx1DwJ0GHP0+79rXY6WPcXnuj35AdrT86sU62q2pigXpPXqiebOdWqpza6LjZ5raqcWQerz061qupX6bC7/il5LY8Ou1f8LDxGAnTYY7Sa+To7HazNVz/IHDmxtGMWZ1pVTZwTnFTCSslr1Y4UG3N1ptXGmqSTIAutqhxayyZ0plVVv+rggoRlfMrss9CqsuXNB+mwNzNiChLoIUCHvQdHtl+cDdYZEc5isM5tYkmHPaNfcPemsl/tzrA/h2z7Vct9jzOtqhx2y23r15Cr71lodUSYdNhHBMfT8iVAhz1f21db7mywrhaa+OcsBmuVw2558uVMqx7a5usnkYVWPcB1plUPbfNVZBZaVTm1llehnWmV/aqvn05Q5dJhD8ocrEwMBOiwx2Al+3V0Nljbb0owJXBiaccUTrTqYcJsh1a7XLPQajsURlM50arRGoefWTZaVTm2Fs3jRKvsVy1aMK6s6bDHZS/WNgACdNgDMEIAVXAyWAfQTpdV4MTSDm0nWlVNLHEs0ZCNVh3bz4lWHbfJd3HZaFXlsFvsg5xolf2q759PMOXTYQ/GFKxILATosMdiKbv1dDJY221CcLlzYmnHJE606niybIdU+1yz0Wp7JEZSOtGqkZrGk0k2WlU5t+iXLAUnWmW/asl68WVLhz0+m7HGngnQYfdsgECKdzJYB9JWV9XgxNIOaetadTxRtkNpuFyz0epwWDqntq7VzjWML4OstKpycC2ZzLpW2a9aslyc2dJhj9NurLVHAnTYPcIPqGjrg3VAbXVVFU4s7ZC2rlXVxBLHEg5ZadWhHa1r1WFbQikqK62qHHZLfZF1rbJfDeUnFEQ96LAHYQZWIiYCdNhjspa9ulofrO1VPdicObG04+Ra1apqUmlxG2oo4s1Kqw6hW9Wqw3aEVFRWWlX1R7E67A4vPoSi16y0OiR0OuxDAmNyEqDDTg2AACeW5nWQ3WCtmpCZx2pXqw4nyBbQjJxldlodmdRwJ7JfHY5Xm9TZaTXVfpUXQtvIPdk0dNiTNS0bZosAHXZbZOPKlxNL8/bixPL/HpBkYTXIqlZVk2MLbTCvtm45ZqfVbrhan21Vq61rkVbC7LTqqE+yqlVeCE3rR2igNXTYDUBkFnkRoMOel711rbU6WOsKTfx4dhNL1aTMwiqKNa06qn+Iss9Oq46MYE2rjuofYjHZadVRv2RVq44uOoSm1+y0OoQB6LAPAYtJSQAE6LBTByBgdbDOFHGWg7VqYmbY/ta0qpoY41gGIUutOrCrNa06qHuoRWSp1dT6VQsXckPUa5ZabWkIOuwtQTEZCUgCdNglibz/c2Jp3v5ZDtaqiaVhp9eaVh3U3bzKzOSYpVbNoKvNxZpWa0tNOzJLrar6JsNOrzWt8kJosSCS9q9y+NbRYR+eGc/InAAd9swF8HbzrQ3WGePNcmKpmpzFMLF0UO+QfwpZatWBQdivmoecrVZVTrtBvNa0qqq34Yu4BjEYzSpbrbagSIe9BSQmIYEqATrsVRr5frY2WOeLVGQ7WKsmaAZ1YEWrqjpnMqmEabLVqkFdqrKyolVVQRkdy1arlvsoK1rlhdDydsOMfqKtmkqHvRUmJiKBaQTosE9jkfMnK4N1zkBzdoJim1hmPqnEzzRbJ8hyH8V+1TzgbLVquZ+yolXLY4F5dZnNMVuttsBIh70FJCYhgSoBOuxVGvl+tjJY54uzaHm2g3VsE0tVfXEso5CtVi3bmP2qecBZa1XlABtCbFyrqn4V9c8oZK3VBjvTYW8AxGgS6CdAh72fSJ7fjQ/WeWLsaXXWg3VME0tVXemw92iZX0YjwH51NG51Z7FfnQ6v9+n9qwPWMs64VlUOO/vVltZIPxkd9vRtzBYaJkCH3TDQSLMzPlhHysFktTmx7JtUGlpdMapV1aTSUD1Nasl2Xllr1SJco1q1WM+Yss5eq/3OuqH+yqhWdf0qHfaYfmpW60qH3SpeZp4iATrsKVp1+DYZHayHLz7JMzixjNRhz2xSiR9f9lq11AOxXzUPNnutqhx2A32WUa2qHHYDdTSvJrs5Zq/VGrx02GvgMIoEVATosKuo5HfM6GCdHz5li7MfrFUTSwOrQca0qppUon6cWCr1zIPDEzCm1eGLTvaM7PtVXb/V0eLGtKqrH/vVjhZK63Q67GnZk61xQIAOuwPIERRhbLCOoK2uqpj9xBKgVU57RwMY06pqYpnhpBLmoFY7ilJzujGtavLP8TC1qulXO/ZdxrTKfrX8WVKrJYqBD3TYB5DwAAnUE6DDXs8nl1hjg3UuwFq0k4O1ZmLZcZXdiFZVk8pMV9chZWq1xQ96hCRGtDpCuSmfQq3+n3V1/VcHwxvTquoibceLCR2a5fVUalWPnw67ng1jSEBJgA67Ekt2B40N1tmR0zeYg/XbbFQTOD22xhgjWrUw4W2seMAJqFU7xjGiVTtVizZXavVt07FfDV7D1KreRHTY9WwYQwJKAnTYlViyO8iJpXmTc7B+m6lqYoljI4bOWtU565muAsEM1OqIYmw4rbNWG/LPMZpafdvqofWrqJaqTuxXBfoBhl4CdNh7efAbCTQSoMPeiCiLBJxYmjczJ5ZvM9U5yCMi76xVw/UZsRlBnUat2jFHZ63aqVbUuVKrb5vPcD/WWauG6xO1SN+uPLWqtyIddj0bxpCAkgAddiWW7A52HqyzI9bcYA7WFUaqlZcRV9k7aVU3qcTxjAO1asf4nbRqp0rR50qtVkwYSr+KKqn6Vvarxeo6+gGGXgJ02Ht58BsJNBKgw96IKIsEnFiaNzMnlhWmqslcKA575pNKWIlarWjV4Ef2qwZhvp0VtVphGnK/iv49876VWq1ote8jHfY+IPxKAk0E6LA3EcojnhNL83bmYN3HVLUaNMKEbmSt6ia3I9Shr2XRf6VW7ZhwZK3aqU4SuVKrfWZU9asjXAztpFVV38p+lRdC+6Ra/Tpp+63FVp/cXEwnPfdqJD+TAAkMEqDDPsgkxyOdBuscgbVoMyeWfZBUkzqXE0vVxJaTysJI1GqfVg19Zb9qCGQlG2q1AkN+NNC3jaxVXb/OvpUOu9Sn4v/kyZMF/uiwK+DwEAmoCNBhV1HJ79jIg3V+qFq3mBNLBSpfE0tOKhXGmHaIWp3GwuQn9qsmab6VF7WqYKrqV3FsiDCSVtmv1hKmVvV4Jk2iw66nwxgSUBCgw66AkuGhkQbrDDkN02QO1gpaugmeIqnu0EhaVU1ouQJUIqZWSxRGP4ykVaM1SC8zalVjU1UfN4TTPpJWdWWyby2MRK1qtCqEKHbCL7sCV9j1iBhDAr0E6LD38sj120iDda6wWrabg7UGlG6Sp0nef3horeouEnBSWaKlVksURj8MrVWjpaeZGbWqsauun9Mk7z88tFZ15bFfLdFSqyWKgQ/y1vW3tsRv9MmBBDxAAiTQS4AOey+PXL8NPVjnCmqIdnOw1sDSTfRargYNpVVdWZxU9hiHWu3BYezLUFo1VmraGVGrNfbtcDF0KK2yX60xwrQoanUai/5PvQ77ah/vj+d3EiCBPgJ02PuAZPp1qME6U0bDNpuDdQ0x3cSyhdPeWqu6SWWLMmpqnmQUtWrHrK21aqf4JHOlVhvMqupbW1ygHEqrqjJwrEU5DbVPKppa1Zuz12GfuJE+JWOSJnD//feLbbfdVrzyyitG2nnnnXeKk046SRx88MHF/3vuuWeofB999FFx6qmnim9961vi2GOPFddff/1Q59tMTIfdJt148h5qsI6nWV5rysG6Ab9u0tdwWmut6hx2TioHCFOrA0iMHGitVSOl5ZEJtdpgZ/arDYDcRVOretZ9Dvsa+pSMSZbA8ccfL8aMGSPgiL744oud2vnII4+I973vfUVe0rGV/zfccEPx7LPP1ub/8ssvi0984hPK85dZZhkxrONfW9iIkbI9B0YyiWUHOKKhG07jxLIB0AjR1GoLaCNMLltplc56C/jTklCr01iY/NRKqyYLzCAvarWFkdmvtoBkPwm1qmfc57BP1KdkTHIE/vSnP4nll1++xznu4rDDWZ955pmL/HAB4NOf/rT4+te/LjbYYIOyjEUWWUS89tprSpY4vuiii5Zp4bgfcMABYrPNNiuPzTTTTOLhhx9Wnu/qIB12V6TDLocTS/P24WDdkumQk8tGreqcdZTDoCRArSqxdD7YqNXOJeSXAbXawuYj9IGNWq3LE3EMAwSo1QEk5QE67CWKPD68/vrr4pBDDhGLL7546QS/5z3vKT93cdiXWmqpIp8lllhCPPnkkz1ATz/99LKMHXfcsSdOftl8882LNOPGjRM333yzPFz8v+GGG8TYsWOL+JVWWqknzvUXOuyuiYdZXuNgHWa1g64VB+uW5tE57BoHu1arnFS2hN6bjFrt5WHqW61WTRWSWT7UakuDs19tCcpeMmpVz3a1ZScWr3Z76ynxE7nCrkeVRsxTTz1VOs5wPPfaay9xzjnnlMdGddgvuOCCMo877rhDCWvXXXct0zz//PM9aR588MEybsqUKT1x8stxxx1XprnxxhvlYef/6bA7Rx5kgZxYmjcLB+shmA4xudRqlc76EMB7k1KrvTxMfdNq1VQBGeZDrQ5h9Lp+te+CqFar7FeHAN6blFrt5VH9NnnyJLH1pmvxPexVKCl/xsr3hAkTxC677CKwhR3hsssuKx3hUR32ddZZp8hjzTXX1OL797//XZZzyimn9KTbe++9i7h5552353j1y5tvvvx3QxcAACAASURBVFluud99992rUU4/02F3ijvYwrSDdbA1Dr9iHKyHtFHLyeWAVjGh5KRySNi9yanVXh6mvg1o1VTGGedDrQ5p/C79astzh6xRNsmpVb2pJ0+eLPDHFXY9o6Ri4PS+8cYbPW264oorSkd6FIcdec4444xFHieffHJP3v1f5p9//iLdJpts0hOFe9vhCO+88849x/u/yPvhF1544f4oZ9/psDtDHXRBnFiaNw8H6xGYNk0Qp5tO/GePPYo/0SItXzPUzgbUajtOw6Zivzosseb01Gozo4EUbfrKat9adwEUecmLpAMF8UCVALVapdH7mQ57L48sv3V12O+7777S4X/ooYdqGconwC+22GJlOtxXP/300xd5YHt+XfjhD39YpMND7XwFOuy+yIdVLieW5u3BwXoEpk0TxZYTz8KZR14MrQhQq60wDZ2I/erQyBpPoFYbEakTDNN31qVlv6rmqzhKrSqgvH3ow1tN4gq7Hk8eMV0d9rPPPrt02HVPgJck8dR4OLx4mrwMDzzwQHn+XXfdJQ8r/5977rll2meeeUaZBq9bk061zf+2X+smJy5d/+N+/0svvbT465oXz/+XkAwkU/CVx/h/Gp9RWFCro/NrtXpeM6nEKvwoNsv1HGp1dK3WaYb9qnmu1OroTNEvdulb2a8Ox96GVpWOQoQHJ66zuZjELfERWs5glbs67MOselcfHIet9AiXX3556WA3vaf9lltuKdPqVvPpsPd2kDY6wLoJVy5xnFj26syE3anV7kxHmVxyUjk8d2p1eGZt+gj2q+a5UqvdmQ7br7JPHY25Da0adJe8ZjVxtY+L7emwe7WB98K7Oux4VzpWsmedddbGtpx22mmlw/3qq68W6c8///zy2Msvv1ybBwZ8uWp+5513atPCabf1J8u3vcKOrUEm/sAMnSD+TOTHPN6yi2SKW0LIhFoNTQO1E0xs0TzwQOq2Qx/LftXMb77/d8N+1TxXatUM09o+tbp7iX3ryGOLDa1qHYXIIlbddFtuiY/MZsar29Vhl69rm2uuuRrrNnXq1NLhfumll4r0VSe+aUv9/fffX56P1XYfwZXDbqptmBChE8QfgzkCkin4MpghQK2a4diTy9sTyWJrJ++l7EHT5Qu12oWe/lz2q3o2o8ZQq6OSqz8PWi371bcvgvKhnfXMmmKpVT0hbIfnU+L1fIKOgcN62GGHaf9wb3mb0NVh/+pXv1o40bPPPntjcaeeemrpcMun1Z955pnlsVdeeaU2D9zjLh1mrGz6CLJ82yvsptrGDtAUyd58OLHs5WHiG7VqguJgHtTqIJOuR6jVrgTV51Orai5djlKrXejpz6VW9WxGjaFW9eT4lHg9m+BjzjjjjNJ5lU5k9f+kSZNataGrw37QQQcV9Rg3blxjecccc0yRdoYZZijT/vnPfy7b0fRaOWyXk2184oknyjxcfpDl02F3ST28sjhYm7cJB2vzTJEjtWqeK7Vqnim1aocptWqHK/tV81ypVT3TyZMnia0/vi7fw65HFG7MtddeK44++mjt369+9atWle/qsJ944omlEy1XzXUF77XXXkXaBRdcsExy2223leffe++95XHVB7z2DQ4zHP6mslTnmzhGh90Exfjz4GBt3oYcrM0zRY7Uqnmu1Kp5ptSqHabUqh2u7FfNc6VW9Uw/sPzSYuLEiXTY9YjSj+nqsN98882lw/3www/XAlt//fWLtBtuuGGZDveySycYr22rC/vvv3+RdoEFFqhLZjVO1pUr7FYxB585B2vzJuJgbZ4pcqRWzXOlVs0zpVbtMKVW7XBlv2qeK7WqZwpnnQ67nk8WMV0ddtx3Pv300xeO9PHHH1/LbM455yzSYWdANYwfP744/pnPfKZ6eODzBz7wgSJd2+3+AxkYOECH3QDEBLLgYG3eiByszTNFjtSqea7Uqnmm1KodptSqHa7sV81zpVb1TOmw69lkE9PVYQeo973vfYUjvfLKK2u5XXfddUUaOLxPP/10T7rPf/7zRRwcel3AO9qls3zZZZfpklk/LuvAFXbrqIMugIO1efNwsDbPFDlSq+a5UqvmmVKrdphSq3a4sl81z5Va1TOlw65nk03MMA677r7xs846q3SmL7roIiW7VVddtUiz2WabDcSj45OO8KGHHjoQjwM77rhjkWaJJZZQxrs6KOtJh90V8TDL4WBt3i4crM0zRY7Uqnmu1Kp5ptSqHabUqh2u7FfNc6VW9UzpsOvZZBPT1mG/5pprxNxzzy3wwLgHH3xwgM+KK65YONQzzTSTgAP/5ptvFmmwmr711lsXcWPGjBGPPPLIwLk4sO2225ZO+1FHHSVef/31Ih2eHL/ffvuVcZdcconyfFcH6bC7Ih12ORyszduHg7V5psiRWjXPlVo1z5RatcOUWrXDlf2qea7Uqp4pHXY9m2xi2jrsu+22W+k0/+hHPxrgA8d8/vnnL9PgvewLLbRQ8UR3OLkzzjijuOCCCwbOkwfg4Mut9UiP18RNmDBBjB07tswT7533Heiw+7ZAGOVzsDZvBw7W5pkiR2rVPFdq1TxTatUOU2rVDlf2q+a5Uqt6pnTY9Wyyibn88svFMsssI1ZaaSXxwgsvaNt91VVXCTjheEDcfffdp0yHJ75j6zqcbenY4hVsm266aTFpVJ7UdxCr6VjJl+fjgXZrrLGGQD1DCLJe3BIfgjX81YGDtXn2HKzNM0WO1Kp5rtSqeabUqh2m1KodruxXzXOlVvVM6bDr2TBGQeC1114rt7orostD2M6Ore/4e/XVV8vjw3x4/PHHxQMPPCBwESCkQIc9JGv4qwsHa/PsOVibZ4ocqVXzXKlV80ypVTtMqVU7XNmvmudKreqZ0mHXs2EMCSgJ0GFXYsnuIAdr8ybnYG2eKXKkVs1zpVbNM6VW7TClVu1wZb9qniu1qmdKh13PhjEkoCRAh12JJbuDHKzNm5yDtXmmyJFaNc+VWjXPlFq1w5RatcOV/ap5rtSqnikddj0bxpCAkgAddiWW7A5ysDZvcg7W5pkiR2rVPFdq1TxTatUOU2rVDlf2q+a5Uqt6pnTY9WwYQwJKAnTYlViyO8jB2rzJOVibZ4ocqVXzXKlV80ypVTtMqVU7XNmvmudKreqZ0mHXs2EMCSgJ0GFXYsnuIAdr8ybnYG2eKXKkVs1zpVbNM6VW7TClVu1wZb9qniu1qmdKh13PhjEkoCRAh12JJbuDHKzNm5yDtXmmyJFaNc+VWjXPlFq1w5RatcOV/ap5rtSqnikddj0bxpCAkgAddiWW7A5ysDZvcg7W5pkiR2rVPFdq1TxTatUOU2rVDlf2q+a5Uqt6pnTY9WwYQwJKAnTYlViyO8jB2rzJOVibZ4ocqVXzXKlV80ypVTtMqVU7XNmvmudKreqZ0mHXs2EMCSgJ0GFXYsnuIAdr8ybnYG2eKXKkVs1zpVbNM6VW7TClVu1wZb9qniu1qmdKh13PhjEkoCRAh12JJbuDHKzNm5yDtXmmyJFaNc+VWjXPlFq1w5RatcOV/ap5rtSqnikddj0bxpCAkgAddiWW7A5ysDZvcg7W5pkiR2rVPFdq1TxTatUOU2rVDlf2q+a5Uqt6ppO231ps9cnNxXTSc9cnZQwJkAAI0GGnDkCAg7V5HXCwNs+UWrXDlFq1w5X9qnmu1Kp5psiRWjXPlVrVM508ebLAHx12PSPGkEAPATrsPTiy/cLB2rzpOVibZ4ocqVXzXKlV80ypVTtMqVU7XNmvmudKreqZTppEh11PhzEkoCBAh10BJcNDHKzNG52DtXmmyJFaNc+VWjXPlFq1w5RatcOV/ap5rtSqnmmxE37ZFbjCrkfEGBLoJUCHvZdHrt84WJu3PAdr80yRI7Vqniu1ap4ptWqHKbVqhyv7VfNcqVU9U3nr+ltb4jf6pD4lY0iABAoCdNgpBBDgYG1eBxyszTOlVu0wpVbtcGW/ap4rtWqeKXKkVs1zpVb1THsd9tU+rk/JGBIggYIAHXYKAQQ4WJvXAQdr80ypVTtMqVU7XNmvmudKrZpnihypVfNcqVU9016HfeJG+pSMIQESKAjQYacQQICDtXkdcLA2z5RatcOUWrXDlf2qea7UqnmmyJFaNc+VWtUz7XPY19CnZAwJkEBBgA47hQACHKzN64CDtXmm1KodptSqHa7sV81zpVbNM0WO1Kp5rtSqnmmfwz5Rn5IxJEACBQE67BQCCHCwNq8DDtbmmVKrdphSq3a4sl81z5VaNc8UOVKr5rlSq3qmdNj1bBhDAkoCdNiVWLI7yMHavMk5WJtnihypVfNcqVXzTKlVO0ypVTtc2a+a50qt6pmutuxEAaf9rafET+QKux4VY0jgLQKxOey0GwmQAAmQAAmQAAmQAAmQQJwEJk+eJLbedC067HGaj7UmARIgARIgARIgARIgARIgARJIlcDkyZMF/rjCnqqF2S4SIAESIAESIAESIAESIAESIIEoCdBhj9JsrDQJkAAJkAAJkAAJkAAJkAAJkEDqBD681SSusKduZLaPBEiABEiABEiABEiABEiABEggPgIT19lcTOKW+PgMxxqTAAmQAAmQAAmQAAmQAAmQAAmkTWDiah8X29NhT9vIbB0JkAAJkAAJkAAJkAAJkAAJkEB8BFbddFtuiY/PbKwxCZAACZAACZAACZAACZAACZBA6gSwHZ5PiU/dymwfCZAACZAACZAACZAACZAACZBAdAT4lPjoTMYKkwAJkAAJkAAJkAAJkAAJkAAJ5EBg8uRJYuuPr8v3sOdgbLaRBEiABEiABEiABEiABEiABEggHgIfWH5pMXHiRDrs8ZiMNSUBEiABEiABEiABEiABEiABEsiBAJx1Ouw5WJptJAESIAESIAESIAESIAESIAESiIoAHfaozMXKkgAJkAAJkAAJkAAJkAAJkAAJ5EKADnsulmY7SYAESIAESIAESIAESIAESIAEoiJAhz0qc7GyJEACJEACJEACJEACJEACJEACuRCgw56LpdlOEiABEiABEiABEiABEiABEiCBqAjQYY/KXKwsCZAACZAACZAACZAACZAACZBALgTosOdiabaTBEiABEiABEiABEiABEiABEggKgJ02KMyFytLAiRAAiRAAiRAAiRAAiRAAiSQCwE67LlYmu0kARIgARIgARIgARIgARIgARKIigAd9qjMxcqSAAmQAAmQAAmQAAmQAAmQAAnkQoAOey6WZjtJgARIgARIgARIgARIgARIgASiIkCHPSpzsbK5EDjwwAMF/8iAGqAGqAFqgBqgBqgBaoAaGF0DKfgOdNhTsCLbkByB6aabTvCPDKgBaoAaoAaoAWqAGqAGqIHRNZCCk0CHPQUrsg3JEWDHPHrHTHZkRw1QA9QANUANUAPUADUADaQQ6LCnYEW2gQRqCGAblRy0apIxakgCkin4MpghQK2a4difC7XaT6T7d2q1O0NVDtSqikq3Y9RqN366s6lVHZnRj1OrenZ02PVsGEMCSRBgB2jHjByszXOlVs0zRY7Uqnmu1Kp5ptSqHabUqh2u7FfNc6VW9UzpsOvZMIYEkiDADtCOGTlYm+dKrZpnihypVfNcqVXzTKlVO0ypVTtc2a+a50qt6pnSYdezYQwJJEGAHaAdM3KwNs+VWjXPFDlSq+a5UqvmmVKrdphSq3a4sl81z5Va1TOlw65nwxgSSIIAO0A7ZuRgbZ4rtWqeKXKkVs1zpVbNM6VW7TClVu1wZb9qniu1qmdKh13PhjEkkAQBdoB2zMjB2jxXatU8U+RIrZrnSq2aZ0qt2mFKrdrhyn7VPFdqVc+UDrueDWNIIAkC7ADtmJGDtXmu1Kp5psiRWjXPlVo1z5RatcOUWrXDlf2qea7Uqp4pHXY9G8aQQBIE2AHaMSMHa/NcqVXzTJEjtWqeK7Vqnim1aocptWqHK/tV81ypVT1TOux6NowhgSQIsAO0Y0YO1ua5UqvmmSJHatU8V2rVPFNq1Q5TatUOV/ar5rlSq3qmdNj1bBhDAkkQYAdox4wcrM1zpVbNM0WO1Kp5rtSqeabUqh2m1KodruxXzXOlVvVM6bDr2TCGBJIgwA7Qjhk5WJvnSq2aZ4ocqVXzXKlV80ypVTtMqVU7XNmvmudKreqZ0mHXs2EMCSRBgB2gHTNysDbPlVo1zxQ5UqvmuVKr5plSq3aYUqt2uLJfNc+VWtUzpcOuZ8MYEkiCADtAO2bkYG2eK7VqnilypFbNc6VWzTOlVu0wpVbtcGW/ap4rtapnSoddz4YxJJAEAXaAdszIwdo8V2rVPFPkSK2a50qtmmdKrdphSq3a4cp+1TxXalXPlA67ng1jSCAJAuwA7ZiRg7V5rtSqeabIkVo1z5VaNc+UWrXDlFq1w5X9qnmu1KqeKR12PRvGkEASBNgB2jEjB2vzXKlV80yRI7Vqniu1ap4ptWqHKbVqhyv7VfNcqVU9UzrsejaMIYEkCLADtGNGDtbmuVKr5pkiR2rVPFdq1TxTatUOU2rVDlf2q+a5Uqt6pnTY9WwYQwJJEGAHaMeMHKzNc6VWzTNFjtSqea7Uqnmm1KodptSqHa7sV81zpVb1TOmw69kwhgSSIMAO0I4ZOVib50qtmmeKHKlV81ypVfNMqVU7TKlVO1zZr5rnSq3qmdJh17NhDAkkQYAdoB0zcrA2z5VaNc8UOVKr5rlSq+aZUqt2mFKrdriyXzXPlVrVM6XDrmfDGBJIggA7QDtm5GBtniu1ap4pcqRWzXOlVs0zpVbtMKVW7XBlv2qeK7WqZ0qHXc+GMSSQBAF2gHbMyMHaPFdq1TxT5EitmudKrZpnSq3aYUqt2uHKftU8V2pVz5QOu54NY0ggCQLsAO2YkYO1ea7UqnmmyJFaNc+VWjXPlFq1w5RatcOV/ap5rtSqnikddj0bxpBAEgTYAdoxIwdr81ypVfNMkSO1ap4rtWqeKbVqhym1aocr+1XzXKlVPVM67Ho2jCEBEiABEiABEiABEiABEiABEiABbwTosHtDz4JJgARIgARIgARIgARIgARIgARIQE+ADrueDWNIgARIgARIgARIgARIgARIgARIwBsBOuze0LNgEiABEiABEiABEiABEiABEiABEtAToMOuZ8MYEiABEiABEiABEiABEiABEiABEvBGgA67N/QsmARIgARIgARIgARIgARIgARIgAT0BOiw69kwhgRIgARIgARIgARIgARIgARIgAS8EaDD7g09CyYBEiABEiABEiABEiABEiABEiABPQE67Ho2jCEBEiABEiABEiABEiABEiABEiABbwTosHtDz4JJgARIgARIgARIgARIgARIgARIQE+ADrueDWNIIBkCb775ZjJtiakhOXN/5plnRjJVzsx0wEJgEkIddHx4nASqBKjVKg1+bkOAmmlDyU0aE7YwkYeb1rYvhQ57e1ZMSQJREXj88cfF3nvvLZZYYgkxxxxziPnnn1+ss8464uyzz46qHS4r++KLL4oDDzxQLLvssmLuuecu/t773veKww47TLQdAC655BKx2WabiYUWWkjMPvvsYuGFFxaf/exnxT333OOyKd7Keu2118TWW28t3vGOd7SuwxNPPCF22mknscgiixTMxo8fLzbccENx0UUXtcoDtjn66KPFyiuvLOadd14x11xziaWXXlr86Ec/Em+88UarPEJLdPLJJ4uNNtpILLDAAmK22WYr2rXmmmuKk046SVvVKVOmiO23336ov+22206b35133llod9FFFy3qsOCCC4pNN91UXH755dpzQo2ARtD3ffjDHxbvfve7i982dILf9yg6+de//iW+/OUvF3khH/xBv5MmTRIPPfRQLYZf//rXYo011hDzzTefmHPOOQUmYt/4xjcE+p9UwmOPPSZ22GGHQotory7ccccdAhps0u3vfvc7XRbF8UcffVR85StfEYsvvng53q233nriD3/4Q+15oUa2YbLnnnsOXf2pU6cWrJH//fff33j+OeecI9Zff/2iH8I8YrHFFit0j/lFzAH9wemnny6gkXe+851illlmKdq46qqrip/+9KfKpr3yyivihBNOKM7BvAq/XcwTPvCBD4g6jfdn9uyzzxbzDIxR6Dcw3qHcYfLoz9PH92233bbxd9v/uwY/VcDxDTbYoJinYrwDk7XXXlv85je/USVXHkt97kWHXWl2HiSBuAlgYjrTTDOJ6aabTvn3yU9+Mu4GWqj9hRdeKMaNG6fkBY5LLbWUePrpp2tL/tznPqc9f4YZZhhq8KktKNDIM888sxhowWvMmDGtannkkUeKGWecUcttiy22qM3nkUceKWyj0zom8E8++WRtHiFFPvzww4UTqGsPjsPJfO655waqfdRRR2k56vKD06gKhx9+eE9e008/fc93XAyMKWByrGOA47gYcffdd7dq0je/+c3avM4//3xlPnDIV199de25uNh0++23K8+N7SDGGMn74IMP1lYfF+Vkurr/0LYuwJkfO3asNh84FrGFurFIcpowYcLQzYIjJM+v0zscWlx4lmn7/6N+f/nLX4YuP4QT/vnPf9b2segL+gMuRMM57+dQ/Y4L/S+88EL/qT3f//rXvxYXlKrnVT/DaY0lQH/Vurf5jL6zGnDRCBc/6s7Fhfimi5k5zL3osFeVw88kkACBW2+9VcjJ9WqrrSb+/ve/C1zRxUoGVj5lx7jXXnsl0FozTbj66qtLLhiszz33XIEVG0yev/Wtb5VxyyyzjLbAffbZp0yHlbf77rtPYFv4n/70J/Gud72rjLv55pu1ecQY8frrr4szzjhDgI3UFv7DCW8K11xzTXkOzscE8Kmnniocpx133LGM23333ZVZYfVcDvZY7TjllFMK5xyre9///vfL85dbbjnl+SEe/PjHP17UGzszjjjiiFJHN954o9hmm23KNq2wwgoD1f/zn/8svva1rzX+7brrrsUFFdjpu9/97kA+Z511VlkO6nPbbbeJ559/Xlx//fXFLh1p5+OPP37g3FAPQB/vf//7C61itwt0ht/3//t//69sK1bI4ajUhc985jNl+k996lPFbgPk9e9//7vg88UvflG7qrvWWmsV5+Ji1s9+9jOBVUpcTDr22GNLe2An1KuvvlpXheDj7r333pIRtFLnsOM3izTYSVKnXfTJqnDdddeVZWFFDhrFxax//OMfAhf7pFb3339/1enBHsMFXtR9l1120XL53ve+N1T9f/KTn5Q8kHedw46LHJLdd77zHYELo7hgjYsj+C0hbuaZZy40PFQlPCe+6667ysUMXKzEhaAHHnig0Ax4YEUXq8L9AeMc2vyxj32s+H3jHOwMu+WWW8T//u//lqzWXXfd/lPL77gYKxdS3vOe94hLL720mCNgt87nP//5Mg/sTIkh4KJt3W9WxsnfIealGJur4UMf+lDRbsyRoE848P/973+L33H1oh92MehCLnMvOuw6BfA4CURKAKtvGFhUE3o06dOf/nQ5MKBjZBDFtnUwQ4eomizDEUI8/n7xi18MIINzL+Oxfb4/wNnBljukwQpbKgGTY0zaZNuxlQ1b0/G9zQo7HCSkxfZ5TIj6Q3UgVt1S8O1vf7s4HxcHHnzwwf7TxW9/+9uybnAMYgjYUv3Vr35Vu5V/3333Ldt05ZVXjtQkuXoO51AVsE0Tdtlqq61U0UXfgnhskY0l1N1egdsM0B78qX7fso3VHQzYTTJMqGoRF1H7w1VXXVXW4aCDDuqPjuo7VgklT/yvc9glU4xbowTc3oAycDFGFeQqMRxg9MMxBGy9lvyadnW1bQ/611lnnbXMF/nrHPZrr722TKfSOZxVuSgQi3MJTrjAiz4PbYcD+NJLL7XFV4xPuLCvC3BOpc1wIVoVpHOKi7Gq8Q4X+mUecOJTCUsuuWTRLtUiEeajuGiqu1BaZYKL1v0hp7kXHfZ+6/M7CURMAB2a7PCxKqYKcNJlmtgnhqr2DXsMTo/koZpIy/xwZR3pcCW4P0yePLmIw33ruiAdWeTRf5VZd07ox+XqFibD2JKGCfFxxx1XsGhy2LH7QHLX3ZeNiycyzQ9+8IMBHHICiucO6AK2KSIPbImOIWC3Ql3A1ky5+obV3GEDzpfbbVXcf/WrXxW8MCFXbbtHedglIu2iW/kctl6+08sLT7qLFJjcy9Ux1UW5pvrjOQBgVrc9W/YxuGASa/jjH/9YtHOllVYqnaM6h106OqNsBa723TrnE6ugUqs//OEPo8D6n//8p6wznHcTAbtqwAFOk+ShYyZ3gtStauJ5AcgHfZHK+TRRZ9N5YJcF6oyt7aa4yjpiF6PkqhqrsLou4y+++GJ5Ws9/9M0YN5EOz71JIcgLlbhl5eWXXx5oUtMzlXCO5AbHvj/kNPeiw95vfX4ngYgJfOELXyg6N6xc1gU88AidIFYncg9wesACE/a6UL0Y0r/qgZVl5FG3RRH3tsmBB857CuGmm24qthRWd2q0ddixIi55wPHXhXnmmadI1/+ApeptDNiSrAvHHHNMWc4wKyq6/EI4jhUasMPq4bBhv/32K87VPRRQ3mONh7PVBblSteWWW9YliyZO3raCFR9VkLfG1F2UU52HY9VVIGyh1QU8NEn+JnBLTWyhep8v2iLvl65z2OWEG7drDRuwGwW8sIJXF973vvcV6XS7zurO9REnbymAM6xbeRymXnLFHL9ZPKtFakzlsMOGMh63xuiCrCPSwtahB3CUzzmAE2kjyAt6qgtDuPUIrPAg2rqA22yQDr+dFALGGbSn/971YdomxxpVH5HT3IsO+zCqYVoSCJwAJpPoHPHE7bog7+/FKlru4aMf/WjBrGnSV72CXr1Cjq3aYI4/PMymLuBptEi3ySab1CWLOq6tw15dPdc9HRdbGOVqMlZ+q2G33XYrWDZNbKoXBrDtOIUgdTTsKgwe3CNXcFQr+ZjUynjcV10X5MQSk6kUgtytobvohmdbFckO3AAAIABJREFU4Lermow3tf/HP/5xcW7TrpPqapJq90NTOb7j8eRxMNp5552LqsiLbXUOu+x/v/SlLw1dfXlBANtm6wKewI96NfGvy8NlHG41Qn2bLiK3qRN+07K/OO+884p7zpE3/lQOO565IuMx5tUF6QBjl0ToATuB0C441SYugvS3FxeDJTcw7A/LL798Ef+Rj3ykP6rn+2mnnVbmE/sF5l/+8pdFW6BjXAgaNcjfeX8fkdvciw77qArieSQQGAEMQtK5abqCjNcyycElpido20CO14eBhe5p2bJM8JX37VUnoHIigDyatgbKySmeXJ5qaOuwo/0bb7xxwR5P4FcFbC0EV0y0+7fTyV0iuC+wLlTthofapBDk9u1h2yOfCaBzsvEQNNkv4CGVdQFP90da9DmxhyuuuKJsNx4e1x+qXLBaPmyQD6XChKspYAUOXHFBKqYgHT046dLRaOOwY9s12qt6+GFd+9HXyv7497//fV1SUX0GSZMTWpuRo8gLLrigYIK3BnQNe+yxR5EXxh4E7EaSv3GVwy77XKxcNgV5bzJePxl6kA/zbNo5NGo78FoycMWFP9U8QF4QbLrgV3VCY39jhHS0uzzwEeO3fItM/yvhcpt70WEf9dfJ80ggMAK4L1oOxHVbjFFtbLeUaVN7avmwZpG3ETRtP6yu1OKhYDLILca4L7gp4AqxHNSb0sYaP4zDjns1MSkFE7wPF9sssaqOSfUhhxxSalT1LlZ5HuzXFKQThMlr7OHUU08tuQzjPGISKR192EgV8JR+2S80OTZ4v7VMq7vXXVVGaMcuu+yy8jVLuomlnBhiRREc8Qc74Kn966yzTvHkaNzXrrs1Qz4IFBpvCtIJsuVYNJU/SjzaLbemYsu1DG0cdvmWh0MPPbR4+jacb1xAwb3ndQEPPpP6wxPh6wIuPsm0d955Z13SIOLkcyTw3APwxLvQsasLDhwcmLZB/kYxNskH7lWfHaJy2OWTuVXPaukvVz5Erc2FqP5zXX/HWwigAekw42nxuA8fF43xZHfcXoELO6MEPJhPXjw6+eSTB7Ko7pxpumcbfanUKnZExBqwgwvtABd5AW+Utsj5BPLq719zm3vRYR9FQTyHBAIkgAFIdvSYzNSF6kNtMGHNOeC9qJJb3SqPXCVD2upWZPk6FkwImgJej4PzY9ma2dQeVbwcYNu2EU4nHlAlbSBXIvAd2xdPP/10VTHlg9N0W5irJ8n76HC/bMwBk235BPemrZX97fzRj35UMIZjpZv0Y+Ip7aBaJarmWX0lX5NzVT3P52dMIvFmATx4C/feY2cHdIqHUOEVerogX/2GnQlwmrBDRnKq/sdKkOpWAvnAOTgFTWHVVVct8sYrOWMJcpUcfWQ1tHHYsbOpyrD6GfbR3S6DZwHItNgBUReGuZhdl4+rOHnLmmxf9T/eNoLdF03vpcZvUl6gqz7pvclhX3/99QuuuqfuVxnIWyBU7y2vpvP9GReBJUOs0spbJOSx6n/8/uouQP785z8v+hBc/MUzRPA8EVzIw39cWFGF6nyr7sG2OBf9rqwPLgrGGuQzQeTtMaO0o3ohcPPNNx/IIre5Fx32AQnwAAnESaD6ULSmp5BXH4B2/vnnx9lgg7WWE2oMlKpBEpN8eQUdaarbVeW77Zse9IfqwinA+cgr1TCsw44VJAxEcpJS/Y9dD7qH1chtcm2e2C1fH4f3wcYa8FTjFVdcseCEi0P4DQ8T4JSCrepJuzIfua0T+tQ59TJt1WFqukAoz/H9H+9XruoLn+FsYgW9bhVIngedyrcO4HVWuM8cD+bC5B2Ov8y76iChzfKhSU3PFkFarNgjH9zzGkOQFzMWW2yxgVcRtnHYcbEObcUFCvxhoi9fgSl5YtW3P1SfEF996GV/OnyvvhkF774OPWC8wcWKVVZZRay55ppiueWWE5KlZIIdRnhntS6svPLKhY7+53/+pydJk8Muz4MOmwLeDIL6oG8JOeDihuQmd9TBwcZbcvBWA7xaELtfZJpllllG2xx5L7pMi/+bbrqpwIV/XBhQBbzDXqave+gkzkW/K9OqLv6p8g/tWPUWIzwdf5QAm8m+dsKECQO3xCHP3OZedNhHURLPIYEACVQ7yf6tQ/3VxfY4OShUtzD2p8vl+6233trjkGNbKgYDXNWVq7MYlOVD/bAVSwb5KiZs7WwK8p3DcDZTDcM47NUnuIMjJuFYGcIW15/97GflMxn6txJjUiMvoLSZ1Mir/bongIduC+yekQ+Owgr7sO/ord7DW7caLvXZ5oJS1WEfdVLmmvuJJ54o8ICs3XffvVgd69/ZobpYhzpie7rsL8FGtSsJzpN0quacc86epuF99Ti/zS0ZcoUTTzYPPUydOrVoFy6sqTQpeVSf+dGmTXB8sFpZ3cmAW2SqAeOWtEndiijOqa5w4vktsQbcloU+TLYbF5pVQa48wunvv/DW5LDj9ZfIv+nZIChXltP0/BdVHV0ew3N6JDP8B0PVDiL5JgikwdikCrjHH30I2o7t9PJ2F5yD+QEc9/5QfaJ+04Npq2MbHtoWY5DPBRq1D8P4L+dduA/+oYceUmLIbe5Fh10pAx4kgfgIDDOBrg7a2NrKIATu+5f3U1YHd3zG9mM85VTeC41tcTJgpQ1pcBW4Kcj7srFVMdXQ1mHH1mLJ+YADDlDiwERHOub9T4iVTyjGVu+mIJ/w3WaFsykv1/HYxi3biu2aTauJqvrJ9yrjQX11AfdfwiZgrlstkufj9yLtB4co1oDJoFwpRHvg1PeH6upb3W0z2L4tmVRXcuXkc8cdd+zPeuA7tiIjjzYrnAMnOzxw2223lRfU+t/gIKsxqsMuz8cqm8wDfWbV+azektH04FRcpJJ2aVrhlGWH/F++Ux1tmjJlSk9V8SBKHMftRKqdL9WxX3UPO3Y54Hz0GU1B7jxps7usKS+b8dVbInBLUN072OW97sM8GBYOpnygLNj1v40ED7LEcfzdcMMNtU2tbt9Xvcmj9uQAIqsXx3BBb9hwyimnlA+Zw3gln72gyie3uRcddpUKeIwEIiRQfbooJlN1AatBcgCp21ZXl0eqcX/7298EVoTwfnY8CEmyrL6GDLcfyCAnT1hFawpY2QP3Nve7N+UVanxbh12uWjbd/4h71MEMq3jVbcvyXvfqAwB1TOQDsfAMgZgC2iZ/p9DZKKHqrDTd/oLt3bK8KmtVufKBVkjf5ZU9qrx9HJOvqcPFEfzWqwH3u0sudRdMqvef7rvvvmUWcqUYK3JNQV40xGQ01ACnT95igX5SF6SzPewKezU/bFmW7Kv9LvpleVy1ul/NA6uaMq3qLQDVtLF8lhfxPvGJT5RVru6k0b1Dveq8qh7AJ1dH3/3ud5f56j7ItLitJORQvSViq622qq0qVs+lVlSr8HUny1uWsNJeDdXymx5sV33o3NVXX13NJorPBx54YMEP4/OwQb6qFfybXtWIvHObe9FhH1ZRTE8CgRIY5kmkWP2Rg1IKk20XJqleEKk6M9JBxapkdQVIVSe8/gbcse011SB5ND10Tt7ziydt1wVMKqVWL7nkkjKp3LrZ5ARhxUKu0qvej1tmGNgHeUEDT3juvyd6mKriohP4gXfTqnn1wZXY3VAXZL6h379a14ZqXHWHUtUxRBr5docmTSOt3IWD1UcZ5NZNaLYpyItLeHd7qGH11Vcvf5O45xk7P/r/cP+1dCpxfzvisXtAtepb187qBafqE7aHua0LF6rwG2h6E0hdPUKLk/3fe97znrJqWFVHO3ERFPz7bYLv2KYs+1OZBk9Jl2HPPfcs4ttcgJYXonbZZRd5epD/MceRbZZPiddVtPoe9KY3ZfTngbeZyHL6b9OQz1zBbUd1odoHx7hzCc8GAAPcUjhMkLuY4Og3vaZR5ivnGrnMveiwS8vzPwkkQAD3TqKzrD4UTdUsvL4I6VJe6VW1u8sxPPwMzKoTJOSHLW44jr+mlR75XlJchU41yEG0zrmpPvQQD/6pC9UVh+p7x7fddtuCObYb14Xq6lrT06Tr8nEZh2cnQE94WFmT49xUL9zHirzavCsZW0WllvFAtbqACyVIu/baa9cliyauuoOmf1u8fEUR2lu3nRaNlferV50YaBznwqGqC3AQJP+mV3PW5WM7rur0yfq2/T/sjq7q77/qsKON8uF0dQ9SRDq5UwXORCpBPpm/+nBC6RS2tYVMh4tEMuCtHPI4bknQBVycxgUQpIWTG3qQY2/TTqXf/e53ZfuxCDJMwPgv2d100009p8oH2+J98HXhF7/4RZFHjLfNVV99i9cQtg1yLMHOBN396qq8cpt70WFXqYDHSCBSAtgehwGj6f4ruXWrafCKFIOVasvXD+FhaNWAiYucKNU9sRzOohzMmx48U80/ts9tHPbq1mGsPtaF6r2q1YkhHkoledZtU5bPDWjael9XB5dx0BfahZWGpntzm+pVvZ+w7f2Q8j3gm2yySW328vVyxx9/fG26WCKrT3LGNuxqqG4jvvnmm6tRPZ+rK3mYeMtQ3b5d985w3I8M28Oxb9qtI/P28R82/+lPf1r7h5VEudsAtxQgPbQ97Koh7geWv/N+dvI94HiadF2Qq9F77713XbKo4uROjOqDNMG3yS64PUHyxGoz0lefyVK9xx23vejC9ddfX+Yz7Eq0Lk+bx+UtL00PQoNGZP87bH0uuuiikgmc12rArSPIF/1mXZA7q/DKuNiCfGgfLta37b/k60ax2ATtDRNym3vRYR9GHUxLAoETOO+888oBQ/dwnerW7v4JUODN81Y9ubqOwVa1rVhOHOucQtzTigEbT/tOObRx2NF+OYnGSkLdK8rwKjY5wazef4qVTrnCo3v1G8qRD/yKZVeDvDcYD4DrGjARl+zarhbhPn+cg22Gugshcosx0tQ9FKhr/V2eD+dFslK1Sd5bXvcwOHmxBfn0P41fXuDAzhBdwBZlnIv3W6cQTNzD/sEPfrBggltD+kN1NVh1PzbSY4yTdm3aAdWff6jfq+3uv7jUVOenn3665IHt16qA+9fBrO5d7PJp9XhIXQwBz6aROsDFBlWAA4jX5SHdKK8AxSv0cK7qdoLqa3d1q89V21Rv/1LVNcRjso9ss5sL9cdcSl7U6394Ytv25TT3osPeVhVMRwKREMD9ghg0sMrev6UNK0BydT3l+6iHNdWjjz6qPUXeqwumuEdNFar3We+zzz4DSarvDB51YBrINNADbR326qQTW8D7tYrmHXnkkeUkS+Uo4cE0sAv+rr322gEi8n5MXBTof5DYQOIADlSdi66r62iOvC9wmKc4o48ALzDFQ6X6V0rgiMpJbd0DxwLAWVYBz0nAqxt1Ae9hlzrSOcsXXHBBmQavduoPyB9OJfJRvTccK5myDJTXH4444ogyHiv6KYQmhx2vWOt/orZsN3QnL5SCm+5tEPJVm7gA2H+7Ai5S4Z3aOL9pJ48sN4T/eFWl7oFneG2YvFcdDtKwofoANNVT4pFf9eF1Rx999EAR1VtEdM7vwEkBHMD77KEFzJFUY351POm/dQNjlOoc2Sw8c0L+vnVvkpBvgED/Cee8P8hn3PTfdtefLsTveK6PbD8uXLYJ1TeNDLu6LvPPae5Fh11anf9JIBEC1ft6cN8W7vvFw7YwIcSrx9CpYvuRbvUsEQxDNQP3m2IrMFZhse0aDz3BpFze/wtmX//612vzlM4h0uK+Xjj32FKIB1bJleCmJ9TWFhBJZFuHHc3Bg2nkII9ViUmTJhVOOljiYVYyDqvOTz311AABTGrlvYFY7cVT+HGfK9hLZxV51G3tHMjU44HqNn9cWAODuj9s76ze199fdTmxnzx5cn9U7ffqfZxwCmBTvPcaq+/yHm3VO55rM/UYid8jdIAVbEymoRG8cgi3S8jXWCEeE3pcsNAF+dwEpN1ggw0EJum48ITXtUF/OA4HUrebQd53jHTQOh4miPPlrUw43nayq6tjSMebHHb5VgI8DA07kND34reLe87lw6vABK/V1IXqlnk8kwUOJsY73J6EHU84Hw6SateELk/fx3HhBzsy8LpBvA8cnKBV+fBCtAlpRtkx0MZhR/tx0Qnl4A/bs/9/e3ceK9fYPwDcTi2voGljLX4oomKL2GJpY/nDEtS+JK3EUomglRBKpPYg2lQklrZBUFvij1pLSMRW0hJRFKWKkJbaand++T55z2Tu3Dnnztze95657edJJjP3POc8z3M+c+69851nOTNnzkztyHuRY3usqD6QUkxFi+Ha0fbo2Y3/F2Eb/+vz0S2R1+zLofx6jI6OmO4RnxHi72R8Zqj/nFC2CGp8CVBff9wBJUZIxDWblxELNba7MGMnvAcxIiDs4lE0cqOxnQ8//HDtmD322KP0f13+fzC+zGpMq8pnLwF74zvvZwIrgUD0BuVz3PI/ovlzBKYrupDVSkDU5RTy24PkRvXPsbBR/GNpJdV/Q19fRrxu5R7MrdTR6fvkAXu4tZKiFy1fA6DRLH6OnvXG4cX15cYw+REjRtT+8deXER9qIyAaKKm+l7X+PMpexwf5Zql+Lmr9HNVm+zbbFh+M8i+aGuuPALhxFeRmZXTKtvPPP7/p9VF/XhFAtzIKI36P64+rfx3Bf9kXodELFR/464/JX4d1J68M35v3Mh+JUXRbtzxgzw0anyO4qb89XlEb4ouufAG6xjJifnvjfOKicjplez4tpvFc8p/j/tSx5kJvUqsBe4xwiJEpeZ2Nz628L71p3//6mLhVWj5NqvGcIlgu+sIsXxit8Zj857hWr7zyyh6bH/XnC+Dlx+bP8QVT4x0qeiywQ3bI56/HubTydzSafd111xVeX7lJ43P8j2yWVoXPXgL2Zu+8bQRWAoHoUYjet1jwJ27bEh9IW71dxkpw+m2dQvSI5T1lMSwtHvHBPHrAWv3nk1c4f/78dA/RWDwmeoYuueSSLLatKikW5YremOh9aDVFcDlt2rQseoLDLeYPxof8xpV2y8qLazvuXR1zXqN3KK79gdSrFucWw0sfeuihth5Fc1hjyGVe1ldffVVGV5gXCyVGr3r0sMWIhXPOOSd79dVXC/fv5IyYYhAf9s4777zUUxl/EyMgiR7MdoegR09dTAeIazXmUEaZMby71fTyyy9nY8aMSddq9K7ffPPNK7zAYKt19+d+8Tc1rsGyICSGtEagE7+7MQUjHvE67lLQzmJmsW9MoYm/HfHext+Sot+N/jToTV3xdyvuVBDX1dFHH52ukzivCHBiBN2KpBhBkv9daGUBwJhqFD39MaIkFqKcOHHigOwBrjfLDWIeflwrMdw9vtTsaVh2dHTE72p8Nojf+/jyLT5XxXoj7XyBGVM3YuHGGHEX9cc0nPh/2Wx9nPp2d/LrWCMgrqt2viCPBWXza7HV51g/pSit7J+9BOxF77ztBAgQIECAAAECBAgQIECgQgEBe4X4qiZAgAABAgQIECBAgAABAkUCAvYiGdsJECBAgAABAgQIECBAgECFAgL2CvFVTYAAAQIECBAgQIAAAQIEigQE7EUythMgQIAAAQIECBAgQIAAgQoFBOwV4quaAAECBAgQIECAAAECBAgUCQjYi2RsJ0CAAAECBAgQIECAAAECFQoI2CvEVzUBAgQIECBAgAABAgQIECgSELAXydhOgAABAgQIECBAgAABAgQqFBCwV4ivagIECBAgQIAAAQIECBAgUCQgYC+SsZ0AAQIECBAgQIAAAQIECFQoIGCvEF/VBAgQIECAAAECBAgQIECgSEDAXiRjOwECBAgQIECAAAECBAgQqFBAwF4hvqoJECBAgAABAgQIECBAgECRgIC9SMZ2AgQIECBAgAABAgQIECBQoYCAvUJ8VRMgQIAAAQIECBAgQIAAgSIBAXuRjO0ECBAgQIAAAQIECBAgQKBCAQF7hfiqJkCAAAECBAgQIECAAAECRQIC9iIZ2wkQIECAAAECBAgQIECAQIUCAvYK8VVNgAABAgQIECBAgAABAgSKBATsRTK2EyBAgAABAgQIECBAgACBCgUE7BXiq5oAAQIECBAgQIAAAQIECBQJCNiLZGwnQIAAAQIECBAgQIAAAQIVCgjYK8RXNQECBAgQIECAAAECBAgQKBIQsBfJ2E6AAAECBAgQIECAAAECBCoUELBXiK9qAgQIECBAgAABAgQIECBQJCBgL5KxnQABAgQIECBAgAABAgQIVCggYK8QX9UECBAgQIDAwBP4448/sh122CGLD1EvvvjiwDsBLSZAgACBASMgYB8wb5WGEiBAgACBlUNgyZIl2emnn56dccYZ2T333DPgTioC9tVWWy09XnrppUrb/++//ybL8FywYEGXttx1113ZyJEjs1122SVZL168uEv+3XffnbZPnjy5y3Y/ECBAgEDnCAjYO+e90BICBAgQILBKCFx77bW1gHezzTYbcOfcSQH7aaedliyvuOKKLo6HH3542r7eeutlQ4YMSa/XXHPN7OWXX67t988//2Tbbrttyps9e3ZtuxcECBAg0DkCAvbOeS+0hAABAgQIrBICQ4cOTUFi3kv9xhtvDKjz7pSAfdasWckxPszVpxkzZqTtRx99dPbzzz+nrDCOgL3xC5J58+alfTfeeOPsr7/+qi/GawIECBDoAAEBewe8CZpAgAABAgRWFYE5c+akAHHttdfODjzwwPT62GOPHVCn3ykB++DBg5PfW2+91cXvhBNOSNuXLl3aZfull16ati9cuLDL9rPPPjttHzduXJftfiBAgACB6gUE7NW/B1pAgAABAgRWGYE8mDzkkEOyO+64IwWKa6yxRvb7778PGINOCNhjfnqMUDjggAO6uR188MGpN72xx/ymm25Kx8SXJvXp+++/z1ZfffX0+OGHH+qzvCZAgACBigUE7BW/AaonQIAAAQKrisCff/6ZAskINJ988skseoDzYfEDafG5TgjYN99882T3yiuvdLt8rrnmmpQ3derUWl7MVx82bFja/ttvv9W25y+OO+64lHfVVVflmzwTIECAQAcICNg74E3QBAIECBAgsCoITJs2LQWFa621Vm2+dKxiHkH7jjvu2CPBpEmTsjPPPDOLgDTSTz/9lE2cODHdYu0///lPWlwt5m2/9957PZYVvc833nhjNmLEiGzTTTfNYg53vL7zzjvTsbE4W9R17rnnZvFFQ31qNWCPFdwjaN57771rdQwfPjy7/PLLs19++aW+yLZev//++8ks2t0sxbnFXPVwjUXpwmv77bdPPzcuTpcfn09VKCoz388zAQIECPSvgIC9f73VRoAAAQIEVlmBnXfeOQWNJ554Ys3ghRdeSNsiuGycW13b6b8vDj300LRvzH3/8MMPs3wOd95LX/8cPfhFaf78+SmArt+//vW+++6b3XvvvbV2RYBen1oJ2BctWpRttdVWtTLqy4/XsXr73Llz64tt+fWECRNSuWPGjCk85uuvv87233//LNYKiOHu66yzTnb99dcX7h8Z66+/fir3s88+K91PJgECBAj0n4CAvf+s1USAAAECBFZZgS+++KIWvDbOoc4DxQsvvLDUJw/YY9721ltvnW2xxRZZrJT+7bffZhFk5nPi84C4cQ53FL5s2bJs0KBBtbZMmTIlBc4xPD/ald8m7fjjj6/t027AHvPAN9xww3T8BhtskM2cOTOLAP6rr77KHnvssSxGA0QbY5/ly5eXnnOzzJ122ikdH1929JTifD/++OPaiIay/Q877LBUbphIBAgQINAZAgL2zngftIIAAQIECKzUAhdddFEKBiNYbUxjx45NeRHclqU8YI9gd4cddug2VD2OnT59eior9nnwwQe7FXfEEUek/Fjoruh2crfffnutjCin3YA9Fn2L42KYfbNF3L777rvaXP7x48d3a2NPG2JKQZQfwXhfpuuuuy6Ve8wxx/RlscoiQIAAgRUQELCvAJ5DCRAgQIAAgdYEIhiPIPOyyy7rdsAHH3yQ8iL/6aef7pafb4iV5WOfeBQF2zFvfN111037nHLKKfmh6XnJkiW14y+++OIueY0/7LbbbrV92wnYP/roo9pxzz77bGOxtZ/zW6y1O2c8VnSP84+h7n2d8ukJ8WWIRIAAAQKdISBg74z3QSsIECBAgMBKK/D888/XgtjPP/+86XnG8PYIRA866KCm+bEx72GPIe1lKR8yvt9++3XZbcaMGbV29NQ7HfO98y8H2gnYYxG8OC7a+Pfff3epv/6H+GIiL7+dBehi7n4cN2TIkPri+uT1J598kspuNgqiTypQCAECBAi0LSBgb5vMAQQIECBAgEA7AnmgXdZzmw/HjmC02TDyqC8vJxavK0ujRo1KgWf0ktenU089NW2PueM9pZdeeintG+1pJ2CPFeHjmH322Se75JJLCh8XXHBBrfyY295qevvtt9Nxsep7X6dvvvkmlR0L4kkECBAg0BkCAvbOeB+0ggABAgQIrJQCP/74Yy0wjVu3RdDd7BErv0egG48bbrihqUUesDf2nDfuPHr06FROY8Cezy2PHvieUm8D9vz2afm5tPIcw+hbTXHf9SizlXNotcx8v3y4fcyRlwgQIECgMwQE7J3xPmgFAQIECBBYKQVuueWWWiDeSvAa+wwdOrSpxYoG7HvuuWdqSzz3lOqH8bfTw77ddtvV6oj7vLfyiFuwtZreeeedVH7U09cp2hH+etj7WlZ5BAgQ6L2AgL33do4kQIAAAQIEehDYcsstUxAYPeiTJk0qfVx99dVp3wgaIzBtTCsasI8cOTKV38pCb/W3iGsnYI+h8NH+bbbZprH5ffJzPs+8lXNot8L333+/ZZ92y7Y/AQIECPROQMDeOzdHESBAgAABAj0IzJs3rxaAl62YnhcT902P261FwHvSSSflm2vPKxqwX3755ans1VdfPfv9999r5TZ70dv7sE+YMCHVEcPK//nnn2ZFr9C2X3/9NZUfTrEifl+QfQltAAAJGklEQVSmJ554IpXdOJWgL+tQFgECBAi0JyBgb8/L3gQIECBAgECLAvkib3ELslaDyxNPPDEFjWuuuWa3+6yvaMD++uuvp7LjC4EI3ovSokWLavvFvu30sM+ZM6d2bNFc/KJ6W90eK9BHu9pZrK6VsuNWd1HuWWed1cru9iFAgACBfhAQsPcDsioIECBAgMCqJhC95dHLHAHgySef3PLp56ugx3FxG7b6tKIBe5QVQ9Wj7Ohlb3bP97hX+1577ZXFrc1iv3i0E7BHHfHhKo6LXvBZs2bVn0LtdfS+R0BfdJu72o5NXuTD7u+///4mub3flN97/sEHH+x9IY4kQIAAgT4VELD3KafCCBAgQIAAgRCIoC8PeN988822UGJ+dhy76667djmuLwL29957r9auqOO0005LXww89dRT6RZsccu3ddZZJ7v11ltr+7UbsH/66adZjBDIzz9GDUyePDl78cUXs8cffzwbN25cttlmm6X8L7/8sss5tvJDlBVlx5z8vkoxRSC+xIhyY2V/iQABAgQ6Q0DA3hnvg1YQIECAAIGVSmD33XdPwV/0VLebJk6cmI6N4LG+BzoP2A844IDSImP+exwbbWiWZs+e3aUHPfbNH4MHD85i6HwE8Pm2v//+u0sxEcDneXH7t2bp3XffrfXm5/s2Ph911FHdhv03K6tx29KlS1P98aVA45cJjfu2+nP01kf7errHfavl2Y8AAQIE+kZAwN43jkohQIAAAQIE/isQw70ffvjh7KGHHsoiOG43/fTTT9mjjz6aHjEnPE/PPPNMNnPmzCxuuVaWnnvuubRf0XD0ODYC3WnTpqXh+qNGjUrzth944IEshvJHirZHABvD2htTzMfPz2/hwoWN2V1+jjaPHTs2O/LII7Oo5/TTT8+mTJmS9aZnvb7g/L71U6dOrd/c69fDhw9P5/vII4/0ugwHEiBAgEDfCwjY+95UiQQIECBAgMAAFxg/fnwKYIcMGdKRZ/LWW2+l9m2yySYr3L4YJRBfTsToAokAAQIEOktAwN5Z74fWECBAgAABAh0gsMUWW6QgdvTo0R3QmuZNOPzww1Mbb7vttuY7tLh1xx13TOXE6AWJAAECBDpLQMDeWe+H1hAgQIAAAQIVC9x3330pgI1e5/oh+RU3q1v1y5Yty9Zbb700bP+bb77plt/KhptvvjmdawzZlwgQIECg8wQE7J33nmgRAQIECBAg8D8SOPvss7Prr78+i2C3McX89dtvv70WrMcid52eYp5+rO4et2RrN82dOzctvhejCX777bd2D7c/AQIECPSDgIC9H5BVQYAAAQIECHSGwMEHH5wC8ghyhw0blh1xxBHZqaeemsXK84MGDaoF63FLueXLl3dGo3toxeLFi7NFixa1HXR//fXX6bhff/21hxpkEyBAgEBVAgL2quTVS4AAAQIECPS7wJ133pluXRbD3Zs9Ntpoo2zSpElZrAQvESBAgACBqgUE7FW/A+onQIAAAQIE+l0g5ny/9tpr6fZv06dPT/ddX7BgQb+3Q4UECBAgQKBMQMBepiOPAAECBAgQIECAAAECBAhUJCBgrwhetQQIECBAgAABAgQIECBAoExAwF6mI48AAQIECBAgQIAAAQIECFQkIGCvCF61BAgQIECAAAECBAgQIECgTEDAXqYjjwABAgQIECBAgAABAgQIVCQgYK8IXrUECBAgQIAAAQIECBAgQKBMQMBepiOPAAECBAgQIECAAAECBAhUJCBgrwhetQQIECBAgAABAgQIECBAoExAwF6mI48AAQIECBAgQIAAAQIECFQkIGCvCF61BAgQIECAAAECBAgQIECgTEDAXqYjjwABAgQIECBAgAABAgQIVCQgYK8IXrUECBAgQIAAAQIECBAgQKBMQMBepiOPAAECBAgQIECAAAECBAhUJCBgrwhetQQIECBAgAABAgQIECBAoExAwF6mI48AAQIECBAgQIAAAQIECFQkIGCvCF61BAgQIECAAAECBAgQIECgTEDAXqYjjwABAgQIECBAgAABAgQIVCQgYK8IXrUECBAgQIAAAQIECBAgQKBMQMBepiOPAAECBAgQIECAAAECBAhUJCBgrwhetQQIECBAgAABAgQIECBAoExAwF6mI48AAQIECBAgQIAAAQIECFQkIGCvCF61BAgQIECAAAECBAgQIECgTEDAXqYjjwABAgQIECBAgAABAgQIVCQgYK8IXrUECBAgQIAAAQIECBAgQKBMQMBepiOPAAECBAgQIECAAAECBAhUJCBgrwhetQQIECBAgAABAgQIECBAoExAwF6mI48AAQIECBAgQIAAAQIECFQkIGCvCF61BAgQIECAAAECBAgQIECgTEDAXqYjjwABAgQIECBAgAABAgQIVCQgYK8IXrUECBAgQIAAAQIECBAgQKBMQMBepiOPAAECBAgQIECAAAECBAhUJCBgrwhetQQIECBAgAABAgQIECBAoExAwF6mI48AAQIECBAgQIAAAQIECFQkIGCvCF61BAgQIECAAAECBAgQIECgTEDAXqYjjwABAgQIECBAgAABAgQIVCQgYK8IXrUECBAgQIAAAQIECBAgQKBMQMBepiOPAAECBAgQIECAAAECBAhUJCBgrwhetQQIECBAgAABAgQIECBAoExAwF6mI48AAQIECBAgQIAAAQIECFQkIGCvCF61BAgQIECAAAECBAgQIECgTEDAXqYjjwABAgQIECBAgAABAgQIVCQgYK8IXrUECBAgQIAAAQIECBAgQKBMQMBepiOPAAECBAgQIECAAAECBAhUJCBgrwhetQQIECBAgAABAgQIECBAoExAwF6mI48AAQIECBAgQIAAAQIECFQkIGCvCF61BAgQIECAAAECBAgQIECgTEDAXqYjjwABAgQIECBAgAABAgQIVCQgYK8IXrUECBAgQIAAAQIECBAgQKBMQMBepiOPAAECBAgQIECAAAECBAhUJCBgrwhetQQIECBAgAABAgQIECBAoEygW8Ceb/D8fxkDBq4B14BrwDXgGnANuAZcA64B14BrwDVQ9TWwWtUNUL9fAteAa8A14BpwDbgGXAOuAdeAa8A14BpwDXS/Bv4fxOWyH8Pbo90AAAAASUVORK5CYII=;" parent="1" vertex="1">
          <mxGeometry x="120" y="80" width="349.63" height="374" as="geometry" />
        </mxCell>
        <mxCell id="jDTzTQZYVNWjCPyWCqiT-3" value="" style="rounded=0;whiteSpace=wrap;html=1;fillColor=none;strokeColor=#0B5C93;strokeWidth=2;" parent="1" vertex="1">
          <mxGeometry x="130" y="110" width="67" height="280" as="geometry" />
        </mxCell>
        <mxCell id="jDTzTQZYVNWjCPyWCqiT-4" value="" style="rounded=0;whiteSpace=wrap;html=1;fillColor=none;strokeColor=#0B5C93;strokeWidth=2;" parent="1" vertex="1">
          <mxGeometry x="197" y="110" width="263" height="280" as="geometry" />
        </mxCell>
        <mxCell id="jDTzTQZYVNWjCPyWCqiT-5" value="" style="rounded=0;whiteSpace=wrap;html=1;fillColor=none;strokeColor=#0B5C93;strokeWidth=2;" parent="1" vertex="1">
          <mxGeometry x="197" y="390" width="263" height="50" as="geometry" />
        </mxCell>
        <mxCell id="jDTzTQZYVNWjCPyWCqiT-6" value="" style="rounded=0;whiteSpace=wrap;html=1;fillColor=none;strokeColor=#0B5C93;strokeWidth=2;" parent="1" vertex="1">
          <mxGeometry x="130" y="390" width="67" height="50" as="geometry" />
        </mxCell>
        <mxCell id="jDTzTQZYVNWjCPyWCqiT-8" style="edgeStyle=orthogonalEdgeStyle;rounded=0;orthogonalLoop=1;jettySize=auto;html=1;exitX=1;exitY=0.5;exitDx=0;exitDy=0;entryX=0;entryY=0.5;entryDx=0;entryDy=0;" parent="1" source="jDTzTQZYVNWjCPyWCqiT-7" target="jDTzTQZYVNWjCPyWCqiT-3" edge="1">
          <mxGeometry relative="1" as="geometry" />
        </mxCell>
        <mxCell id="jDTzTQZYVNWjCPyWCqiT-7" value="Top-left cell: Left axis" style="text;html=1;align=center;verticalAlign=middle;whiteSpace=wrap;rounded=0;" parent="1" vertex="1">
          <mxGeometry y="120" width="80" height="130" as="geometry" />
        </mxCell>
        <mxCell id="jDTzTQZYVNWjCPyWCqiT-10" style="edgeStyle=orthogonalEdgeStyle;rounded=0;orthogonalLoop=1;jettySize=auto;html=1;exitX=0;exitY=0.5;exitDx=0;exitDy=0;entryX=1;entryY=0.5;entryDx=0;entryDy=0;" parent="1" source="jDTzTQZYVNWjCPyWCqiT-9" target="jDTzTQZYVNWjCPyWCqiT-4" edge="1">
          <mxGeometry relative="1" as="geometry" />
        </mxCell>
        <mxCell id="jDTzTQZYVNWjCPyWCqiT-9" value="Top-right cell: Graphing area" style="text;html=1;align=center;verticalAlign=middle;whiteSpace=wrap;rounded=0;" parent="1" vertex="1">
          <mxGeometry x="510" y="120" width="80" height="130" as="geometry" />
        </mxCell>
        <mxCell id="jDTzTQZYVNWjCPyWCqiT-12" style="edgeStyle=orthogonalEdgeStyle;rounded=0;orthogonalLoop=1;jettySize=auto;html=1;exitX=1;exitY=0.5;exitDx=0;exitDy=0;entryX=0;entryY=0.5;entryDx=0;entryDy=0;" parent="1" source="jDTzTQZYVNWjCPyWCqiT-11" target="jDTzTQZYVNWjCPyWCqiT-6" edge="1">
          <mxGeometry relative="1" as="geometry" />
        </mxCell>
        <mxCell id="jDTzTQZYVNWjCPyWCqiT-11" value="Bottom-left cell: Nothing" style="text;html=1;align=center;verticalAlign=middle;whiteSpace=wrap;rounded=0;" parent="1" vertex="1">
          <mxGeometry y="310" width="90" height="130" as="geometry" />
        </mxCell>
        <mxCell id="jDTzTQZYVNWjCPyWCqiT-14" style="edgeStyle=orthogonalEdgeStyle;rounded=0;orthogonalLoop=1;jettySize=auto;html=1;exitX=0;exitY=0.5;exitDx=0;exitDy=0;entryX=1;entryY=0.5;entryDx=0;entryDy=0;" parent="1" source="jDTzTQZYVNWjCPyWCqiT-13" target="jDTzTQZYVNWjCPyWCqiT-5" edge="1">
          <mxGeometry relative="1" as="geometry" />
        </mxCell>
        <mxCell id="jDTzTQZYVNWjCPyWCqiT-13" value="Bottom-right cell: Bottom axis" style="text;html=1;align=center;verticalAlign=middle;whiteSpace=wrap;rounded=0;" parent="1" vertex="1">
          <mxGeometry x="500" y="310" width="100" height="130" as="geometry" />
        </mxCell>
      </root>
    </mxGraphModel>
  </diagram>
</mxfile>
